G04 #@! TF.GenerationSoftware,KiCad,Pcbnew,(5.1.4)-1*
G04 #@! TF.CreationDate,2020-03-19T13:00:02-06:00*
G04 #@! TF.ProjectId,Axle Ratio Change,41786c65-2052-4617-9469-6f204368616e,rev?*
G04 #@! TF.SameCoordinates,Original*
G04 #@! TF.FileFunction,Copper,L2,Bot*
G04 #@! TF.FilePolarity,Positive*
%FSLAX46Y46*%
G04 Gerber Fmt 4.6, Leading zero omitted, Abs format (unit mm)*
G04 Created by KiCad (PCBNEW (5.1.4)-1) date 2020-03-19 13:00:02*
%MOMM*%
%LPD*%
G04 APERTURE LIST*
%ADD10C,6.400000*%
%ADD11C,1.879600*%
%ADD12C,1.600000*%
%ADD13C,1.700000*%
%ADD14C,0.250000*%
%ADD15C,0.254000*%
G04 APERTURE END LIST*
D10*
X112250000Y-121500000D03*
X165250000Y-121250000D03*
X111750000Y-71750000D03*
X191750000Y-71750000D03*
D11*
X154040000Y-73250000D03*
X151500000Y-73250000D03*
D12*
X161750000Y-79750000D03*
X159250000Y-79750000D03*
X150500000Y-120750000D03*
X148000000Y-120750000D03*
X118500000Y-120750000D03*
X121000000Y-120750000D03*
X194500000Y-120750000D03*
X197000000Y-120750000D03*
D13*
X169450000Y-112480000D03*
X171990000Y-112480000D03*
X171990000Y-95970000D03*
X171990000Y-93430000D03*
X159290000Y-112480000D03*
X159290000Y-109940000D03*
X159290000Y-107400000D03*
X159290000Y-104860000D03*
X159290000Y-102320000D03*
X159290000Y-99780000D03*
X159290000Y-97240000D03*
X159290000Y-94700000D03*
X159290000Y-92160000D03*
X159290000Y-89620000D03*
X159290000Y-84540000D03*
X159290000Y-87080000D03*
X174530000Y-84540000D03*
X174530000Y-87080000D03*
X174530000Y-89620000D03*
X174530000Y-92160000D03*
X174530000Y-94700000D03*
X174530000Y-97240000D03*
X174530000Y-99780000D03*
X174530000Y-102320000D03*
X174530000Y-104860000D03*
X174530000Y-107400000D03*
X174530000Y-109940000D03*
X174530000Y-112480000D03*
X153930000Y-85935000D03*
X153930000Y-88475000D03*
X141230000Y-88475000D03*
X143770000Y-88475000D03*
X150120000Y-116415000D03*
X147580000Y-116415000D03*
X145040000Y-116415000D03*
X142500000Y-116415000D03*
X139960000Y-116415000D03*
X137420000Y-116415000D03*
X134880000Y-116415000D03*
X202930000Y-85935000D03*
X202930000Y-88475000D03*
X190230000Y-88475000D03*
X192770000Y-88475000D03*
X199120000Y-116415000D03*
X196580000Y-116415000D03*
X194040000Y-116415000D03*
X191500000Y-116415000D03*
X188960000Y-116415000D03*
X186420000Y-116415000D03*
X183880000Y-116415000D03*
X124930000Y-85935000D03*
X124930000Y-88475000D03*
X112230000Y-88475000D03*
X114770000Y-88475000D03*
X121120000Y-116415000D03*
X118580000Y-116415000D03*
X116040000Y-116415000D03*
X113500000Y-116415000D03*
X110960000Y-116415000D03*
X108420000Y-116415000D03*
X105880000Y-116415000D03*
D14*
X176000000Y-163000000D02*
X176000000Y-161000000D01*
X121120000Y-120630000D02*
X121000000Y-120750000D01*
X121120000Y-116415000D02*
X121120000Y-120630000D01*
X117215001Y-115239999D02*
X116889999Y-115565001D01*
X124034003Y-117590001D02*
X121684001Y-115239999D01*
X137984001Y-117590001D02*
X124034003Y-117590001D01*
X138595001Y-116979001D02*
X137984001Y-117590001D01*
X138595001Y-116040997D02*
X138595001Y-116979001D01*
X116889999Y-115565001D02*
X116040000Y-116415000D01*
X144695998Y-109940000D02*
X138595001Y-116040997D01*
X121684001Y-115239999D02*
X117215001Y-115239999D01*
X159290000Y-109940000D02*
X144695998Y-109940000D01*
X175705001Y-110504001D02*
X175705001Y-108575001D01*
X175094001Y-111115001D02*
X175705001Y-110504001D01*
X145259999Y-113655001D02*
X172554001Y-113655001D01*
X175705001Y-108575001D02*
X175379999Y-108249999D01*
X173991409Y-111115001D02*
X175094001Y-111115001D01*
X175379999Y-108249999D02*
X174530000Y-107400000D01*
X173200009Y-111906401D02*
X173991409Y-111115001D01*
X173200009Y-113008993D02*
X173200009Y-111906401D01*
X172554001Y-113655001D02*
X173200009Y-113008993D01*
X142500000Y-116415000D02*
X145259999Y-113655001D01*
X173354999Y-111115001D02*
X173680001Y-110789999D01*
X139960000Y-116415000D02*
X145259999Y-111115001D01*
X173680001Y-110789999D02*
X174530000Y-109940000D01*
X145259999Y-111115001D02*
X173354999Y-111115001D01*
X173680001Y-105709999D02*
X174530000Y-104860000D01*
X170625001Y-108764999D02*
X173680001Y-105709999D01*
X145070001Y-108764999D02*
X170625001Y-108764999D01*
X137420000Y-116415000D02*
X145070001Y-108764999D01*
X174865000Y-104860000D02*
X174530000Y-104860000D01*
X186420000Y-116415000D02*
X174865000Y-104860000D01*
X173680001Y-113329999D02*
X174530000Y-112480000D01*
X171770001Y-115239999D02*
X173680001Y-113329999D01*
X146215001Y-115239999D02*
X171770001Y-115239999D01*
X145040000Y-116415000D02*
X146215001Y-115239999D01*
X173680001Y-103169999D02*
X174530000Y-102320000D01*
X170625001Y-106224999D02*
X173680001Y-103169999D01*
X145070001Y-106224999D02*
X170625001Y-106224999D01*
X134880000Y-116415000D02*
X145070001Y-106224999D01*
D15*
G36*
X109305330Y-68771161D02*
G01*
X108771161Y-69305330D01*
X108351467Y-69933446D01*
X108062377Y-70631372D01*
X107915000Y-71372285D01*
X107915000Y-72127715D01*
X108062377Y-72868628D01*
X108351467Y-73566554D01*
X108771161Y-74194670D01*
X109305330Y-74728839D01*
X109933446Y-75148533D01*
X110631372Y-75437623D01*
X111372285Y-75585000D01*
X112127715Y-75585000D01*
X112868628Y-75437623D01*
X113566554Y-75148533D01*
X114194670Y-74728839D01*
X114581033Y-74342476D01*
X150587129Y-74342476D01*
X150675623Y-74600723D01*
X150954976Y-74735597D01*
X151255275Y-74813381D01*
X151564977Y-74831084D01*
X151872184Y-74788027D01*
X152165086Y-74685865D01*
X152324377Y-74600723D01*
X152412871Y-74342476D01*
X151500000Y-73429605D01*
X150587129Y-74342476D01*
X114581033Y-74342476D01*
X114728839Y-74194670D01*
X115148533Y-73566554D01*
X115252739Y-73314977D01*
X149918916Y-73314977D01*
X149961973Y-73622184D01*
X150064135Y-73915086D01*
X150149277Y-74074377D01*
X150407524Y-74162871D01*
X151320395Y-73250000D01*
X151679605Y-73250000D01*
X152592476Y-74162871D01*
X152725505Y-74117286D01*
X152816773Y-74253877D01*
X153036123Y-74473227D01*
X153294052Y-74645570D01*
X153580648Y-74764282D01*
X153884896Y-74824800D01*
X154195104Y-74824800D01*
X154499352Y-74764282D01*
X154785948Y-74645570D01*
X155043877Y-74473227D01*
X155263227Y-74253877D01*
X155435570Y-73995948D01*
X155554282Y-73709352D01*
X155614800Y-73405104D01*
X155614800Y-73094896D01*
X155554282Y-72790648D01*
X155435570Y-72504052D01*
X155263227Y-72246123D01*
X155043877Y-72026773D01*
X154785948Y-71854430D01*
X154499352Y-71735718D01*
X154195104Y-71675200D01*
X153884896Y-71675200D01*
X153580648Y-71735718D01*
X153294052Y-71854430D01*
X153036123Y-72026773D01*
X152816773Y-72246123D01*
X152725505Y-72382714D01*
X152592476Y-72337129D01*
X151679605Y-73250000D01*
X151320395Y-73250000D01*
X150407524Y-72337129D01*
X150149277Y-72425623D01*
X150014403Y-72704976D01*
X149936619Y-73005275D01*
X149918916Y-73314977D01*
X115252739Y-73314977D01*
X115437623Y-72868628D01*
X115579070Y-72157524D01*
X150587129Y-72157524D01*
X151500000Y-73070395D01*
X152412871Y-72157524D01*
X152324377Y-71899277D01*
X152045024Y-71764403D01*
X151744725Y-71686619D01*
X151435023Y-71668916D01*
X151127816Y-71711973D01*
X150834914Y-71814135D01*
X150675623Y-71899277D01*
X150587129Y-72157524D01*
X115579070Y-72157524D01*
X115585000Y-72127715D01*
X115585000Y-71372285D01*
X115437623Y-70631372D01*
X115148533Y-69933446D01*
X114728839Y-69305330D01*
X114194670Y-68771161D01*
X114028306Y-68660000D01*
X189471694Y-68660000D01*
X189305330Y-68771161D01*
X188771161Y-69305330D01*
X188351467Y-69933446D01*
X188062377Y-70631372D01*
X187915000Y-71372285D01*
X187915000Y-72127715D01*
X188062377Y-72868628D01*
X188351467Y-73566554D01*
X188771161Y-74194670D01*
X189305330Y-74728839D01*
X189933446Y-75148533D01*
X190631372Y-75437623D01*
X191372285Y-75585000D01*
X192127715Y-75585000D01*
X192868628Y-75437623D01*
X193566554Y-75148533D01*
X194194670Y-74728839D01*
X194728839Y-74194670D01*
X195148533Y-73566554D01*
X195437623Y-72868628D01*
X195585000Y-72127715D01*
X195585000Y-71372285D01*
X195437623Y-70631372D01*
X195148533Y-69933446D01*
X194728839Y-69305330D01*
X194194670Y-68771161D01*
X194028306Y-68660000D01*
X199340001Y-68660000D01*
X199340000Y-73967581D01*
X199336807Y-74000000D01*
X199349550Y-74129383D01*
X199387290Y-74253793D01*
X199448575Y-74368450D01*
X199531052Y-74468948D01*
X199631550Y-74551425D01*
X199746207Y-74612710D01*
X199870617Y-74650450D01*
X200000000Y-74663193D01*
X200032419Y-74660000D01*
X205340001Y-74660000D01*
X205340000Y-118340000D01*
X200032419Y-118340000D01*
X200000000Y-118336807D01*
X199967581Y-118340000D01*
X199870617Y-118349550D01*
X199746207Y-118387290D01*
X199631550Y-118448575D01*
X199531052Y-118531052D01*
X199448575Y-118631550D01*
X199387290Y-118746207D01*
X199349550Y-118870617D01*
X199336807Y-119000000D01*
X199340001Y-119032429D01*
X199340000Y-124340000D01*
X167528306Y-124340000D01*
X167694670Y-124228839D01*
X168228839Y-123694670D01*
X168648533Y-123066554D01*
X168937623Y-122368628D01*
X169062127Y-121742702D01*
X193686903Y-121742702D01*
X193758486Y-121986671D01*
X194013996Y-122107571D01*
X194288184Y-122176300D01*
X194570512Y-122190217D01*
X194850130Y-122148787D01*
X195116292Y-122053603D01*
X195241514Y-121986671D01*
X195313097Y-121742702D01*
X194500000Y-120929605D01*
X193686903Y-121742702D01*
X169062127Y-121742702D01*
X169085000Y-121627715D01*
X169085000Y-120872285D01*
X169074702Y-120820512D01*
X193059783Y-120820512D01*
X193101213Y-121100130D01*
X193196397Y-121366292D01*
X193263329Y-121491514D01*
X193507298Y-121563097D01*
X194320395Y-120750000D01*
X194679605Y-120750000D01*
X195492702Y-121563097D01*
X195736671Y-121491514D01*
X195750324Y-121462659D01*
X195885363Y-121664759D01*
X196085241Y-121864637D01*
X196320273Y-122021680D01*
X196581426Y-122129853D01*
X196858665Y-122185000D01*
X197141335Y-122185000D01*
X197418574Y-122129853D01*
X197679727Y-122021680D01*
X197914759Y-121864637D01*
X198114637Y-121664759D01*
X198271680Y-121429727D01*
X198379853Y-121168574D01*
X198435000Y-120891335D01*
X198435000Y-120608665D01*
X198379853Y-120331426D01*
X198271680Y-120070273D01*
X198114637Y-119835241D01*
X197914759Y-119635363D01*
X197679727Y-119478320D01*
X197418574Y-119370147D01*
X197141335Y-119315000D01*
X196858665Y-119315000D01*
X196581426Y-119370147D01*
X196320273Y-119478320D01*
X196085241Y-119635363D01*
X195885363Y-119835241D01*
X195751308Y-120035869D01*
X195736671Y-120008486D01*
X195492702Y-119936903D01*
X194679605Y-120750000D01*
X194320395Y-120750000D01*
X193507298Y-119936903D01*
X193263329Y-120008486D01*
X193142429Y-120263996D01*
X193073700Y-120538184D01*
X193059783Y-120820512D01*
X169074702Y-120820512D01*
X168937623Y-120131372D01*
X168782677Y-119757298D01*
X193686903Y-119757298D01*
X194500000Y-120570395D01*
X195313097Y-119757298D01*
X195241514Y-119513329D01*
X194986004Y-119392429D01*
X194711816Y-119323700D01*
X194429488Y-119309783D01*
X194149870Y-119351213D01*
X193883708Y-119446397D01*
X193758486Y-119513329D01*
X193686903Y-119757298D01*
X168782677Y-119757298D01*
X168648533Y-119433446D01*
X168228839Y-118805330D01*
X167694670Y-118271161D01*
X167066554Y-117851467D01*
X166368628Y-117562377D01*
X165627715Y-117415000D01*
X164872285Y-117415000D01*
X164131372Y-117562377D01*
X163433446Y-117851467D01*
X162805330Y-118271161D01*
X162271161Y-118805330D01*
X161851467Y-119433446D01*
X161562377Y-120131372D01*
X161415000Y-120872285D01*
X161415000Y-121627715D01*
X161562377Y-122368628D01*
X161851467Y-123066554D01*
X162271161Y-123694670D01*
X162805330Y-124228839D01*
X162971694Y-124340000D01*
X114833509Y-124340000D01*
X115228839Y-123944670D01*
X115648533Y-123316554D01*
X115937623Y-122618628D01*
X116085000Y-121877715D01*
X116085000Y-121742702D01*
X117686903Y-121742702D01*
X117758486Y-121986671D01*
X118013996Y-122107571D01*
X118288184Y-122176300D01*
X118570512Y-122190217D01*
X118850130Y-122148787D01*
X119116292Y-122053603D01*
X119241514Y-121986671D01*
X119313097Y-121742702D01*
X118500000Y-120929605D01*
X117686903Y-121742702D01*
X116085000Y-121742702D01*
X116085000Y-121122285D01*
X116024974Y-120820512D01*
X117059783Y-120820512D01*
X117101213Y-121100130D01*
X117196397Y-121366292D01*
X117263329Y-121491514D01*
X117507298Y-121563097D01*
X118320395Y-120750000D01*
X117507298Y-119936903D01*
X117263329Y-120008486D01*
X117142429Y-120263996D01*
X117073700Y-120538184D01*
X117059783Y-120820512D01*
X116024974Y-120820512D01*
X115937623Y-120381372D01*
X115679124Y-119757298D01*
X117686903Y-119757298D01*
X118500000Y-120570395D01*
X119313097Y-119757298D01*
X119241514Y-119513329D01*
X118986004Y-119392429D01*
X118711816Y-119323700D01*
X118429488Y-119309783D01*
X118149870Y-119351213D01*
X117883708Y-119446397D01*
X117758486Y-119513329D01*
X117686903Y-119757298D01*
X115679124Y-119757298D01*
X115648533Y-119683446D01*
X115228839Y-119055330D01*
X114694670Y-118521161D01*
X114066554Y-118101467D01*
X113580169Y-117900000D01*
X113646260Y-117900000D01*
X113933158Y-117842932D01*
X114203411Y-117730990D01*
X114446632Y-117568475D01*
X114653475Y-117361632D01*
X114770000Y-117187240D01*
X114886525Y-117361632D01*
X115093368Y-117568475D01*
X115336589Y-117730990D01*
X115606842Y-117842932D01*
X115893740Y-117900000D01*
X116186260Y-117900000D01*
X116473158Y-117842932D01*
X116743411Y-117730990D01*
X116986632Y-117568475D01*
X117111710Y-117443397D01*
X117731208Y-117443397D01*
X117808843Y-117692472D01*
X118072883Y-117818371D01*
X118356411Y-117890339D01*
X118648531Y-117905611D01*
X118938019Y-117863599D01*
X119213747Y-117765919D01*
X119351157Y-117692472D01*
X119428792Y-117443397D01*
X118580000Y-116594605D01*
X117731208Y-117443397D01*
X117111710Y-117443397D01*
X117193475Y-117361632D01*
X117309311Y-117188271D01*
X117551603Y-117263792D01*
X118400395Y-116415000D01*
X118386253Y-116400858D01*
X118565858Y-116221253D01*
X118580000Y-116235395D01*
X118594143Y-116221253D01*
X118773748Y-116400858D01*
X118759605Y-116415000D01*
X119608397Y-117263792D01*
X119850689Y-117188271D01*
X119966525Y-117361632D01*
X120173368Y-117568475D01*
X120360000Y-117693179D01*
X120360001Y-119461864D01*
X120320273Y-119478320D01*
X120085241Y-119635363D01*
X119885363Y-119835241D01*
X119751308Y-120035869D01*
X119736671Y-120008486D01*
X119492702Y-119936903D01*
X118679605Y-120750000D01*
X119492702Y-121563097D01*
X119736671Y-121491514D01*
X119750324Y-121462659D01*
X119885363Y-121664759D01*
X120085241Y-121864637D01*
X120320273Y-122021680D01*
X120581426Y-122129853D01*
X120858665Y-122185000D01*
X121141335Y-122185000D01*
X121418574Y-122129853D01*
X121679727Y-122021680D01*
X121914759Y-121864637D01*
X122036694Y-121742702D01*
X147186903Y-121742702D01*
X147258486Y-121986671D01*
X147513996Y-122107571D01*
X147788184Y-122176300D01*
X148070512Y-122190217D01*
X148350130Y-122148787D01*
X148616292Y-122053603D01*
X148741514Y-121986671D01*
X148813097Y-121742702D01*
X148000000Y-120929605D01*
X147186903Y-121742702D01*
X122036694Y-121742702D01*
X122114637Y-121664759D01*
X122271680Y-121429727D01*
X122379853Y-121168574D01*
X122435000Y-120891335D01*
X122435000Y-120820512D01*
X146559783Y-120820512D01*
X146601213Y-121100130D01*
X146696397Y-121366292D01*
X146763329Y-121491514D01*
X147007298Y-121563097D01*
X147820395Y-120750000D01*
X148179605Y-120750000D01*
X148992702Y-121563097D01*
X149236671Y-121491514D01*
X149250324Y-121462659D01*
X149385363Y-121664759D01*
X149585241Y-121864637D01*
X149820273Y-122021680D01*
X150081426Y-122129853D01*
X150358665Y-122185000D01*
X150641335Y-122185000D01*
X150918574Y-122129853D01*
X151179727Y-122021680D01*
X151414759Y-121864637D01*
X151614637Y-121664759D01*
X151771680Y-121429727D01*
X151879853Y-121168574D01*
X151935000Y-120891335D01*
X151935000Y-120608665D01*
X151879853Y-120331426D01*
X151771680Y-120070273D01*
X151614637Y-119835241D01*
X151414759Y-119635363D01*
X151179727Y-119478320D01*
X150918574Y-119370147D01*
X150641335Y-119315000D01*
X150358665Y-119315000D01*
X150081426Y-119370147D01*
X149820273Y-119478320D01*
X149585241Y-119635363D01*
X149385363Y-119835241D01*
X149251308Y-120035869D01*
X149236671Y-120008486D01*
X148992702Y-119936903D01*
X148179605Y-120750000D01*
X147820395Y-120750000D01*
X147007298Y-119936903D01*
X146763329Y-120008486D01*
X146642429Y-120263996D01*
X146573700Y-120538184D01*
X146559783Y-120820512D01*
X122435000Y-120820512D01*
X122435000Y-120608665D01*
X122379853Y-120331426D01*
X122271680Y-120070273D01*
X122114637Y-119835241D01*
X122036694Y-119757298D01*
X147186903Y-119757298D01*
X148000000Y-120570395D01*
X148813097Y-119757298D01*
X148741514Y-119513329D01*
X148486004Y-119392429D01*
X148211816Y-119323700D01*
X147929488Y-119309783D01*
X147649870Y-119351213D01*
X147383708Y-119446397D01*
X147258486Y-119513329D01*
X147186903Y-119757298D01*
X122036694Y-119757298D01*
X121914759Y-119635363D01*
X121880000Y-119612138D01*
X121880000Y-117693178D01*
X122066632Y-117568475D01*
X122273475Y-117361632D01*
X122435990Y-117118411D01*
X122451110Y-117081909D01*
X123470204Y-118101004D01*
X123494002Y-118130002D01*
X123609727Y-118224975D01*
X123741756Y-118295547D01*
X123885017Y-118339004D01*
X123996670Y-118350001D01*
X123996678Y-118350001D01*
X124034003Y-118353677D01*
X124071328Y-118350001D01*
X137946679Y-118350001D01*
X137984001Y-118353677D01*
X138021323Y-118350001D01*
X138021334Y-118350001D01*
X138132987Y-118339004D01*
X138276248Y-118295547D01*
X138408277Y-118224975D01*
X138524002Y-118130002D01*
X138547804Y-118100999D01*
X139053509Y-117595296D01*
X139256589Y-117730990D01*
X139526842Y-117842932D01*
X139813740Y-117900000D01*
X140106260Y-117900000D01*
X140393158Y-117842932D01*
X140663411Y-117730990D01*
X140906632Y-117568475D01*
X141113475Y-117361632D01*
X141230000Y-117187240D01*
X141346525Y-117361632D01*
X141553368Y-117568475D01*
X141796589Y-117730990D01*
X142066842Y-117842932D01*
X142353740Y-117900000D01*
X142646260Y-117900000D01*
X142933158Y-117842932D01*
X143203411Y-117730990D01*
X143446632Y-117568475D01*
X143653475Y-117361632D01*
X143770000Y-117187240D01*
X143886525Y-117361632D01*
X144093368Y-117568475D01*
X144336589Y-117730990D01*
X144606842Y-117842932D01*
X144893740Y-117900000D01*
X145186260Y-117900000D01*
X145473158Y-117842932D01*
X145743411Y-117730990D01*
X145986632Y-117568475D01*
X146111710Y-117443397D01*
X146731208Y-117443397D01*
X146808843Y-117692472D01*
X147072883Y-117818371D01*
X147356411Y-117890339D01*
X147648531Y-117905611D01*
X147938019Y-117863599D01*
X148213747Y-117765919D01*
X148351157Y-117692472D01*
X148428792Y-117443397D01*
X147580000Y-116594605D01*
X146731208Y-117443397D01*
X146111710Y-117443397D01*
X146193475Y-117361632D01*
X146309311Y-117188271D01*
X146551603Y-117263792D01*
X147400395Y-116415000D01*
X147386253Y-116400858D01*
X147565858Y-116221253D01*
X147580000Y-116235395D01*
X147594143Y-116221253D01*
X147773748Y-116400858D01*
X147759605Y-116415000D01*
X148608397Y-117263792D01*
X148850689Y-117188271D01*
X148966525Y-117361632D01*
X149173368Y-117568475D01*
X149416589Y-117730990D01*
X149686842Y-117842932D01*
X149973740Y-117900000D01*
X150266260Y-117900000D01*
X150553158Y-117842932D01*
X150823411Y-117730990D01*
X151066632Y-117568475D01*
X151273475Y-117361632D01*
X151435990Y-117118411D01*
X151547932Y-116848158D01*
X151605000Y-116561260D01*
X151605000Y-116268740D01*
X151551544Y-115999999D01*
X171732679Y-115999999D01*
X171770001Y-116003675D01*
X171807323Y-115999999D01*
X171807334Y-115999999D01*
X171918987Y-115989002D01*
X172062248Y-115945545D01*
X172194277Y-115874973D01*
X172310002Y-115780000D01*
X172333805Y-115750996D01*
X174163592Y-113921210D01*
X174383740Y-113965000D01*
X174676260Y-113965000D01*
X174963158Y-113907932D01*
X175233411Y-113795990D01*
X175476632Y-113633475D01*
X175683475Y-113426632D01*
X175845990Y-113183411D01*
X175957932Y-112913158D01*
X176015000Y-112626260D01*
X176015000Y-112333740D01*
X175957932Y-112046842D01*
X175845990Y-111776589D01*
X175710296Y-111573508D01*
X176216010Y-111067795D01*
X176245002Y-111044002D01*
X176268796Y-111015009D01*
X176268800Y-111015005D01*
X176339974Y-110928278D01*
X176339975Y-110928277D01*
X176410547Y-110796248D01*
X176454004Y-110652987D01*
X176465001Y-110541334D01*
X176465001Y-110541325D01*
X176468677Y-110504002D01*
X176465001Y-110466679D01*
X176465001Y-108612323D01*
X176468677Y-108575000D01*
X176465001Y-108537677D01*
X176465001Y-108537668D01*
X176454004Y-108426015D01*
X176410547Y-108282754D01*
X176339975Y-108150725D01*
X176245002Y-108035000D01*
X176215998Y-108011197D01*
X175971209Y-107766408D01*
X176015000Y-107546260D01*
X176015000Y-107253740D01*
X175973052Y-107042853D01*
X183860198Y-114930000D01*
X183733740Y-114930000D01*
X183446842Y-114987068D01*
X183176589Y-115099010D01*
X182933368Y-115261525D01*
X182726525Y-115468368D01*
X182564010Y-115711589D01*
X182452068Y-115981842D01*
X182395000Y-116268740D01*
X182395000Y-116561260D01*
X182452068Y-116848158D01*
X182564010Y-117118411D01*
X182726525Y-117361632D01*
X182933368Y-117568475D01*
X183176589Y-117730990D01*
X183446842Y-117842932D01*
X183733740Y-117900000D01*
X184026260Y-117900000D01*
X184313158Y-117842932D01*
X184583411Y-117730990D01*
X184826632Y-117568475D01*
X185033475Y-117361632D01*
X185150000Y-117187240D01*
X185266525Y-117361632D01*
X185473368Y-117568475D01*
X185716589Y-117730990D01*
X185986842Y-117842932D01*
X186273740Y-117900000D01*
X186566260Y-117900000D01*
X186853158Y-117842932D01*
X187123411Y-117730990D01*
X187366632Y-117568475D01*
X187573475Y-117361632D01*
X187690000Y-117187240D01*
X187806525Y-117361632D01*
X188013368Y-117568475D01*
X188256589Y-117730990D01*
X188526842Y-117842932D01*
X188813740Y-117900000D01*
X189106260Y-117900000D01*
X189393158Y-117842932D01*
X189663411Y-117730990D01*
X189906632Y-117568475D01*
X190113475Y-117361632D01*
X190230000Y-117187240D01*
X190346525Y-117361632D01*
X190553368Y-117568475D01*
X190796589Y-117730990D01*
X191066842Y-117842932D01*
X191353740Y-117900000D01*
X191646260Y-117900000D01*
X191933158Y-117842932D01*
X192203411Y-117730990D01*
X192446632Y-117568475D01*
X192653475Y-117361632D01*
X192770000Y-117187240D01*
X192886525Y-117361632D01*
X193093368Y-117568475D01*
X193336589Y-117730990D01*
X193606842Y-117842932D01*
X193893740Y-117900000D01*
X194186260Y-117900000D01*
X194473158Y-117842932D01*
X194743411Y-117730990D01*
X194986632Y-117568475D01*
X195111710Y-117443397D01*
X195731208Y-117443397D01*
X195808843Y-117692472D01*
X196072883Y-117818371D01*
X196356411Y-117890339D01*
X196648531Y-117905611D01*
X196938019Y-117863599D01*
X197213747Y-117765919D01*
X197351157Y-117692472D01*
X197428792Y-117443397D01*
X196580000Y-116594605D01*
X195731208Y-117443397D01*
X195111710Y-117443397D01*
X195193475Y-117361632D01*
X195309311Y-117188271D01*
X195551603Y-117263792D01*
X196400395Y-116415000D01*
X196759605Y-116415000D01*
X197608397Y-117263792D01*
X197850689Y-117188271D01*
X197966525Y-117361632D01*
X198173368Y-117568475D01*
X198416589Y-117730990D01*
X198686842Y-117842932D01*
X198973740Y-117900000D01*
X199266260Y-117900000D01*
X199553158Y-117842932D01*
X199823411Y-117730990D01*
X200066632Y-117568475D01*
X200273475Y-117361632D01*
X200435990Y-117118411D01*
X200547932Y-116848158D01*
X200605000Y-116561260D01*
X200605000Y-116268740D01*
X200547932Y-115981842D01*
X200435990Y-115711589D01*
X200273475Y-115468368D01*
X200066632Y-115261525D01*
X199823411Y-115099010D01*
X199553158Y-114987068D01*
X199266260Y-114930000D01*
X198973740Y-114930000D01*
X198686842Y-114987068D01*
X198416589Y-115099010D01*
X198173368Y-115261525D01*
X197966525Y-115468368D01*
X197850689Y-115641729D01*
X197608397Y-115566208D01*
X196759605Y-116415000D01*
X196400395Y-116415000D01*
X195551603Y-115566208D01*
X195309311Y-115641729D01*
X195193475Y-115468368D01*
X195111710Y-115386603D01*
X195731208Y-115386603D01*
X196580000Y-116235395D01*
X197428792Y-115386603D01*
X197351157Y-115137528D01*
X197087117Y-115011629D01*
X196803589Y-114939661D01*
X196511469Y-114924389D01*
X196221981Y-114966401D01*
X195946253Y-115064081D01*
X195808843Y-115137528D01*
X195731208Y-115386603D01*
X195111710Y-115386603D01*
X194986632Y-115261525D01*
X194743411Y-115099010D01*
X194473158Y-114987068D01*
X194186260Y-114930000D01*
X193893740Y-114930000D01*
X193606842Y-114987068D01*
X193336589Y-115099010D01*
X193093368Y-115261525D01*
X192886525Y-115468368D01*
X192770000Y-115642760D01*
X192653475Y-115468368D01*
X192446632Y-115261525D01*
X192203411Y-115099010D01*
X191933158Y-114987068D01*
X191646260Y-114930000D01*
X191353740Y-114930000D01*
X191066842Y-114987068D01*
X190796589Y-115099010D01*
X190553368Y-115261525D01*
X190346525Y-115468368D01*
X190230000Y-115642760D01*
X190113475Y-115468368D01*
X189906632Y-115261525D01*
X189663411Y-115099010D01*
X189393158Y-114987068D01*
X189106260Y-114930000D01*
X188813740Y-114930000D01*
X188526842Y-114987068D01*
X188256589Y-115099010D01*
X188013368Y-115261525D01*
X187806525Y-115468368D01*
X187690000Y-115642760D01*
X187573475Y-115468368D01*
X187366632Y-115261525D01*
X187123411Y-115099010D01*
X186853158Y-114987068D01*
X186566260Y-114930000D01*
X186273740Y-114930000D01*
X186053592Y-114973790D01*
X176015000Y-104935199D01*
X176015000Y-104713740D01*
X175957932Y-104426842D01*
X175845990Y-104156589D01*
X175683475Y-103913368D01*
X175476632Y-103706525D01*
X175302240Y-103590000D01*
X175476632Y-103473475D01*
X175683475Y-103266632D01*
X175845990Y-103023411D01*
X175957932Y-102753158D01*
X176015000Y-102466260D01*
X176015000Y-102173740D01*
X175957932Y-101886842D01*
X175845990Y-101616589D01*
X175683475Y-101373368D01*
X175476632Y-101166525D01*
X175302240Y-101050000D01*
X175476632Y-100933475D01*
X175683475Y-100726632D01*
X175845990Y-100483411D01*
X175957932Y-100213158D01*
X176015000Y-99926260D01*
X176015000Y-99633740D01*
X175957932Y-99346842D01*
X175845990Y-99076589D01*
X175683475Y-98833368D01*
X175476632Y-98626525D01*
X175302240Y-98510000D01*
X175476632Y-98393475D01*
X175683475Y-98186632D01*
X175845990Y-97943411D01*
X175957932Y-97673158D01*
X176015000Y-97386260D01*
X176015000Y-97093740D01*
X175957932Y-96806842D01*
X175845990Y-96536589D01*
X175683475Y-96293368D01*
X175476632Y-96086525D01*
X175302240Y-95970000D01*
X175476632Y-95853475D01*
X175683475Y-95646632D01*
X175845990Y-95403411D01*
X175957932Y-95133158D01*
X176015000Y-94846260D01*
X176015000Y-94553740D01*
X175957932Y-94266842D01*
X175845990Y-93996589D01*
X175683475Y-93753368D01*
X175476632Y-93546525D01*
X175302240Y-93430000D01*
X175476632Y-93313475D01*
X175683475Y-93106632D01*
X175845990Y-92863411D01*
X175957932Y-92593158D01*
X176015000Y-92306260D01*
X176015000Y-92013740D01*
X175957932Y-91726842D01*
X175845990Y-91456589D01*
X175683475Y-91213368D01*
X175476632Y-91006525D01*
X175302240Y-90890000D01*
X175476632Y-90773475D01*
X175683475Y-90566632D01*
X175845990Y-90323411D01*
X175957932Y-90053158D01*
X176015000Y-89766260D01*
X176015000Y-89473740D01*
X175957932Y-89186842D01*
X175845990Y-88916589D01*
X175683475Y-88673368D01*
X175476632Y-88466525D01*
X175303271Y-88350689D01*
X175310112Y-88328740D01*
X188745000Y-88328740D01*
X188745000Y-88621260D01*
X188802068Y-88908158D01*
X188914010Y-89178411D01*
X189076525Y-89421632D01*
X189283368Y-89628475D01*
X189526589Y-89790990D01*
X189796842Y-89902932D01*
X190083740Y-89960000D01*
X190376260Y-89960000D01*
X190663158Y-89902932D01*
X190933411Y-89790990D01*
X191176632Y-89628475D01*
X191383475Y-89421632D01*
X191500000Y-89247240D01*
X191616525Y-89421632D01*
X191823368Y-89628475D01*
X192066589Y-89790990D01*
X192336842Y-89902932D01*
X192623740Y-89960000D01*
X192916260Y-89960000D01*
X193203158Y-89902932D01*
X193473411Y-89790990D01*
X193716632Y-89628475D01*
X193923475Y-89421632D01*
X194085990Y-89178411D01*
X194197932Y-88908158D01*
X194255000Y-88621260D01*
X194255000Y-88328740D01*
X194197932Y-88041842D01*
X194085990Y-87771589D01*
X193923475Y-87528368D01*
X193716632Y-87321525D01*
X193473411Y-87159010D01*
X193203158Y-87047068D01*
X192916260Y-86990000D01*
X192623740Y-86990000D01*
X192336842Y-87047068D01*
X192066589Y-87159010D01*
X191823368Y-87321525D01*
X191616525Y-87528368D01*
X191500000Y-87702760D01*
X191383475Y-87528368D01*
X191176632Y-87321525D01*
X190933411Y-87159010D01*
X190663158Y-87047068D01*
X190376260Y-86990000D01*
X190083740Y-86990000D01*
X189796842Y-87047068D01*
X189526589Y-87159010D01*
X189283368Y-87321525D01*
X189076525Y-87528368D01*
X188914010Y-87771589D01*
X188802068Y-88041842D01*
X188745000Y-88328740D01*
X175310112Y-88328740D01*
X175378792Y-88108397D01*
X174530000Y-87259605D01*
X173681208Y-88108397D01*
X173756729Y-88350689D01*
X173583368Y-88466525D01*
X173376525Y-88673368D01*
X173214010Y-88916589D01*
X173102068Y-89186842D01*
X173045000Y-89473740D01*
X173045000Y-89766260D01*
X173102068Y-90053158D01*
X173214010Y-90323411D01*
X173376525Y-90566632D01*
X173583368Y-90773475D01*
X173757760Y-90890000D01*
X173583368Y-91006525D01*
X173376525Y-91213368D01*
X173214010Y-91456589D01*
X173102068Y-91726842D01*
X173045000Y-92013740D01*
X173045000Y-92306260D01*
X173064525Y-92404418D01*
X172936632Y-92276525D01*
X172693411Y-92114010D01*
X172423158Y-92002068D01*
X172136260Y-91945000D01*
X171843740Y-91945000D01*
X171556842Y-92002068D01*
X171286589Y-92114010D01*
X171043368Y-92276525D01*
X170836525Y-92483368D01*
X170674010Y-92726589D01*
X170562068Y-92996842D01*
X170505000Y-93283740D01*
X170505000Y-93576260D01*
X170562068Y-93863158D01*
X170674010Y-94133411D01*
X170836525Y-94376632D01*
X171043368Y-94583475D01*
X171217760Y-94700000D01*
X171043368Y-94816525D01*
X170836525Y-95023368D01*
X170674010Y-95266589D01*
X170562068Y-95536842D01*
X170505000Y-95823740D01*
X170505000Y-96116260D01*
X170562068Y-96403158D01*
X170674010Y-96673411D01*
X170836525Y-96916632D01*
X171043368Y-97123475D01*
X171286589Y-97285990D01*
X171556842Y-97397932D01*
X171843740Y-97455000D01*
X172136260Y-97455000D01*
X172423158Y-97397932D01*
X172693411Y-97285990D01*
X172936632Y-97123475D01*
X173064525Y-96995582D01*
X173045000Y-97093740D01*
X173045000Y-97386260D01*
X173102068Y-97673158D01*
X173214010Y-97943411D01*
X173376525Y-98186632D01*
X173583368Y-98393475D01*
X173757760Y-98510000D01*
X173583368Y-98626525D01*
X173376525Y-98833368D01*
X173214010Y-99076589D01*
X173102068Y-99346842D01*
X173045000Y-99633740D01*
X173045000Y-99926260D01*
X173102068Y-100213158D01*
X173214010Y-100483411D01*
X173376525Y-100726632D01*
X173583368Y-100933475D01*
X173757760Y-101050000D01*
X173583368Y-101166525D01*
X173376525Y-101373368D01*
X173214010Y-101616589D01*
X173102068Y-101886842D01*
X173045000Y-102173740D01*
X173045000Y-102466260D01*
X173088790Y-102686407D01*
X170310200Y-105464999D01*
X160646753Y-105464999D01*
X160717932Y-105293158D01*
X160775000Y-105006260D01*
X160775000Y-104713740D01*
X160717932Y-104426842D01*
X160605990Y-104156589D01*
X160443475Y-103913368D01*
X160236632Y-103706525D01*
X160062240Y-103590000D01*
X160236632Y-103473475D01*
X160443475Y-103266632D01*
X160605990Y-103023411D01*
X160717932Y-102753158D01*
X160775000Y-102466260D01*
X160775000Y-102173740D01*
X160717932Y-101886842D01*
X160605990Y-101616589D01*
X160443475Y-101373368D01*
X160236632Y-101166525D01*
X160062240Y-101050000D01*
X160236632Y-100933475D01*
X160443475Y-100726632D01*
X160605990Y-100483411D01*
X160717932Y-100213158D01*
X160775000Y-99926260D01*
X160775000Y-99633740D01*
X160717932Y-99346842D01*
X160605990Y-99076589D01*
X160443475Y-98833368D01*
X160236632Y-98626525D01*
X160062240Y-98510000D01*
X160236632Y-98393475D01*
X160443475Y-98186632D01*
X160605990Y-97943411D01*
X160717932Y-97673158D01*
X160775000Y-97386260D01*
X160775000Y-97093740D01*
X160717932Y-96806842D01*
X160605990Y-96536589D01*
X160443475Y-96293368D01*
X160236632Y-96086525D01*
X160062240Y-95970000D01*
X160236632Y-95853475D01*
X160443475Y-95646632D01*
X160605990Y-95403411D01*
X160717932Y-95133158D01*
X160775000Y-94846260D01*
X160775000Y-94553740D01*
X160717932Y-94266842D01*
X160605990Y-93996589D01*
X160443475Y-93753368D01*
X160236632Y-93546525D01*
X160063271Y-93430689D01*
X160138792Y-93188397D01*
X159290000Y-92339605D01*
X158441208Y-93188397D01*
X158516729Y-93430689D01*
X158343368Y-93546525D01*
X158136525Y-93753368D01*
X157974010Y-93996589D01*
X157862068Y-94266842D01*
X157805000Y-94553740D01*
X157805000Y-94846260D01*
X157862068Y-95133158D01*
X157974010Y-95403411D01*
X158136525Y-95646632D01*
X158343368Y-95853475D01*
X158517760Y-95970000D01*
X158343368Y-96086525D01*
X158136525Y-96293368D01*
X157974010Y-96536589D01*
X157862068Y-96806842D01*
X157805000Y-97093740D01*
X157805000Y-97386260D01*
X157862068Y-97673158D01*
X157974010Y-97943411D01*
X158136525Y-98186632D01*
X158343368Y-98393475D01*
X158517760Y-98510000D01*
X158343368Y-98626525D01*
X158136525Y-98833368D01*
X157974010Y-99076589D01*
X157862068Y-99346842D01*
X157805000Y-99633740D01*
X157805000Y-99926260D01*
X157862068Y-100213158D01*
X157974010Y-100483411D01*
X158136525Y-100726632D01*
X158343368Y-100933475D01*
X158517760Y-101050000D01*
X158343368Y-101166525D01*
X158136525Y-101373368D01*
X157974010Y-101616589D01*
X157862068Y-101886842D01*
X157805000Y-102173740D01*
X157805000Y-102466260D01*
X157862068Y-102753158D01*
X157974010Y-103023411D01*
X158136525Y-103266632D01*
X158343368Y-103473475D01*
X158517760Y-103590000D01*
X158343368Y-103706525D01*
X158136525Y-103913368D01*
X157974010Y-104156589D01*
X157862068Y-104426842D01*
X157805000Y-104713740D01*
X157805000Y-105006260D01*
X157862068Y-105293158D01*
X157933247Y-105464999D01*
X145107334Y-105464999D01*
X145070001Y-105461322D01*
X145032668Y-105464999D01*
X144921015Y-105475996D01*
X144777754Y-105519453D01*
X144645725Y-105590025D01*
X144530000Y-105684998D01*
X144506202Y-105713996D01*
X135246408Y-114973791D01*
X135026260Y-114930000D01*
X134733740Y-114930000D01*
X134446842Y-114987068D01*
X134176589Y-115099010D01*
X133933368Y-115261525D01*
X133726525Y-115468368D01*
X133564010Y-115711589D01*
X133452068Y-115981842D01*
X133395000Y-116268740D01*
X133395000Y-116561260D01*
X133448456Y-116830001D01*
X124348805Y-116830001D01*
X122247805Y-114729002D01*
X122224002Y-114699998D01*
X122108277Y-114605025D01*
X121976248Y-114534453D01*
X121832987Y-114490996D01*
X121721334Y-114479999D01*
X121721323Y-114479999D01*
X121684001Y-114476323D01*
X121646679Y-114479999D01*
X117252323Y-114479999D01*
X117215000Y-114476323D01*
X117177677Y-114479999D01*
X117177668Y-114479999D01*
X117066015Y-114490996D01*
X116922754Y-114534453D01*
X116790725Y-114605025D01*
X116675000Y-114699998D01*
X116651197Y-114729002D01*
X116406408Y-114973791D01*
X116186260Y-114930000D01*
X115893740Y-114930000D01*
X115606842Y-114987068D01*
X115336589Y-115099010D01*
X115093368Y-115261525D01*
X114886525Y-115468368D01*
X114770000Y-115642760D01*
X114653475Y-115468368D01*
X114446632Y-115261525D01*
X114203411Y-115099010D01*
X113933158Y-114987068D01*
X113646260Y-114930000D01*
X113353740Y-114930000D01*
X113066842Y-114987068D01*
X112796589Y-115099010D01*
X112553368Y-115261525D01*
X112346525Y-115468368D01*
X112230000Y-115642760D01*
X112113475Y-115468368D01*
X111906632Y-115261525D01*
X111663411Y-115099010D01*
X111393158Y-114987068D01*
X111106260Y-114930000D01*
X110813740Y-114930000D01*
X110526842Y-114987068D01*
X110256589Y-115099010D01*
X110013368Y-115261525D01*
X109806525Y-115468368D01*
X109690000Y-115642760D01*
X109573475Y-115468368D01*
X109366632Y-115261525D01*
X109123411Y-115099010D01*
X108853158Y-114987068D01*
X108566260Y-114930000D01*
X108273740Y-114930000D01*
X107986842Y-114987068D01*
X107716589Y-115099010D01*
X107473368Y-115261525D01*
X107266525Y-115468368D01*
X107150000Y-115642760D01*
X107033475Y-115468368D01*
X106826632Y-115261525D01*
X106583411Y-115099010D01*
X106313158Y-114987068D01*
X106026260Y-114930000D01*
X105733740Y-114930000D01*
X105446842Y-114987068D01*
X105176589Y-115099010D01*
X104933368Y-115261525D01*
X104726525Y-115468368D01*
X104564010Y-115711589D01*
X104452068Y-115981842D01*
X104395000Y-116268740D01*
X104395000Y-116561260D01*
X104452068Y-116848158D01*
X104564010Y-117118411D01*
X104726525Y-117361632D01*
X104933368Y-117568475D01*
X105176589Y-117730990D01*
X105446842Y-117842932D01*
X105733740Y-117900000D01*
X106026260Y-117900000D01*
X106313158Y-117842932D01*
X106583411Y-117730990D01*
X106826632Y-117568475D01*
X107033475Y-117361632D01*
X107150000Y-117187240D01*
X107266525Y-117361632D01*
X107473368Y-117568475D01*
X107716589Y-117730990D01*
X107986842Y-117842932D01*
X108273740Y-117900000D01*
X108566260Y-117900000D01*
X108853158Y-117842932D01*
X109123411Y-117730990D01*
X109366632Y-117568475D01*
X109573475Y-117361632D01*
X109690000Y-117187240D01*
X109806525Y-117361632D01*
X110013368Y-117568475D01*
X110256589Y-117730990D01*
X110526842Y-117842932D01*
X110813740Y-117900000D01*
X110919831Y-117900000D01*
X110433446Y-118101467D01*
X109805330Y-118521161D01*
X109271161Y-119055330D01*
X108851467Y-119683446D01*
X108562377Y-120381372D01*
X108415000Y-121122285D01*
X108415000Y-121877715D01*
X108562377Y-122618628D01*
X108851467Y-123316554D01*
X109271161Y-123944670D01*
X109666491Y-124340000D01*
X105660000Y-124340000D01*
X105660000Y-119032418D01*
X105663193Y-119000000D01*
X105650450Y-118870617D01*
X105612710Y-118746207D01*
X105551425Y-118631550D01*
X105468948Y-118531052D01*
X105368450Y-118448575D01*
X105253793Y-118387290D01*
X105129383Y-118349550D01*
X105032419Y-118340000D01*
X105000000Y-118336807D01*
X104967581Y-118340000D01*
X99660000Y-118340000D01*
X99660000Y-92228531D01*
X157799389Y-92228531D01*
X157841401Y-92518019D01*
X157939081Y-92793747D01*
X158012528Y-92931157D01*
X158261603Y-93008792D01*
X159110395Y-92160000D01*
X159469605Y-92160000D01*
X160318397Y-93008792D01*
X160567472Y-92931157D01*
X160693371Y-92667117D01*
X160765339Y-92383589D01*
X160780611Y-92091469D01*
X160738599Y-91801981D01*
X160640919Y-91526253D01*
X160567472Y-91388843D01*
X160318397Y-91311208D01*
X159469605Y-92160000D01*
X159110395Y-92160000D01*
X158261603Y-91311208D01*
X158012528Y-91388843D01*
X157886629Y-91652883D01*
X157814661Y-91936411D01*
X157799389Y-92228531D01*
X99660000Y-92228531D01*
X99660000Y-88328740D01*
X110745000Y-88328740D01*
X110745000Y-88621260D01*
X110802068Y-88908158D01*
X110914010Y-89178411D01*
X111076525Y-89421632D01*
X111283368Y-89628475D01*
X111526589Y-89790990D01*
X111796842Y-89902932D01*
X112083740Y-89960000D01*
X112376260Y-89960000D01*
X112663158Y-89902932D01*
X112933411Y-89790990D01*
X113176632Y-89628475D01*
X113383475Y-89421632D01*
X113500000Y-89247240D01*
X113616525Y-89421632D01*
X113823368Y-89628475D01*
X114066589Y-89790990D01*
X114336842Y-89902932D01*
X114623740Y-89960000D01*
X114916260Y-89960000D01*
X115203158Y-89902932D01*
X115473411Y-89790990D01*
X115716632Y-89628475D01*
X115923475Y-89421632D01*
X116085990Y-89178411D01*
X116197932Y-88908158D01*
X116255000Y-88621260D01*
X116255000Y-88328740D01*
X116197932Y-88041842D01*
X116085990Y-87771589D01*
X115923475Y-87528368D01*
X115716632Y-87321525D01*
X115473411Y-87159010D01*
X115203158Y-87047068D01*
X114916260Y-86990000D01*
X114623740Y-86990000D01*
X114336842Y-87047068D01*
X114066589Y-87159010D01*
X113823368Y-87321525D01*
X113616525Y-87528368D01*
X113500000Y-87702760D01*
X113383475Y-87528368D01*
X113176632Y-87321525D01*
X112933411Y-87159010D01*
X112663158Y-87047068D01*
X112376260Y-86990000D01*
X112083740Y-86990000D01*
X111796842Y-87047068D01*
X111526589Y-87159010D01*
X111283368Y-87321525D01*
X111076525Y-87528368D01*
X110914010Y-87771589D01*
X110802068Y-88041842D01*
X110745000Y-88328740D01*
X99660000Y-88328740D01*
X99660000Y-85788740D01*
X123445000Y-85788740D01*
X123445000Y-86081260D01*
X123502068Y-86368158D01*
X123614010Y-86638411D01*
X123776525Y-86881632D01*
X123983368Y-87088475D01*
X124157760Y-87205000D01*
X123983368Y-87321525D01*
X123776525Y-87528368D01*
X123614010Y-87771589D01*
X123502068Y-88041842D01*
X123445000Y-88328740D01*
X123445000Y-88621260D01*
X123502068Y-88908158D01*
X123614010Y-89178411D01*
X123776525Y-89421632D01*
X123983368Y-89628475D01*
X124226589Y-89790990D01*
X124496842Y-89902932D01*
X124783740Y-89960000D01*
X125076260Y-89960000D01*
X125363158Y-89902932D01*
X125633411Y-89790990D01*
X125876632Y-89628475D01*
X126083475Y-89421632D01*
X126245990Y-89178411D01*
X126357932Y-88908158D01*
X126415000Y-88621260D01*
X126415000Y-88328740D01*
X139745000Y-88328740D01*
X139745000Y-88621260D01*
X139802068Y-88908158D01*
X139914010Y-89178411D01*
X140076525Y-89421632D01*
X140283368Y-89628475D01*
X140526589Y-89790990D01*
X140796842Y-89902932D01*
X141083740Y-89960000D01*
X141376260Y-89960000D01*
X141663158Y-89902932D01*
X141933411Y-89790990D01*
X142176632Y-89628475D01*
X142383475Y-89421632D01*
X142500000Y-89247240D01*
X142616525Y-89421632D01*
X142823368Y-89628475D01*
X143066589Y-89790990D01*
X143336842Y-89902932D01*
X143623740Y-89960000D01*
X143916260Y-89960000D01*
X144203158Y-89902932D01*
X144473411Y-89790990D01*
X144716632Y-89628475D01*
X144923475Y-89421632D01*
X145085990Y-89178411D01*
X145197932Y-88908158D01*
X145255000Y-88621260D01*
X145255000Y-88328740D01*
X145197932Y-88041842D01*
X145085990Y-87771589D01*
X144923475Y-87528368D01*
X144716632Y-87321525D01*
X144473411Y-87159010D01*
X144203158Y-87047068D01*
X143916260Y-86990000D01*
X143623740Y-86990000D01*
X143336842Y-87047068D01*
X143066589Y-87159010D01*
X142823368Y-87321525D01*
X142616525Y-87528368D01*
X142500000Y-87702760D01*
X142383475Y-87528368D01*
X142176632Y-87321525D01*
X141933411Y-87159010D01*
X141663158Y-87047068D01*
X141376260Y-86990000D01*
X141083740Y-86990000D01*
X140796842Y-87047068D01*
X140526589Y-87159010D01*
X140283368Y-87321525D01*
X140076525Y-87528368D01*
X139914010Y-87771589D01*
X139802068Y-88041842D01*
X139745000Y-88328740D01*
X126415000Y-88328740D01*
X126357932Y-88041842D01*
X126245990Y-87771589D01*
X126083475Y-87528368D01*
X125876632Y-87321525D01*
X125702240Y-87205000D01*
X125876632Y-87088475D01*
X126083475Y-86881632D01*
X126245990Y-86638411D01*
X126357932Y-86368158D01*
X126415000Y-86081260D01*
X126415000Y-85788740D01*
X152445000Y-85788740D01*
X152445000Y-86081260D01*
X152502068Y-86368158D01*
X152614010Y-86638411D01*
X152776525Y-86881632D01*
X152983368Y-87088475D01*
X153157760Y-87205000D01*
X152983368Y-87321525D01*
X152776525Y-87528368D01*
X152614010Y-87771589D01*
X152502068Y-88041842D01*
X152445000Y-88328740D01*
X152445000Y-88621260D01*
X152502068Y-88908158D01*
X152614010Y-89178411D01*
X152776525Y-89421632D01*
X152983368Y-89628475D01*
X153226589Y-89790990D01*
X153496842Y-89902932D01*
X153783740Y-89960000D01*
X154076260Y-89960000D01*
X154363158Y-89902932D01*
X154633411Y-89790990D01*
X154876632Y-89628475D01*
X155083475Y-89421632D01*
X155245990Y-89178411D01*
X155357932Y-88908158D01*
X155415000Y-88621260D01*
X155415000Y-88328740D01*
X155357932Y-88041842D01*
X155245990Y-87771589D01*
X155083475Y-87528368D01*
X154876632Y-87321525D01*
X154702240Y-87205000D01*
X154876632Y-87088475D01*
X155083475Y-86881632D01*
X155245990Y-86638411D01*
X155357932Y-86368158D01*
X155415000Y-86081260D01*
X155415000Y-85788740D01*
X155357932Y-85501842D01*
X155245990Y-85231589D01*
X155083475Y-84988368D01*
X154876632Y-84781525D01*
X154633411Y-84619010D01*
X154363158Y-84507068D01*
X154076260Y-84450000D01*
X153783740Y-84450000D01*
X153496842Y-84507068D01*
X153226589Y-84619010D01*
X152983368Y-84781525D01*
X152776525Y-84988368D01*
X152614010Y-85231589D01*
X152502068Y-85501842D01*
X152445000Y-85788740D01*
X126415000Y-85788740D01*
X126357932Y-85501842D01*
X126245990Y-85231589D01*
X126083475Y-84988368D01*
X125876632Y-84781525D01*
X125633411Y-84619010D01*
X125363158Y-84507068D01*
X125076260Y-84450000D01*
X124783740Y-84450000D01*
X124496842Y-84507068D01*
X124226589Y-84619010D01*
X123983368Y-84781525D01*
X123776525Y-84988368D01*
X123614010Y-85231589D01*
X123502068Y-85501842D01*
X123445000Y-85788740D01*
X99660000Y-85788740D01*
X99660000Y-84393740D01*
X157805000Y-84393740D01*
X157805000Y-84686260D01*
X157862068Y-84973158D01*
X157974010Y-85243411D01*
X158136525Y-85486632D01*
X158343368Y-85693475D01*
X158517760Y-85810000D01*
X158343368Y-85926525D01*
X158136525Y-86133368D01*
X157974010Y-86376589D01*
X157862068Y-86646842D01*
X157805000Y-86933740D01*
X157805000Y-87226260D01*
X157862068Y-87513158D01*
X157974010Y-87783411D01*
X158136525Y-88026632D01*
X158343368Y-88233475D01*
X158517760Y-88350000D01*
X158343368Y-88466525D01*
X158136525Y-88673368D01*
X157974010Y-88916589D01*
X157862068Y-89186842D01*
X157805000Y-89473740D01*
X157805000Y-89766260D01*
X157862068Y-90053158D01*
X157974010Y-90323411D01*
X158136525Y-90566632D01*
X158343368Y-90773475D01*
X158516729Y-90889311D01*
X158441208Y-91131603D01*
X159290000Y-91980395D01*
X160138792Y-91131603D01*
X160063271Y-90889311D01*
X160236632Y-90773475D01*
X160443475Y-90566632D01*
X160605990Y-90323411D01*
X160717932Y-90053158D01*
X160775000Y-89766260D01*
X160775000Y-89473740D01*
X160717932Y-89186842D01*
X160605990Y-88916589D01*
X160443475Y-88673368D01*
X160236632Y-88466525D01*
X160062240Y-88350000D01*
X160236632Y-88233475D01*
X160443475Y-88026632D01*
X160605990Y-87783411D01*
X160717932Y-87513158D01*
X160775000Y-87226260D01*
X160775000Y-87148531D01*
X173039389Y-87148531D01*
X173081401Y-87438019D01*
X173179081Y-87713747D01*
X173252528Y-87851157D01*
X173501603Y-87928792D01*
X174350395Y-87080000D01*
X174709605Y-87080000D01*
X175558397Y-87928792D01*
X175807472Y-87851157D01*
X175933371Y-87587117D01*
X176005339Y-87303589D01*
X176020611Y-87011469D01*
X175978599Y-86721981D01*
X175880919Y-86446253D01*
X175807472Y-86308843D01*
X175558397Y-86231208D01*
X174709605Y-87080000D01*
X174350395Y-87080000D01*
X173501603Y-86231208D01*
X173252528Y-86308843D01*
X173126629Y-86572883D01*
X173054661Y-86856411D01*
X173039389Y-87148531D01*
X160775000Y-87148531D01*
X160775000Y-86933740D01*
X160717932Y-86646842D01*
X160605990Y-86376589D01*
X160443475Y-86133368D01*
X160236632Y-85926525D01*
X160062240Y-85810000D01*
X160236632Y-85693475D01*
X160443475Y-85486632D01*
X160605990Y-85243411D01*
X160717932Y-84973158D01*
X160775000Y-84686260D01*
X160775000Y-84393740D01*
X173045000Y-84393740D01*
X173045000Y-84686260D01*
X173102068Y-84973158D01*
X173214010Y-85243411D01*
X173376525Y-85486632D01*
X173583368Y-85693475D01*
X173756729Y-85809311D01*
X173681208Y-86051603D01*
X174530000Y-86900395D01*
X175378792Y-86051603D01*
X175303271Y-85809311D01*
X175334057Y-85788740D01*
X201445000Y-85788740D01*
X201445000Y-86081260D01*
X201502068Y-86368158D01*
X201614010Y-86638411D01*
X201776525Y-86881632D01*
X201983368Y-87088475D01*
X202157760Y-87205000D01*
X201983368Y-87321525D01*
X201776525Y-87528368D01*
X201614010Y-87771589D01*
X201502068Y-88041842D01*
X201445000Y-88328740D01*
X201445000Y-88621260D01*
X201502068Y-88908158D01*
X201614010Y-89178411D01*
X201776525Y-89421632D01*
X201983368Y-89628475D01*
X202226589Y-89790990D01*
X202496842Y-89902932D01*
X202783740Y-89960000D01*
X203076260Y-89960000D01*
X203363158Y-89902932D01*
X203633411Y-89790990D01*
X203876632Y-89628475D01*
X204083475Y-89421632D01*
X204245990Y-89178411D01*
X204357932Y-88908158D01*
X204415000Y-88621260D01*
X204415000Y-88328740D01*
X204357932Y-88041842D01*
X204245990Y-87771589D01*
X204083475Y-87528368D01*
X203876632Y-87321525D01*
X203702240Y-87205000D01*
X203876632Y-87088475D01*
X204083475Y-86881632D01*
X204245990Y-86638411D01*
X204357932Y-86368158D01*
X204415000Y-86081260D01*
X204415000Y-85788740D01*
X204357932Y-85501842D01*
X204245990Y-85231589D01*
X204083475Y-84988368D01*
X203876632Y-84781525D01*
X203633411Y-84619010D01*
X203363158Y-84507068D01*
X203076260Y-84450000D01*
X202783740Y-84450000D01*
X202496842Y-84507068D01*
X202226589Y-84619010D01*
X201983368Y-84781525D01*
X201776525Y-84988368D01*
X201614010Y-85231589D01*
X201502068Y-85501842D01*
X201445000Y-85788740D01*
X175334057Y-85788740D01*
X175476632Y-85693475D01*
X175683475Y-85486632D01*
X175845990Y-85243411D01*
X175957932Y-84973158D01*
X176015000Y-84686260D01*
X176015000Y-84393740D01*
X175957932Y-84106842D01*
X175845990Y-83836589D01*
X175683475Y-83593368D01*
X175476632Y-83386525D01*
X175233411Y-83224010D01*
X174963158Y-83112068D01*
X174676260Y-83055000D01*
X174383740Y-83055000D01*
X174096842Y-83112068D01*
X173826589Y-83224010D01*
X173583368Y-83386525D01*
X173376525Y-83593368D01*
X173214010Y-83836589D01*
X173102068Y-84106842D01*
X173045000Y-84393740D01*
X160775000Y-84393740D01*
X160717932Y-84106842D01*
X160605990Y-83836589D01*
X160443475Y-83593368D01*
X160236632Y-83386525D01*
X159993411Y-83224010D01*
X159723158Y-83112068D01*
X159436260Y-83055000D01*
X159143740Y-83055000D01*
X158856842Y-83112068D01*
X158586589Y-83224010D01*
X158343368Y-83386525D01*
X158136525Y-83593368D01*
X157974010Y-83836589D01*
X157862068Y-84106842D01*
X157805000Y-84393740D01*
X99660000Y-84393740D01*
X99660000Y-79608665D01*
X157815000Y-79608665D01*
X157815000Y-79891335D01*
X157870147Y-80168574D01*
X157978320Y-80429727D01*
X158135363Y-80664759D01*
X158335241Y-80864637D01*
X158570273Y-81021680D01*
X158831426Y-81129853D01*
X159108665Y-81185000D01*
X159391335Y-81185000D01*
X159668574Y-81129853D01*
X159929727Y-81021680D01*
X160164759Y-80864637D01*
X160286694Y-80742702D01*
X160936903Y-80742702D01*
X161008486Y-80986671D01*
X161263996Y-81107571D01*
X161538184Y-81176300D01*
X161820512Y-81190217D01*
X162100130Y-81148787D01*
X162366292Y-81053603D01*
X162491514Y-80986671D01*
X162563097Y-80742702D01*
X161750000Y-79929605D01*
X160936903Y-80742702D01*
X160286694Y-80742702D01*
X160364637Y-80664759D01*
X160498692Y-80464131D01*
X160513329Y-80491514D01*
X160757298Y-80563097D01*
X161570395Y-79750000D01*
X161929605Y-79750000D01*
X162742702Y-80563097D01*
X162986671Y-80491514D01*
X163107571Y-80236004D01*
X163176300Y-79961816D01*
X163190217Y-79679488D01*
X163148787Y-79399870D01*
X163053603Y-79133708D01*
X162986671Y-79008486D01*
X162742702Y-78936903D01*
X161929605Y-79750000D01*
X161570395Y-79750000D01*
X160757298Y-78936903D01*
X160513329Y-79008486D01*
X160499676Y-79037341D01*
X160364637Y-78835241D01*
X160286694Y-78757298D01*
X160936903Y-78757298D01*
X161750000Y-79570395D01*
X162563097Y-78757298D01*
X162491514Y-78513329D01*
X162236004Y-78392429D01*
X161961816Y-78323700D01*
X161679488Y-78309783D01*
X161399870Y-78351213D01*
X161133708Y-78446397D01*
X161008486Y-78513329D01*
X160936903Y-78757298D01*
X160286694Y-78757298D01*
X160164759Y-78635363D01*
X159929727Y-78478320D01*
X159668574Y-78370147D01*
X159391335Y-78315000D01*
X159108665Y-78315000D01*
X158831426Y-78370147D01*
X158570273Y-78478320D01*
X158335241Y-78635363D01*
X158135363Y-78835241D01*
X157978320Y-79070273D01*
X157870147Y-79331426D01*
X157815000Y-79608665D01*
X99660000Y-79608665D01*
X99660000Y-74660000D01*
X104967581Y-74660000D01*
X105000000Y-74663193D01*
X105032419Y-74660000D01*
X105129383Y-74650450D01*
X105253793Y-74612710D01*
X105368450Y-74551425D01*
X105468948Y-74468948D01*
X105551425Y-74368450D01*
X105612710Y-74253793D01*
X105650450Y-74129383D01*
X105663193Y-74000000D01*
X105660000Y-73967581D01*
X105660000Y-68660000D01*
X109471694Y-68660000D01*
X109305330Y-68771161D01*
X109305330Y-68771161D01*
G37*
X109305330Y-68771161D02*
X108771161Y-69305330D01*
X108351467Y-69933446D01*
X108062377Y-70631372D01*
X107915000Y-71372285D01*
X107915000Y-72127715D01*
X108062377Y-72868628D01*
X108351467Y-73566554D01*
X108771161Y-74194670D01*
X109305330Y-74728839D01*
X109933446Y-75148533D01*
X110631372Y-75437623D01*
X111372285Y-75585000D01*
X112127715Y-75585000D01*
X112868628Y-75437623D01*
X113566554Y-75148533D01*
X114194670Y-74728839D01*
X114581033Y-74342476D01*
X150587129Y-74342476D01*
X150675623Y-74600723D01*
X150954976Y-74735597D01*
X151255275Y-74813381D01*
X151564977Y-74831084D01*
X151872184Y-74788027D01*
X152165086Y-74685865D01*
X152324377Y-74600723D01*
X152412871Y-74342476D01*
X151500000Y-73429605D01*
X150587129Y-74342476D01*
X114581033Y-74342476D01*
X114728839Y-74194670D01*
X115148533Y-73566554D01*
X115252739Y-73314977D01*
X149918916Y-73314977D01*
X149961973Y-73622184D01*
X150064135Y-73915086D01*
X150149277Y-74074377D01*
X150407524Y-74162871D01*
X151320395Y-73250000D01*
X151679605Y-73250000D01*
X152592476Y-74162871D01*
X152725505Y-74117286D01*
X152816773Y-74253877D01*
X153036123Y-74473227D01*
X153294052Y-74645570D01*
X153580648Y-74764282D01*
X153884896Y-74824800D01*
X154195104Y-74824800D01*
X154499352Y-74764282D01*
X154785948Y-74645570D01*
X155043877Y-74473227D01*
X155263227Y-74253877D01*
X155435570Y-73995948D01*
X155554282Y-73709352D01*
X155614800Y-73405104D01*
X155614800Y-73094896D01*
X155554282Y-72790648D01*
X155435570Y-72504052D01*
X155263227Y-72246123D01*
X155043877Y-72026773D01*
X154785948Y-71854430D01*
X154499352Y-71735718D01*
X154195104Y-71675200D01*
X153884896Y-71675200D01*
X153580648Y-71735718D01*
X153294052Y-71854430D01*
X153036123Y-72026773D01*
X152816773Y-72246123D01*
X152725505Y-72382714D01*
X152592476Y-72337129D01*
X151679605Y-73250000D01*
X151320395Y-73250000D01*
X150407524Y-72337129D01*
X150149277Y-72425623D01*
X150014403Y-72704976D01*
X149936619Y-73005275D01*
X149918916Y-73314977D01*
X115252739Y-73314977D01*
X115437623Y-72868628D01*
X115579070Y-72157524D01*
X150587129Y-72157524D01*
X151500000Y-73070395D01*
X152412871Y-72157524D01*
X152324377Y-71899277D01*
X152045024Y-71764403D01*
X151744725Y-71686619D01*
X151435023Y-71668916D01*
X151127816Y-71711973D01*
X150834914Y-71814135D01*
X150675623Y-71899277D01*
X150587129Y-72157524D01*
X115579070Y-72157524D01*
X115585000Y-72127715D01*
X115585000Y-71372285D01*
X115437623Y-70631372D01*
X115148533Y-69933446D01*
X114728839Y-69305330D01*
X114194670Y-68771161D01*
X114028306Y-68660000D01*
X189471694Y-68660000D01*
X189305330Y-68771161D01*
X188771161Y-69305330D01*
X188351467Y-69933446D01*
X188062377Y-70631372D01*
X187915000Y-71372285D01*
X187915000Y-72127715D01*
X188062377Y-72868628D01*
X188351467Y-73566554D01*
X188771161Y-74194670D01*
X189305330Y-74728839D01*
X189933446Y-75148533D01*
X190631372Y-75437623D01*
X191372285Y-75585000D01*
X192127715Y-75585000D01*
X192868628Y-75437623D01*
X193566554Y-75148533D01*
X194194670Y-74728839D01*
X194728839Y-74194670D01*
X195148533Y-73566554D01*
X195437623Y-72868628D01*
X195585000Y-72127715D01*
X195585000Y-71372285D01*
X195437623Y-70631372D01*
X195148533Y-69933446D01*
X194728839Y-69305330D01*
X194194670Y-68771161D01*
X194028306Y-68660000D01*
X199340001Y-68660000D01*
X199340000Y-73967581D01*
X199336807Y-74000000D01*
X199349550Y-74129383D01*
X199387290Y-74253793D01*
X199448575Y-74368450D01*
X199531052Y-74468948D01*
X199631550Y-74551425D01*
X199746207Y-74612710D01*
X199870617Y-74650450D01*
X200000000Y-74663193D01*
X200032419Y-74660000D01*
X205340001Y-74660000D01*
X205340000Y-118340000D01*
X200032419Y-118340000D01*
X200000000Y-118336807D01*
X199967581Y-118340000D01*
X199870617Y-118349550D01*
X199746207Y-118387290D01*
X199631550Y-118448575D01*
X199531052Y-118531052D01*
X199448575Y-118631550D01*
X199387290Y-118746207D01*
X199349550Y-118870617D01*
X199336807Y-119000000D01*
X199340001Y-119032429D01*
X199340000Y-124340000D01*
X167528306Y-124340000D01*
X167694670Y-124228839D01*
X168228839Y-123694670D01*
X168648533Y-123066554D01*
X168937623Y-122368628D01*
X169062127Y-121742702D01*
X193686903Y-121742702D01*
X193758486Y-121986671D01*
X194013996Y-122107571D01*
X194288184Y-122176300D01*
X194570512Y-122190217D01*
X194850130Y-122148787D01*
X195116292Y-122053603D01*
X195241514Y-121986671D01*
X195313097Y-121742702D01*
X194500000Y-120929605D01*
X193686903Y-121742702D01*
X169062127Y-121742702D01*
X169085000Y-121627715D01*
X169085000Y-120872285D01*
X169074702Y-120820512D01*
X193059783Y-120820512D01*
X193101213Y-121100130D01*
X193196397Y-121366292D01*
X193263329Y-121491514D01*
X193507298Y-121563097D01*
X194320395Y-120750000D01*
X194679605Y-120750000D01*
X195492702Y-121563097D01*
X195736671Y-121491514D01*
X195750324Y-121462659D01*
X195885363Y-121664759D01*
X196085241Y-121864637D01*
X196320273Y-122021680D01*
X196581426Y-122129853D01*
X196858665Y-122185000D01*
X197141335Y-122185000D01*
X197418574Y-122129853D01*
X197679727Y-122021680D01*
X197914759Y-121864637D01*
X198114637Y-121664759D01*
X198271680Y-121429727D01*
X198379853Y-121168574D01*
X198435000Y-120891335D01*
X198435000Y-120608665D01*
X198379853Y-120331426D01*
X198271680Y-120070273D01*
X198114637Y-119835241D01*
X197914759Y-119635363D01*
X197679727Y-119478320D01*
X197418574Y-119370147D01*
X197141335Y-119315000D01*
X196858665Y-119315000D01*
X196581426Y-119370147D01*
X196320273Y-119478320D01*
X196085241Y-119635363D01*
X195885363Y-119835241D01*
X195751308Y-120035869D01*
X195736671Y-120008486D01*
X195492702Y-119936903D01*
X194679605Y-120750000D01*
X194320395Y-120750000D01*
X193507298Y-119936903D01*
X193263329Y-120008486D01*
X193142429Y-120263996D01*
X193073700Y-120538184D01*
X193059783Y-120820512D01*
X169074702Y-120820512D01*
X168937623Y-120131372D01*
X168782677Y-119757298D01*
X193686903Y-119757298D01*
X194500000Y-120570395D01*
X195313097Y-119757298D01*
X195241514Y-119513329D01*
X194986004Y-119392429D01*
X194711816Y-119323700D01*
X194429488Y-119309783D01*
X194149870Y-119351213D01*
X193883708Y-119446397D01*
X193758486Y-119513329D01*
X193686903Y-119757298D01*
X168782677Y-119757298D01*
X168648533Y-119433446D01*
X168228839Y-118805330D01*
X167694670Y-118271161D01*
X167066554Y-117851467D01*
X166368628Y-117562377D01*
X165627715Y-117415000D01*
X164872285Y-117415000D01*
X164131372Y-117562377D01*
X163433446Y-117851467D01*
X162805330Y-118271161D01*
X162271161Y-118805330D01*
X161851467Y-119433446D01*
X161562377Y-120131372D01*
X161415000Y-120872285D01*
X161415000Y-121627715D01*
X161562377Y-122368628D01*
X161851467Y-123066554D01*
X162271161Y-123694670D01*
X162805330Y-124228839D01*
X162971694Y-124340000D01*
X114833509Y-124340000D01*
X115228839Y-123944670D01*
X115648533Y-123316554D01*
X115937623Y-122618628D01*
X116085000Y-121877715D01*
X116085000Y-121742702D01*
X117686903Y-121742702D01*
X117758486Y-121986671D01*
X118013996Y-122107571D01*
X118288184Y-122176300D01*
X118570512Y-122190217D01*
X118850130Y-122148787D01*
X119116292Y-122053603D01*
X119241514Y-121986671D01*
X119313097Y-121742702D01*
X118500000Y-120929605D01*
X117686903Y-121742702D01*
X116085000Y-121742702D01*
X116085000Y-121122285D01*
X116024974Y-120820512D01*
X117059783Y-120820512D01*
X117101213Y-121100130D01*
X117196397Y-121366292D01*
X117263329Y-121491514D01*
X117507298Y-121563097D01*
X118320395Y-120750000D01*
X117507298Y-119936903D01*
X117263329Y-120008486D01*
X117142429Y-120263996D01*
X117073700Y-120538184D01*
X117059783Y-120820512D01*
X116024974Y-120820512D01*
X115937623Y-120381372D01*
X115679124Y-119757298D01*
X117686903Y-119757298D01*
X118500000Y-120570395D01*
X119313097Y-119757298D01*
X119241514Y-119513329D01*
X118986004Y-119392429D01*
X118711816Y-119323700D01*
X118429488Y-119309783D01*
X118149870Y-119351213D01*
X117883708Y-119446397D01*
X117758486Y-119513329D01*
X117686903Y-119757298D01*
X115679124Y-119757298D01*
X115648533Y-119683446D01*
X115228839Y-119055330D01*
X114694670Y-118521161D01*
X114066554Y-118101467D01*
X113580169Y-117900000D01*
X113646260Y-117900000D01*
X113933158Y-117842932D01*
X114203411Y-117730990D01*
X114446632Y-117568475D01*
X114653475Y-117361632D01*
X114770000Y-117187240D01*
X114886525Y-117361632D01*
X115093368Y-117568475D01*
X115336589Y-117730990D01*
X115606842Y-117842932D01*
X115893740Y-117900000D01*
X116186260Y-117900000D01*
X116473158Y-117842932D01*
X116743411Y-117730990D01*
X116986632Y-117568475D01*
X117111710Y-117443397D01*
X117731208Y-117443397D01*
X117808843Y-117692472D01*
X118072883Y-117818371D01*
X118356411Y-117890339D01*
X118648531Y-117905611D01*
X118938019Y-117863599D01*
X119213747Y-117765919D01*
X119351157Y-117692472D01*
X119428792Y-117443397D01*
X118580000Y-116594605D01*
X117731208Y-117443397D01*
X117111710Y-117443397D01*
X117193475Y-117361632D01*
X117309311Y-117188271D01*
X117551603Y-117263792D01*
X118400395Y-116415000D01*
X118386253Y-116400858D01*
X118565858Y-116221253D01*
X118580000Y-116235395D01*
X118594143Y-116221253D01*
X118773748Y-116400858D01*
X118759605Y-116415000D01*
X119608397Y-117263792D01*
X119850689Y-117188271D01*
X119966525Y-117361632D01*
X120173368Y-117568475D01*
X120360000Y-117693179D01*
X120360001Y-119461864D01*
X120320273Y-119478320D01*
X120085241Y-119635363D01*
X119885363Y-119835241D01*
X119751308Y-120035869D01*
X119736671Y-120008486D01*
X119492702Y-119936903D01*
X118679605Y-120750000D01*
X119492702Y-121563097D01*
X119736671Y-121491514D01*
X119750324Y-121462659D01*
X119885363Y-121664759D01*
X120085241Y-121864637D01*
X120320273Y-122021680D01*
X120581426Y-122129853D01*
X120858665Y-122185000D01*
X121141335Y-122185000D01*
X121418574Y-122129853D01*
X121679727Y-122021680D01*
X121914759Y-121864637D01*
X122036694Y-121742702D01*
X147186903Y-121742702D01*
X147258486Y-121986671D01*
X147513996Y-122107571D01*
X147788184Y-122176300D01*
X148070512Y-122190217D01*
X148350130Y-122148787D01*
X148616292Y-122053603D01*
X148741514Y-121986671D01*
X148813097Y-121742702D01*
X148000000Y-120929605D01*
X147186903Y-121742702D01*
X122036694Y-121742702D01*
X122114637Y-121664759D01*
X122271680Y-121429727D01*
X122379853Y-121168574D01*
X122435000Y-120891335D01*
X122435000Y-120820512D01*
X146559783Y-120820512D01*
X146601213Y-121100130D01*
X146696397Y-121366292D01*
X146763329Y-121491514D01*
X147007298Y-121563097D01*
X147820395Y-120750000D01*
X148179605Y-120750000D01*
X148992702Y-121563097D01*
X149236671Y-121491514D01*
X149250324Y-121462659D01*
X149385363Y-121664759D01*
X149585241Y-121864637D01*
X149820273Y-122021680D01*
X150081426Y-122129853D01*
X150358665Y-122185000D01*
X150641335Y-122185000D01*
X150918574Y-122129853D01*
X151179727Y-122021680D01*
X151414759Y-121864637D01*
X151614637Y-121664759D01*
X151771680Y-121429727D01*
X151879853Y-121168574D01*
X151935000Y-120891335D01*
X151935000Y-120608665D01*
X151879853Y-120331426D01*
X151771680Y-120070273D01*
X151614637Y-119835241D01*
X151414759Y-119635363D01*
X151179727Y-119478320D01*
X150918574Y-119370147D01*
X150641335Y-119315000D01*
X150358665Y-119315000D01*
X150081426Y-119370147D01*
X149820273Y-119478320D01*
X149585241Y-119635363D01*
X149385363Y-119835241D01*
X149251308Y-120035869D01*
X149236671Y-120008486D01*
X148992702Y-119936903D01*
X148179605Y-120750000D01*
X147820395Y-120750000D01*
X147007298Y-119936903D01*
X146763329Y-120008486D01*
X146642429Y-120263996D01*
X146573700Y-120538184D01*
X146559783Y-120820512D01*
X122435000Y-120820512D01*
X122435000Y-120608665D01*
X122379853Y-120331426D01*
X122271680Y-120070273D01*
X122114637Y-119835241D01*
X122036694Y-119757298D01*
X147186903Y-119757298D01*
X148000000Y-120570395D01*
X148813097Y-119757298D01*
X148741514Y-119513329D01*
X148486004Y-119392429D01*
X148211816Y-119323700D01*
X147929488Y-119309783D01*
X147649870Y-119351213D01*
X147383708Y-119446397D01*
X147258486Y-119513329D01*
X147186903Y-119757298D01*
X122036694Y-119757298D01*
X121914759Y-119635363D01*
X121880000Y-119612138D01*
X121880000Y-117693178D01*
X122066632Y-117568475D01*
X122273475Y-117361632D01*
X122435990Y-117118411D01*
X122451110Y-117081909D01*
X123470204Y-118101004D01*
X123494002Y-118130002D01*
X123609727Y-118224975D01*
X123741756Y-118295547D01*
X123885017Y-118339004D01*
X123996670Y-118350001D01*
X123996678Y-118350001D01*
X124034003Y-118353677D01*
X124071328Y-118350001D01*
X137946679Y-118350001D01*
X137984001Y-118353677D01*
X138021323Y-118350001D01*
X138021334Y-118350001D01*
X138132987Y-118339004D01*
X138276248Y-118295547D01*
X138408277Y-118224975D01*
X138524002Y-118130002D01*
X138547804Y-118100999D01*
X139053509Y-117595296D01*
X139256589Y-117730990D01*
X139526842Y-117842932D01*
X139813740Y-117900000D01*
X140106260Y-117900000D01*
X140393158Y-117842932D01*
X140663411Y-117730990D01*
X140906632Y-117568475D01*
X141113475Y-117361632D01*
X141230000Y-117187240D01*
X141346525Y-117361632D01*
X141553368Y-117568475D01*
X141796589Y-117730990D01*
X142066842Y-117842932D01*
X142353740Y-117900000D01*
X142646260Y-117900000D01*
X142933158Y-117842932D01*
X143203411Y-117730990D01*
X143446632Y-117568475D01*
X143653475Y-117361632D01*
X143770000Y-117187240D01*
X143886525Y-117361632D01*
X144093368Y-117568475D01*
X144336589Y-117730990D01*
X144606842Y-117842932D01*
X144893740Y-117900000D01*
X145186260Y-117900000D01*
X145473158Y-117842932D01*
X145743411Y-117730990D01*
X145986632Y-117568475D01*
X146111710Y-117443397D01*
X146731208Y-117443397D01*
X146808843Y-117692472D01*
X147072883Y-117818371D01*
X147356411Y-117890339D01*
X147648531Y-117905611D01*
X147938019Y-117863599D01*
X148213747Y-117765919D01*
X148351157Y-117692472D01*
X148428792Y-117443397D01*
X147580000Y-116594605D01*
X146731208Y-117443397D01*
X146111710Y-117443397D01*
X146193475Y-117361632D01*
X146309311Y-117188271D01*
X146551603Y-117263792D01*
X147400395Y-116415000D01*
X147386253Y-116400858D01*
X147565858Y-116221253D01*
X147580000Y-116235395D01*
X147594143Y-116221253D01*
X147773748Y-116400858D01*
X147759605Y-116415000D01*
X148608397Y-117263792D01*
X148850689Y-117188271D01*
X148966525Y-117361632D01*
X149173368Y-117568475D01*
X149416589Y-117730990D01*
X149686842Y-117842932D01*
X149973740Y-117900000D01*
X150266260Y-117900000D01*
X150553158Y-117842932D01*
X150823411Y-117730990D01*
X151066632Y-117568475D01*
X151273475Y-117361632D01*
X151435990Y-117118411D01*
X151547932Y-116848158D01*
X151605000Y-116561260D01*
X151605000Y-116268740D01*
X151551544Y-115999999D01*
X171732679Y-115999999D01*
X171770001Y-116003675D01*
X171807323Y-115999999D01*
X171807334Y-115999999D01*
X171918987Y-115989002D01*
X172062248Y-115945545D01*
X172194277Y-115874973D01*
X172310002Y-115780000D01*
X172333805Y-115750996D01*
X174163592Y-113921210D01*
X174383740Y-113965000D01*
X174676260Y-113965000D01*
X174963158Y-113907932D01*
X175233411Y-113795990D01*
X175476632Y-113633475D01*
X175683475Y-113426632D01*
X175845990Y-113183411D01*
X175957932Y-112913158D01*
X176015000Y-112626260D01*
X176015000Y-112333740D01*
X175957932Y-112046842D01*
X175845990Y-111776589D01*
X175710296Y-111573508D01*
X176216010Y-111067795D01*
X176245002Y-111044002D01*
X176268796Y-111015009D01*
X176268800Y-111015005D01*
X176339974Y-110928278D01*
X176339975Y-110928277D01*
X176410547Y-110796248D01*
X176454004Y-110652987D01*
X176465001Y-110541334D01*
X176465001Y-110541325D01*
X176468677Y-110504002D01*
X176465001Y-110466679D01*
X176465001Y-108612323D01*
X176468677Y-108575000D01*
X176465001Y-108537677D01*
X176465001Y-108537668D01*
X176454004Y-108426015D01*
X176410547Y-108282754D01*
X176339975Y-108150725D01*
X176245002Y-108035000D01*
X176215998Y-108011197D01*
X175971209Y-107766408D01*
X176015000Y-107546260D01*
X176015000Y-107253740D01*
X175973052Y-107042853D01*
X183860198Y-114930000D01*
X183733740Y-114930000D01*
X183446842Y-114987068D01*
X183176589Y-115099010D01*
X182933368Y-115261525D01*
X182726525Y-115468368D01*
X182564010Y-115711589D01*
X182452068Y-115981842D01*
X182395000Y-116268740D01*
X182395000Y-116561260D01*
X182452068Y-116848158D01*
X182564010Y-117118411D01*
X182726525Y-117361632D01*
X182933368Y-117568475D01*
X183176589Y-117730990D01*
X183446842Y-117842932D01*
X183733740Y-117900000D01*
X184026260Y-117900000D01*
X184313158Y-117842932D01*
X184583411Y-117730990D01*
X184826632Y-117568475D01*
X185033475Y-117361632D01*
X185150000Y-117187240D01*
X185266525Y-117361632D01*
X185473368Y-117568475D01*
X185716589Y-117730990D01*
X185986842Y-117842932D01*
X186273740Y-117900000D01*
X186566260Y-117900000D01*
X186853158Y-117842932D01*
X187123411Y-117730990D01*
X187366632Y-117568475D01*
X187573475Y-117361632D01*
X187690000Y-117187240D01*
X187806525Y-117361632D01*
X188013368Y-117568475D01*
X188256589Y-117730990D01*
X188526842Y-117842932D01*
X188813740Y-117900000D01*
X189106260Y-117900000D01*
X189393158Y-117842932D01*
X189663411Y-117730990D01*
X189906632Y-117568475D01*
X190113475Y-117361632D01*
X190230000Y-117187240D01*
X190346525Y-117361632D01*
X190553368Y-117568475D01*
X190796589Y-117730990D01*
X191066842Y-117842932D01*
X191353740Y-117900000D01*
X191646260Y-117900000D01*
X191933158Y-117842932D01*
X192203411Y-117730990D01*
X192446632Y-117568475D01*
X192653475Y-117361632D01*
X192770000Y-117187240D01*
X192886525Y-117361632D01*
X193093368Y-117568475D01*
X193336589Y-117730990D01*
X193606842Y-117842932D01*
X193893740Y-117900000D01*
X194186260Y-117900000D01*
X194473158Y-117842932D01*
X194743411Y-117730990D01*
X194986632Y-117568475D01*
X195111710Y-117443397D01*
X195731208Y-117443397D01*
X195808843Y-117692472D01*
X196072883Y-117818371D01*
X196356411Y-117890339D01*
X196648531Y-117905611D01*
X196938019Y-117863599D01*
X197213747Y-117765919D01*
X197351157Y-117692472D01*
X197428792Y-117443397D01*
X196580000Y-116594605D01*
X195731208Y-117443397D01*
X195111710Y-117443397D01*
X195193475Y-117361632D01*
X195309311Y-117188271D01*
X195551603Y-117263792D01*
X196400395Y-116415000D01*
X196759605Y-116415000D01*
X197608397Y-117263792D01*
X197850689Y-117188271D01*
X197966525Y-117361632D01*
X198173368Y-117568475D01*
X198416589Y-117730990D01*
X198686842Y-117842932D01*
X198973740Y-117900000D01*
X199266260Y-117900000D01*
X199553158Y-117842932D01*
X199823411Y-117730990D01*
X200066632Y-117568475D01*
X200273475Y-117361632D01*
X200435990Y-117118411D01*
X200547932Y-116848158D01*
X200605000Y-116561260D01*
X200605000Y-116268740D01*
X200547932Y-115981842D01*
X200435990Y-115711589D01*
X200273475Y-115468368D01*
X200066632Y-115261525D01*
X199823411Y-115099010D01*
X199553158Y-114987068D01*
X199266260Y-114930000D01*
X198973740Y-114930000D01*
X198686842Y-114987068D01*
X198416589Y-115099010D01*
X198173368Y-115261525D01*
X197966525Y-115468368D01*
X197850689Y-115641729D01*
X197608397Y-115566208D01*
X196759605Y-116415000D01*
X196400395Y-116415000D01*
X195551603Y-115566208D01*
X195309311Y-115641729D01*
X195193475Y-115468368D01*
X195111710Y-115386603D01*
X195731208Y-115386603D01*
X196580000Y-116235395D01*
X197428792Y-115386603D01*
X197351157Y-115137528D01*
X197087117Y-115011629D01*
X196803589Y-114939661D01*
X196511469Y-114924389D01*
X196221981Y-114966401D01*
X195946253Y-115064081D01*
X195808843Y-115137528D01*
X195731208Y-115386603D01*
X195111710Y-115386603D01*
X194986632Y-115261525D01*
X194743411Y-115099010D01*
X194473158Y-114987068D01*
X194186260Y-114930000D01*
X193893740Y-114930000D01*
X193606842Y-114987068D01*
X193336589Y-115099010D01*
X193093368Y-115261525D01*
X192886525Y-115468368D01*
X192770000Y-115642760D01*
X192653475Y-115468368D01*
X192446632Y-115261525D01*
X192203411Y-115099010D01*
X191933158Y-114987068D01*
X191646260Y-114930000D01*
X191353740Y-114930000D01*
X191066842Y-114987068D01*
X190796589Y-115099010D01*
X190553368Y-115261525D01*
X190346525Y-115468368D01*
X190230000Y-115642760D01*
X190113475Y-115468368D01*
X189906632Y-115261525D01*
X189663411Y-115099010D01*
X189393158Y-114987068D01*
X189106260Y-114930000D01*
X188813740Y-114930000D01*
X188526842Y-114987068D01*
X188256589Y-115099010D01*
X188013368Y-115261525D01*
X187806525Y-115468368D01*
X187690000Y-115642760D01*
X187573475Y-115468368D01*
X187366632Y-115261525D01*
X187123411Y-115099010D01*
X186853158Y-114987068D01*
X186566260Y-114930000D01*
X186273740Y-114930000D01*
X186053592Y-114973790D01*
X176015000Y-104935199D01*
X176015000Y-104713740D01*
X175957932Y-104426842D01*
X175845990Y-104156589D01*
X175683475Y-103913368D01*
X175476632Y-103706525D01*
X175302240Y-103590000D01*
X175476632Y-103473475D01*
X175683475Y-103266632D01*
X175845990Y-103023411D01*
X175957932Y-102753158D01*
X176015000Y-102466260D01*
X176015000Y-102173740D01*
X175957932Y-101886842D01*
X175845990Y-101616589D01*
X175683475Y-101373368D01*
X175476632Y-101166525D01*
X175302240Y-101050000D01*
X175476632Y-100933475D01*
X175683475Y-100726632D01*
X175845990Y-100483411D01*
X175957932Y-100213158D01*
X176015000Y-99926260D01*
X176015000Y-99633740D01*
X175957932Y-99346842D01*
X175845990Y-99076589D01*
X175683475Y-98833368D01*
X175476632Y-98626525D01*
X175302240Y-98510000D01*
X175476632Y-98393475D01*
X175683475Y-98186632D01*
X175845990Y-97943411D01*
X175957932Y-97673158D01*
X176015000Y-97386260D01*
X176015000Y-97093740D01*
X175957932Y-96806842D01*
X175845990Y-96536589D01*
X175683475Y-96293368D01*
X175476632Y-96086525D01*
X175302240Y-95970000D01*
X175476632Y-95853475D01*
X175683475Y-95646632D01*
X175845990Y-95403411D01*
X175957932Y-95133158D01*
X176015000Y-94846260D01*
X176015000Y-94553740D01*
X175957932Y-94266842D01*
X175845990Y-93996589D01*
X175683475Y-93753368D01*
X175476632Y-93546525D01*
X175302240Y-93430000D01*
X175476632Y-93313475D01*
X175683475Y-93106632D01*
X175845990Y-92863411D01*
X175957932Y-92593158D01*
X176015000Y-92306260D01*
X176015000Y-92013740D01*
X175957932Y-91726842D01*
X175845990Y-91456589D01*
X175683475Y-91213368D01*
X175476632Y-91006525D01*
X175302240Y-90890000D01*
X175476632Y-90773475D01*
X175683475Y-90566632D01*
X175845990Y-90323411D01*
X175957932Y-90053158D01*
X176015000Y-89766260D01*
X176015000Y-89473740D01*
X175957932Y-89186842D01*
X175845990Y-88916589D01*
X175683475Y-88673368D01*
X175476632Y-88466525D01*
X175303271Y-88350689D01*
X175310112Y-88328740D01*
X188745000Y-88328740D01*
X188745000Y-88621260D01*
X188802068Y-88908158D01*
X188914010Y-89178411D01*
X189076525Y-89421632D01*
X189283368Y-89628475D01*
X189526589Y-89790990D01*
X189796842Y-89902932D01*
X190083740Y-89960000D01*
X190376260Y-89960000D01*
X190663158Y-89902932D01*
X190933411Y-89790990D01*
X191176632Y-89628475D01*
X191383475Y-89421632D01*
X191500000Y-89247240D01*
X191616525Y-89421632D01*
X191823368Y-89628475D01*
X192066589Y-89790990D01*
X192336842Y-89902932D01*
X192623740Y-89960000D01*
X192916260Y-89960000D01*
X193203158Y-89902932D01*
X193473411Y-89790990D01*
X193716632Y-89628475D01*
X193923475Y-89421632D01*
X194085990Y-89178411D01*
X194197932Y-88908158D01*
X194255000Y-88621260D01*
X194255000Y-88328740D01*
X194197932Y-88041842D01*
X194085990Y-87771589D01*
X193923475Y-87528368D01*
X193716632Y-87321525D01*
X193473411Y-87159010D01*
X193203158Y-87047068D01*
X192916260Y-86990000D01*
X192623740Y-86990000D01*
X192336842Y-87047068D01*
X192066589Y-87159010D01*
X191823368Y-87321525D01*
X191616525Y-87528368D01*
X191500000Y-87702760D01*
X191383475Y-87528368D01*
X191176632Y-87321525D01*
X190933411Y-87159010D01*
X190663158Y-87047068D01*
X190376260Y-86990000D01*
X190083740Y-86990000D01*
X189796842Y-87047068D01*
X189526589Y-87159010D01*
X189283368Y-87321525D01*
X189076525Y-87528368D01*
X188914010Y-87771589D01*
X188802068Y-88041842D01*
X188745000Y-88328740D01*
X175310112Y-88328740D01*
X175378792Y-88108397D01*
X174530000Y-87259605D01*
X173681208Y-88108397D01*
X173756729Y-88350689D01*
X173583368Y-88466525D01*
X173376525Y-88673368D01*
X173214010Y-88916589D01*
X173102068Y-89186842D01*
X173045000Y-89473740D01*
X173045000Y-89766260D01*
X173102068Y-90053158D01*
X173214010Y-90323411D01*
X173376525Y-90566632D01*
X173583368Y-90773475D01*
X173757760Y-90890000D01*
X173583368Y-91006525D01*
X173376525Y-91213368D01*
X173214010Y-91456589D01*
X173102068Y-91726842D01*
X173045000Y-92013740D01*
X173045000Y-92306260D01*
X173064525Y-92404418D01*
X172936632Y-92276525D01*
X172693411Y-92114010D01*
X172423158Y-92002068D01*
X172136260Y-91945000D01*
X171843740Y-91945000D01*
X171556842Y-92002068D01*
X171286589Y-92114010D01*
X171043368Y-92276525D01*
X170836525Y-92483368D01*
X170674010Y-92726589D01*
X170562068Y-92996842D01*
X170505000Y-93283740D01*
X170505000Y-93576260D01*
X170562068Y-93863158D01*
X170674010Y-94133411D01*
X170836525Y-94376632D01*
X171043368Y-94583475D01*
X171217760Y-94700000D01*
X171043368Y-94816525D01*
X170836525Y-95023368D01*
X170674010Y-95266589D01*
X170562068Y-95536842D01*
X170505000Y-95823740D01*
X170505000Y-96116260D01*
X170562068Y-96403158D01*
X170674010Y-96673411D01*
X170836525Y-96916632D01*
X171043368Y-97123475D01*
X171286589Y-97285990D01*
X171556842Y-97397932D01*
X171843740Y-97455000D01*
X172136260Y-97455000D01*
X172423158Y-97397932D01*
X172693411Y-97285990D01*
X172936632Y-97123475D01*
X173064525Y-96995582D01*
X173045000Y-97093740D01*
X173045000Y-97386260D01*
X173102068Y-97673158D01*
X173214010Y-97943411D01*
X173376525Y-98186632D01*
X173583368Y-98393475D01*
X173757760Y-98510000D01*
X173583368Y-98626525D01*
X173376525Y-98833368D01*
X173214010Y-99076589D01*
X173102068Y-99346842D01*
X173045000Y-99633740D01*
X173045000Y-99926260D01*
X173102068Y-100213158D01*
X173214010Y-100483411D01*
X173376525Y-100726632D01*
X173583368Y-100933475D01*
X173757760Y-101050000D01*
X173583368Y-101166525D01*
X173376525Y-101373368D01*
X173214010Y-101616589D01*
X173102068Y-101886842D01*
X173045000Y-102173740D01*
X173045000Y-102466260D01*
X173088790Y-102686407D01*
X170310200Y-105464999D01*
X160646753Y-105464999D01*
X160717932Y-105293158D01*
X160775000Y-105006260D01*
X160775000Y-104713740D01*
X160717932Y-104426842D01*
X160605990Y-104156589D01*
X160443475Y-103913368D01*
X160236632Y-103706525D01*
X160062240Y-103590000D01*
X160236632Y-103473475D01*
X160443475Y-103266632D01*
X160605990Y-103023411D01*
X160717932Y-102753158D01*
X160775000Y-102466260D01*
X160775000Y-102173740D01*
X160717932Y-101886842D01*
X160605990Y-101616589D01*
X160443475Y-101373368D01*
X160236632Y-101166525D01*
X160062240Y-101050000D01*
X160236632Y-100933475D01*
X160443475Y-100726632D01*
X160605990Y-100483411D01*
X160717932Y-100213158D01*
X160775000Y-99926260D01*
X160775000Y-99633740D01*
X160717932Y-99346842D01*
X160605990Y-99076589D01*
X160443475Y-98833368D01*
X160236632Y-98626525D01*
X160062240Y-98510000D01*
X160236632Y-98393475D01*
X160443475Y-98186632D01*
X160605990Y-97943411D01*
X160717932Y-97673158D01*
X160775000Y-97386260D01*
X160775000Y-97093740D01*
X160717932Y-96806842D01*
X160605990Y-96536589D01*
X160443475Y-96293368D01*
X160236632Y-96086525D01*
X160062240Y-95970000D01*
X160236632Y-95853475D01*
X160443475Y-95646632D01*
X160605990Y-95403411D01*
X160717932Y-95133158D01*
X160775000Y-94846260D01*
X160775000Y-94553740D01*
X160717932Y-94266842D01*
X160605990Y-93996589D01*
X160443475Y-93753368D01*
X160236632Y-93546525D01*
X160063271Y-93430689D01*
X160138792Y-93188397D01*
X159290000Y-92339605D01*
X158441208Y-93188397D01*
X158516729Y-93430689D01*
X158343368Y-93546525D01*
X158136525Y-93753368D01*
X157974010Y-93996589D01*
X157862068Y-94266842D01*
X157805000Y-94553740D01*
X157805000Y-94846260D01*
X157862068Y-95133158D01*
X157974010Y-95403411D01*
X158136525Y-95646632D01*
X158343368Y-95853475D01*
X158517760Y-95970000D01*
X158343368Y-96086525D01*
X158136525Y-96293368D01*
X157974010Y-96536589D01*
X157862068Y-96806842D01*
X157805000Y-97093740D01*
X157805000Y-97386260D01*
X157862068Y-97673158D01*
X157974010Y-97943411D01*
X158136525Y-98186632D01*
X158343368Y-98393475D01*
X158517760Y-98510000D01*
X158343368Y-98626525D01*
X158136525Y-98833368D01*
X157974010Y-99076589D01*
X157862068Y-99346842D01*
X157805000Y-99633740D01*
X157805000Y-99926260D01*
X157862068Y-100213158D01*
X157974010Y-100483411D01*
X158136525Y-100726632D01*
X158343368Y-100933475D01*
X158517760Y-101050000D01*
X158343368Y-101166525D01*
X158136525Y-101373368D01*
X157974010Y-101616589D01*
X157862068Y-101886842D01*
X157805000Y-102173740D01*
X157805000Y-102466260D01*
X157862068Y-102753158D01*
X157974010Y-103023411D01*
X158136525Y-103266632D01*
X158343368Y-103473475D01*
X158517760Y-103590000D01*
X158343368Y-103706525D01*
X158136525Y-103913368D01*
X157974010Y-104156589D01*
X157862068Y-104426842D01*
X157805000Y-104713740D01*
X157805000Y-105006260D01*
X157862068Y-105293158D01*
X157933247Y-105464999D01*
X145107334Y-105464999D01*
X145070001Y-105461322D01*
X145032668Y-105464999D01*
X144921015Y-105475996D01*
X144777754Y-105519453D01*
X144645725Y-105590025D01*
X144530000Y-105684998D01*
X144506202Y-105713996D01*
X135246408Y-114973791D01*
X135026260Y-114930000D01*
X134733740Y-114930000D01*
X134446842Y-114987068D01*
X134176589Y-115099010D01*
X133933368Y-115261525D01*
X133726525Y-115468368D01*
X133564010Y-115711589D01*
X133452068Y-115981842D01*
X133395000Y-116268740D01*
X133395000Y-116561260D01*
X133448456Y-116830001D01*
X124348805Y-116830001D01*
X122247805Y-114729002D01*
X122224002Y-114699998D01*
X122108277Y-114605025D01*
X121976248Y-114534453D01*
X121832987Y-114490996D01*
X121721334Y-114479999D01*
X121721323Y-114479999D01*
X121684001Y-114476323D01*
X121646679Y-114479999D01*
X117252323Y-114479999D01*
X117215000Y-114476323D01*
X117177677Y-114479999D01*
X117177668Y-114479999D01*
X117066015Y-114490996D01*
X116922754Y-114534453D01*
X116790725Y-114605025D01*
X116675000Y-114699998D01*
X116651197Y-114729002D01*
X116406408Y-114973791D01*
X116186260Y-114930000D01*
X115893740Y-114930000D01*
X115606842Y-114987068D01*
X115336589Y-115099010D01*
X115093368Y-115261525D01*
X114886525Y-115468368D01*
X114770000Y-115642760D01*
X114653475Y-115468368D01*
X114446632Y-115261525D01*
X114203411Y-115099010D01*
X113933158Y-114987068D01*
X113646260Y-114930000D01*
X113353740Y-114930000D01*
X113066842Y-114987068D01*
X112796589Y-115099010D01*
X112553368Y-115261525D01*
X112346525Y-115468368D01*
X112230000Y-115642760D01*
X112113475Y-115468368D01*
X111906632Y-115261525D01*
X111663411Y-115099010D01*
X111393158Y-114987068D01*
X111106260Y-114930000D01*
X110813740Y-114930000D01*
X110526842Y-114987068D01*
X110256589Y-115099010D01*
X110013368Y-115261525D01*
X109806525Y-115468368D01*
X109690000Y-115642760D01*
X109573475Y-115468368D01*
X109366632Y-115261525D01*
X109123411Y-115099010D01*
X108853158Y-114987068D01*
X108566260Y-114930000D01*
X108273740Y-114930000D01*
X107986842Y-114987068D01*
X107716589Y-115099010D01*
X107473368Y-115261525D01*
X107266525Y-115468368D01*
X107150000Y-115642760D01*
X107033475Y-115468368D01*
X106826632Y-115261525D01*
X106583411Y-115099010D01*
X106313158Y-114987068D01*
X106026260Y-114930000D01*
X105733740Y-114930000D01*
X105446842Y-114987068D01*
X105176589Y-115099010D01*
X104933368Y-115261525D01*
X104726525Y-115468368D01*
X104564010Y-115711589D01*
X104452068Y-115981842D01*
X104395000Y-116268740D01*
X104395000Y-116561260D01*
X104452068Y-116848158D01*
X104564010Y-117118411D01*
X104726525Y-117361632D01*
X104933368Y-117568475D01*
X105176589Y-117730990D01*
X105446842Y-117842932D01*
X105733740Y-117900000D01*
X106026260Y-117900000D01*
X106313158Y-117842932D01*
X106583411Y-117730990D01*
X106826632Y-117568475D01*
X107033475Y-117361632D01*
X107150000Y-117187240D01*
X107266525Y-117361632D01*
X107473368Y-117568475D01*
X107716589Y-117730990D01*
X107986842Y-117842932D01*
X108273740Y-117900000D01*
X108566260Y-117900000D01*
X108853158Y-117842932D01*
X109123411Y-117730990D01*
X109366632Y-117568475D01*
X109573475Y-117361632D01*
X109690000Y-117187240D01*
X109806525Y-117361632D01*
X110013368Y-117568475D01*
X110256589Y-117730990D01*
X110526842Y-117842932D01*
X110813740Y-117900000D01*
X110919831Y-117900000D01*
X110433446Y-118101467D01*
X109805330Y-118521161D01*
X109271161Y-119055330D01*
X108851467Y-119683446D01*
X108562377Y-120381372D01*
X108415000Y-121122285D01*
X108415000Y-121877715D01*
X108562377Y-122618628D01*
X108851467Y-123316554D01*
X109271161Y-123944670D01*
X109666491Y-124340000D01*
X105660000Y-124340000D01*
X105660000Y-119032418D01*
X105663193Y-119000000D01*
X105650450Y-118870617D01*
X105612710Y-118746207D01*
X105551425Y-118631550D01*
X105468948Y-118531052D01*
X105368450Y-118448575D01*
X105253793Y-118387290D01*
X105129383Y-118349550D01*
X105032419Y-118340000D01*
X105000000Y-118336807D01*
X104967581Y-118340000D01*
X99660000Y-118340000D01*
X99660000Y-92228531D01*
X157799389Y-92228531D01*
X157841401Y-92518019D01*
X157939081Y-92793747D01*
X158012528Y-92931157D01*
X158261603Y-93008792D01*
X159110395Y-92160000D01*
X159469605Y-92160000D01*
X160318397Y-93008792D01*
X160567472Y-92931157D01*
X160693371Y-92667117D01*
X160765339Y-92383589D01*
X160780611Y-92091469D01*
X160738599Y-91801981D01*
X160640919Y-91526253D01*
X160567472Y-91388843D01*
X160318397Y-91311208D01*
X159469605Y-92160000D01*
X159110395Y-92160000D01*
X158261603Y-91311208D01*
X158012528Y-91388843D01*
X157886629Y-91652883D01*
X157814661Y-91936411D01*
X157799389Y-92228531D01*
X99660000Y-92228531D01*
X99660000Y-88328740D01*
X110745000Y-88328740D01*
X110745000Y-88621260D01*
X110802068Y-88908158D01*
X110914010Y-89178411D01*
X111076525Y-89421632D01*
X111283368Y-89628475D01*
X111526589Y-89790990D01*
X111796842Y-89902932D01*
X112083740Y-89960000D01*
X112376260Y-89960000D01*
X112663158Y-89902932D01*
X112933411Y-89790990D01*
X113176632Y-89628475D01*
X113383475Y-89421632D01*
X113500000Y-89247240D01*
X113616525Y-89421632D01*
X113823368Y-89628475D01*
X114066589Y-89790990D01*
X114336842Y-89902932D01*
X114623740Y-89960000D01*
X114916260Y-89960000D01*
X115203158Y-89902932D01*
X115473411Y-89790990D01*
X115716632Y-89628475D01*
X115923475Y-89421632D01*
X116085990Y-89178411D01*
X116197932Y-88908158D01*
X116255000Y-88621260D01*
X116255000Y-88328740D01*
X116197932Y-88041842D01*
X116085990Y-87771589D01*
X115923475Y-87528368D01*
X115716632Y-87321525D01*
X115473411Y-87159010D01*
X115203158Y-87047068D01*
X114916260Y-86990000D01*
X114623740Y-86990000D01*
X114336842Y-87047068D01*
X114066589Y-87159010D01*
X113823368Y-87321525D01*
X113616525Y-87528368D01*
X113500000Y-87702760D01*
X113383475Y-87528368D01*
X113176632Y-87321525D01*
X112933411Y-87159010D01*
X112663158Y-87047068D01*
X112376260Y-86990000D01*
X112083740Y-86990000D01*
X111796842Y-87047068D01*
X111526589Y-87159010D01*
X111283368Y-87321525D01*
X111076525Y-87528368D01*
X110914010Y-87771589D01*
X110802068Y-88041842D01*
X110745000Y-88328740D01*
X99660000Y-88328740D01*
X99660000Y-85788740D01*
X123445000Y-85788740D01*
X123445000Y-86081260D01*
X123502068Y-86368158D01*
X123614010Y-86638411D01*
X123776525Y-86881632D01*
X123983368Y-87088475D01*
X124157760Y-87205000D01*
X123983368Y-87321525D01*
X123776525Y-87528368D01*
X123614010Y-87771589D01*
X123502068Y-88041842D01*
X123445000Y-88328740D01*
X123445000Y-88621260D01*
X123502068Y-88908158D01*
X123614010Y-89178411D01*
X123776525Y-89421632D01*
X123983368Y-89628475D01*
X124226589Y-89790990D01*
X124496842Y-89902932D01*
X124783740Y-89960000D01*
X125076260Y-89960000D01*
X125363158Y-89902932D01*
X125633411Y-89790990D01*
X125876632Y-89628475D01*
X126083475Y-89421632D01*
X126245990Y-89178411D01*
X126357932Y-88908158D01*
X126415000Y-88621260D01*
X126415000Y-88328740D01*
X139745000Y-88328740D01*
X139745000Y-88621260D01*
X139802068Y-88908158D01*
X139914010Y-89178411D01*
X140076525Y-89421632D01*
X140283368Y-89628475D01*
X140526589Y-89790990D01*
X140796842Y-89902932D01*
X141083740Y-89960000D01*
X141376260Y-89960000D01*
X141663158Y-89902932D01*
X141933411Y-89790990D01*
X142176632Y-89628475D01*
X142383475Y-89421632D01*
X142500000Y-89247240D01*
X142616525Y-89421632D01*
X142823368Y-89628475D01*
X143066589Y-89790990D01*
X143336842Y-89902932D01*
X143623740Y-89960000D01*
X143916260Y-89960000D01*
X144203158Y-89902932D01*
X144473411Y-89790990D01*
X144716632Y-89628475D01*
X144923475Y-89421632D01*
X145085990Y-89178411D01*
X145197932Y-88908158D01*
X145255000Y-88621260D01*
X145255000Y-88328740D01*
X145197932Y-88041842D01*
X145085990Y-87771589D01*
X144923475Y-87528368D01*
X144716632Y-87321525D01*
X144473411Y-87159010D01*
X144203158Y-87047068D01*
X143916260Y-86990000D01*
X143623740Y-86990000D01*
X143336842Y-87047068D01*
X143066589Y-87159010D01*
X142823368Y-87321525D01*
X142616525Y-87528368D01*
X142500000Y-87702760D01*
X142383475Y-87528368D01*
X142176632Y-87321525D01*
X141933411Y-87159010D01*
X141663158Y-87047068D01*
X141376260Y-86990000D01*
X141083740Y-86990000D01*
X140796842Y-87047068D01*
X140526589Y-87159010D01*
X140283368Y-87321525D01*
X140076525Y-87528368D01*
X139914010Y-87771589D01*
X139802068Y-88041842D01*
X139745000Y-88328740D01*
X126415000Y-88328740D01*
X126357932Y-88041842D01*
X126245990Y-87771589D01*
X126083475Y-87528368D01*
X125876632Y-87321525D01*
X125702240Y-87205000D01*
X125876632Y-87088475D01*
X126083475Y-86881632D01*
X126245990Y-86638411D01*
X126357932Y-86368158D01*
X126415000Y-86081260D01*
X126415000Y-85788740D01*
X152445000Y-85788740D01*
X152445000Y-86081260D01*
X152502068Y-86368158D01*
X152614010Y-86638411D01*
X152776525Y-86881632D01*
X152983368Y-87088475D01*
X153157760Y-87205000D01*
X152983368Y-87321525D01*
X152776525Y-87528368D01*
X152614010Y-87771589D01*
X152502068Y-88041842D01*
X152445000Y-88328740D01*
X152445000Y-88621260D01*
X152502068Y-88908158D01*
X152614010Y-89178411D01*
X152776525Y-89421632D01*
X152983368Y-89628475D01*
X153226589Y-89790990D01*
X153496842Y-89902932D01*
X153783740Y-89960000D01*
X154076260Y-89960000D01*
X154363158Y-89902932D01*
X154633411Y-89790990D01*
X154876632Y-89628475D01*
X155083475Y-89421632D01*
X155245990Y-89178411D01*
X155357932Y-88908158D01*
X155415000Y-88621260D01*
X155415000Y-88328740D01*
X155357932Y-88041842D01*
X155245990Y-87771589D01*
X155083475Y-87528368D01*
X154876632Y-87321525D01*
X154702240Y-87205000D01*
X154876632Y-87088475D01*
X155083475Y-86881632D01*
X155245990Y-86638411D01*
X155357932Y-86368158D01*
X155415000Y-86081260D01*
X155415000Y-85788740D01*
X155357932Y-85501842D01*
X155245990Y-85231589D01*
X155083475Y-84988368D01*
X154876632Y-84781525D01*
X154633411Y-84619010D01*
X154363158Y-84507068D01*
X154076260Y-84450000D01*
X153783740Y-84450000D01*
X153496842Y-84507068D01*
X153226589Y-84619010D01*
X152983368Y-84781525D01*
X152776525Y-84988368D01*
X152614010Y-85231589D01*
X152502068Y-85501842D01*
X152445000Y-85788740D01*
X126415000Y-85788740D01*
X126357932Y-85501842D01*
X126245990Y-85231589D01*
X126083475Y-84988368D01*
X125876632Y-84781525D01*
X125633411Y-84619010D01*
X125363158Y-84507068D01*
X125076260Y-84450000D01*
X124783740Y-84450000D01*
X124496842Y-84507068D01*
X124226589Y-84619010D01*
X123983368Y-84781525D01*
X123776525Y-84988368D01*
X123614010Y-85231589D01*
X123502068Y-85501842D01*
X123445000Y-85788740D01*
X99660000Y-85788740D01*
X99660000Y-84393740D01*
X157805000Y-84393740D01*
X157805000Y-84686260D01*
X157862068Y-84973158D01*
X157974010Y-85243411D01*
X158136525Y-85486632D01*
X158343368Y-85693475D01*
X158517760Y-85810000D01*
X158343368Y-85926525D01*
X158136525Y-86133368D01*
X157974010Y-86376589D01*
X157862068Y-86646842D01*
X157805000Y-86933740D01*
X157805000Y-87226260D01*
X157862068Y-87513158D01*
X157974010Y-87783411D01*
X158136525Y-88026632D01*
X158343368Y-88233475D01*
X158517760Y-88350000D01*
X158343368Y-88466525D01*
X158136525Y-88673368D01*
X157974010Y-88916589D01*
X157862068Y-89186842D01*
X157805000Y-89473740D01*
X157805000Y-89766260D01*
X157862068Y-90053158D01*
X157974010Y-90323411D01*
X158136525Y-90566632D01*
X158343368Y-90773475D01*
X158516729Y-90889311D01*
X158441208Y-91131603D01*
X159290000Y-91980395D01*
X160138792Y-91131603D01*
X160063271Y-90889311D01*
X160236632Y-90773475D01*
X160443475Y-90566632D01*
X160605990Y-90323411D01*
X160717932Y-90053158D01*
X160775000Y-89766260D01*
X160775000Y-89473740D01*
X160717932Y-89186842D01*
X160605990Y-88916589D01*
X160443475Y-88673368D01*
X160236632Y-88466525D01*
X160062240Y-88350000D01*
X160236632Y-88233475D01*
X160443475Y-88026632D01*
X160605990Y-87783411D01*
X160717932Y-87513158D01*
X160775000Y-87226260D01*
X160775000Y-87148531D01*
X173039389Y-87148531D01*
X173081401Y-87438019D01*
X173179081Y-87713747D01*
X173252528Y-87851157D01*
X173501603Y-87928792D01*
X174350395Y-87080000D01*
X174709605Y-87080000D01*
X175558397Y-87928792D01*
X175807472Y-87851157D01*
X175933371Y-87587117D01*
X176005339Y-87303589D01*
X176020611Y-87011469D01*
X175978599Y-86721981D01*
X175880919Y-86446253D01*
X175807472Y-86308843D01*
X175558397Y-86231208D01*
X174709605Y-87080000D01*
X174350395Y-87080000D01*
X173501603Y-86231208D01*
X173252528Y-86308843D01*
X173126629Y-86572883D01*
X173054661Y-86856411D01*
X173039389Y-87148531D01*
X160775000Y-87148531D01*
X160775000Y-86933740D01*
X160717932Y-86646842D01*
X160605990Y-86376589D01*
X160443475Y-86133368D01*
X160236632Y-85926525D01*
X160062240Y-85810000D01*
X160236632Y-85693475D01*
X160443475Y-85486632D01*
X160605990Y-85243411D01*
X160717932Y-84973158D01*
X160775000Y-84686260D01*
X160775000Y-84393740D01*
X173045000Y-84393740D01*
X173045000Y-84686260D01*
X173102068Y-84973158D01*
X173214010Y-85243411D01*
X173376525Y-85486632D01*
X173583368Y-85693475D01*
X173756729Y-85809311D01*
X173681208Y-86051603D01*
X174530000Y-86900395D01*
X175378792Y-86051603D01*
X175303271Y-85809311D01*
X175334057Y-85788740D01*
X201445000Y-85788740D01*
X201445000Y-86081260D01*
X201502068Y-86368158D01*
X201614010Y-86638411D01*
X201776525Y-86881632D01*
X201983368Y-87088475D01*
X202157760Y-87205000D01*
X201983368Y-87321525D01*
X201776525Y-87528368D01*
X201614010Y-87771589D01*
X201502068Y-88041842D01*
X201445000Y-88328740D01*
X201445000Y-88621260D01*
X201502068Y-88908158D01*
X201614010Y-89178411D01*
X201776525Y-89421632D01*
X201983368Y-89628475D01*
X202226589Y-89790990D01*
X202496842Y-89902932D01*
X202783740Y-89960000D01*
X203076260Y-89960000D01*
X203363158Y-89902932D01*
X203633411Y-89790990D01*
X203876632Y-89628475D01*
X204083475Y-89421632D01*
X204245990Y-89178411D01*
X204357932Y-88908158D01*
X204415000Y-88621260D01*
X204415000Y-88328740D01*
X204357932Y-88041842D01*
X204245990Y-87771589D01*
X204083475Y-87528368D01*
X203876632Y-87321525D01*
X203702240Y-87205000D01*
X203876632Y-87088475D01*
X204083475Y-86881632D01*
X204245990Y-86638411D01*
X204357932Y-86368158D01*
X204415000Y-86081260D01*
X204415000Y-85788740D01*
X204357932Y-85501842D01*
X204245990Y-85231589D01*
X204083475Y-84988368D01*
X203876632Y-84781525D01*
X203633411Y-84619010D01*
X203363158Y-84507068D01*
X203076260Y-84450000D01*
X202783740Y-84450000D01*
X202496842Y-84507068D01*
X202226589Y-84619010D01*
X201983368Y-84781525D01*
X201776525Y-84988368D01*
X201614010Y-85231589D01*
X201502068Y-85501842D01*
X201445000Y-85788740D01*
X175334057Y-85788740D01*
X175476632Y-85693475D01*
X175683475Y-85486632D01*
X175845990Y-85243411D01*
X175957932Y-84973158D01*
X176015000Y-84686260D01*
X176015000Y-84393740D01*
X175957932Y-84106842D01*
X175845990Y-83836589D01*
X175683475Y-83593368D01*
X175476632Y-83386525D01*
X175233411Y-83224010D01*
X174963158Y-83112068D01*
X174676260Y-83055000D01*
X174383740Y-83055000D01*
X174096842Y-83112068D01*
X173826589Y-83224010D01*
X173583368Y-83386525D01*
X173376525Y-83593368D01*
X173214010Y-83836589D01*
X173102068Y-84106842D01*
X173045000Y-84393740D01*
X160775000Y-84393740D01*
X160717932Y-84106842D01*
X160605990Y-83836589D01*
X160443475Y-83593368D01*
X160236632Y-83386525D01*
X159993411Y-83224010D01*
X159723158Y-83112068D01*
X159436260Y-83055000D01*
X159143740Y-83055000D01*
X158856842Y-83112068D01*
X158586589Y-83224010D01*
X158343368Y-83386525D01*
X158136525Y-83593368D01*
X157974010Y-83836589D01*
X157862068Y-84106842D01*
X157805000Y-84393740D01*
X99660000Y-84393740D01*
X99660000Y-79608665D01*
X157815000Y-79608665D01*
X157815000Y-79891335D01*
X157870147Y-80168574D01*
X157978320Y-80429727D01*
X158135363Y-80664759D01*
X158335241Y-80864637D01*
X158570273Y-81021680D01*
X158831426Y-81129853D01*
X159108665Y-81185000D01*
X159391335Y-81185000D01*
X159668574Y-81129853D01*
X159929727Y-81021680D01*
X160164759Y-80864637D01*
X160286694Y-80742702D01*
X160936903Y-80742702D01*
X161008486Y-80986671D01*
X161263996Y-81107571D01*
X161538184Y-81176300D01*
X161820512Y-81190217D01*
X162100130Y-81148787D01*
X162366292Y-81053603D01*
X162491514Y-80986671D01*
X162563097Y-80742702D01*
X161750000Y-79929605D01*
X160936903Y-80742702D01*
X160286694Y-80742702D01*
X160364637Y-80664759D01*
X160498692Y-80464131D01*
X160513329Y-80491514D01*
X160757298Y-80563097D01*
X161570395Y-79750000D01*
X161929605Y-79750000D01*
X162742702Y-80563097D01*
X162986671Y-80491514D01*
X163107571Y-80236004D01*
X163176300Y-79961816D01*
X163190217Y-79679488D01*
X163148787Y-79399870D01*
X163053603Y-79133708D01*
X162986671Y-79008486D01*
X162742702Y-78936903D01*
X161929605Y-79750000D01*
X161570395Y-79750000D01*
X160757298Y-78936903D01*
X160513329Y-79008486D01*
X160499676Y-79037341D01*
X160364637Y-78835241D01*
X160286694Y-78757298D01*
X160936903Y-78757298D01*
X161750000Y-79570395D01*
X162563097Y-78757298D01*
X162491514Y-78513329D01*
X162236004Y-78392429D01*
X161961816Y-78323700D01*
X161679488Y-78309783D01*
X161399870Y-78351213D01*
X161133708Y-78446397D01*
X161008486Y-78513329D01*
X160936903Y-78757298D01*
X160286694Y-78757298D01*
X160164759Y-78635363D01*
X159929727Y-78478320D01*
X159668574Y-78370147D01*
X159391335Y-78315000D01*
X159108665Y-78315000D01*
X158831426Y-78370147D01*
X158570273Y-78478320D01*
X158335241Y-78635363D01*
X158135363Y-78835241D01*
X157978320Y-79070273D01*
X157870147Y-79331426D01*
X157815000Y-79608665D01*
X99660000Y-79608665D01*
X99660000Y-74660000D01*
X104967581Y-74660000D01*
X105000000Y-74663193D01*
X105032419Y-74660000D01*
X105129383Y-74650450D01*
X105253793Y-74612710D01*
X105368450Y-74551425D01*
X105468948Y-74468948D01*
X105551425Y-74368450D01*
X105612710Y-74253793D01*
X105650450Y-74129383D01*
X105663193Y-74000000D01*
X105660000Y-73967581D01*
X105660000Y-68660000D01*
X109471694Y-68660000D01*
X109305330Y-68771161D01*
M02*
