G04 #@! TF.GenerationSoftware,KiCad,Pcbnew,(5.1.4)-1*
G04 #@! TF.CreationDate,2020-03-19T13:00:02-06:00*
G04 #@! TF.ProjectId,Axle Ratio Change,41786c65-2052-4617-9469-6f204368616e,rev?*
G04 #@! TF.SameCoordinates,Original*
G04 #@! TF.FileFunction,Legend,Top*
G04 #@! TF.FilePolarity,Positive*
%FSLAX46Y46*%
G04 Gerber Fmt 4.6, Leading zero omitted, Abs format (unit mm)*
G04 Created by KiCad (PCBNEW (5.1.4)-1) date 2020-03-19 13:00:02*
%MOMM*%
%LPD*%
G04 APERTURE LIST*
%ADD10C,0.150000*%
%ADD11C,0.203200*%
%ADD12C,0.120000*%
%ADD13C,0.127000*%
G04 APERTURE END LIST*
D10*
X146988095Y-72750000D02*
X146892857Y-72702380D01*
X146750000Y-72702380D01*
X146607142Y-72750000D01*
X146511904Y-72845238D01*
X146464285Y-72940476D01*
X146416666Y-73130952D01*
X146416666Y-73273809D01*
X146464285Y-73464285D01*
X146511904Y-73559523D01*
X146607142Y-73654761D01*
X146750000Y-73702380D01*
X146845238Y-73702380D01*
X146988095Y-73654761D01*
X147035714Y-73607142D01*
X147035714Y-73273809D01*
X146845238Y-73273809D01*
X147464285Y-73702380D02*
X147464285Y-72702380D01*
X148035714Y-73702380D01*
X148035714Y-72702380D01*
X148511904Y-73702380D02*
X148511904Y-72702380D01*
X148750000Y-72702380D01*
X148892857Y-72750000D01*
X148988095Y-72845238D01*
X149035714Y-72940476D01*
X149083333Y-73130952D01*
X149083333Y-73273809D01*
X149035714Y-73464285D01*
X148988095Y-73559523D01*
X148892857Y-73654761D01*
X148750000Y-73702380D01*
X148511904Y-73702380D01*
X156214285Y-73321428D02*
X156976190Y-73321428D01*
X156595238Y-73702380D02*
X156595238Y-72940476D01*
X157928571Y-72702380D02*
X157452380Y-72702380D01*
X157404761Y-73178571D01*
X157452380Y-73130952D01*
X157547619Y-73083333D01*
X157785714Y-73083333D01*
X157880952Y-73130952D01*
X157928571Y-73178571D01*
X157976190Y-73273809D01*
X157976190Y-73511904D01*
X157928571Y-73607142D01*
X157880952Y-73654761D01*
X157785714Y-73702380D01*
X157547619Y-73702380D01*
X157452380Y-73654761D01*
X157404761Y-73607142D01*
X158261904Y-72702380D02*
X158595238Y-73702380D01*
X158928571Y-72702380D01*
X177392857Y-76702380D02*
X177392857Y-75702380D01*
X177869047Y-76702380D02*
X177869047Y-75702380D01*
X178440476Y-76702380D01*
X178440476Y-75702380D01*
X178773809Y-75702380D02*
X179345238Y-75702380D01*
X179059523Y-76702380D02*
X179059523Y-75702380D01*
X180440476Y-76702380D02*
X180440476Y-75702380D01*
X180678571Y-75702380D01*
X180821428Y-75750000D01*
X180916666Y-75845238D01*
X180964285Y-75940476D01*
X181011904Y-76130952D01*
X181011904Y-76273809D01*
X180964285Y-76464285D01*
X180916666Y-76559523D01*
X180821428Y-76654761D01*
X180678571Y-76702380D01*
X180440476Y-76702380D01*
X181345238Y-75702380D02*
X181964285Y-75702380D01*
X181630952Y-76083333D01*
X181773809Y-76083333D01*
X181869047Y-76130952D01*
X181916666Y-76178571D01*
X181964285Y-76273809D01*
X181964285Y-76511904D01*
X181916666Y-76607142D01*
X181869047Y-76654761D01*
X181773809Y-76702380D01*
X181488095Y-76702380D01*
X181392857Y-76654761D01*
X181345238Y-76607142D01*
X184488095Y-76607142D02*
X184440476Y-76654761D01*
X184297619Y-76702380D01*
X184202380Y-76702380D01*
X184059523Y-76654761D01*
X183964285Y-76559523D01*
X183916666Y-76464285D01*
X183869047Y-76273809D01*
X183869047Y-76130952D01*
X183916666Y-75940476D01*
X183964285Y-75845238D01*
X184059523Y-75750000D01*
X184202380Y-75702380D01*
X184297619Y-75702380D01*
X184440476Y-75750000D01*
X184488095Y-75797619D01*
X184869047Y-76654761D02*
X185011904Y-76702380D01*
X185250000Y-76702380D01*
X185345238Y-76654761D01*
X185392857Y-76607142D01*
X185440476Y-76511904D01*
X185440476Y-76416666D01*
X185392857Y-76321428D01*
X185345238Y-76273809D01*
X185250000Y-76226190D01*
X185059523Y-76178571D01*
X184964285Y-76130952D01*
X184916666Y-76083333D01*
X184869047Y-75988095D01*
X184869047Y-75892857D01*
X184916666Y-75797619D01*
X184964285Y-75750000D01*
X185059523Y-75702380D01*
X185297619Y-75702380D01*
X185440476Y-75750000D01*
X186630952Y-76702380D02*
X186630952Y-75702380D01*
X186869047Y-75702380D01*
X187011904Y-75750000D01*
X187107142Y-75845238D01*
X187154761Y-75940476D01*
X187202380Y-76130952D01*
X187202380Y-76273809D01*
X187154761Y-76464285D01*
X187107142Y-76559523D01*
X187011904Y-76654761D01*
X186869047Y-76702380D01*
X186630952Y-76702380D01*
X187678571Y-76702380D02*
X187869047Y-76702380D01*
X187964285Y-76654761D01*
X188011904Y-76607142D01*
X188107142Y-76464285D01*
X188154761Y-76273809D01*
X188154761Y-75892857D01*
X188107142Y-75797619D01*
X188059523Y-75750000D01*
X187964285Y-75702380D01*
X187773809Y-75702380D01*
X187678571Y-75750000D01*
X187630952Y-75797619D01*
X187583333Y-75892857D01*
X187583333Y-76130952D01*
X187630952Y-76226190D01*
X187678571Y-76273809D01*
X187773809Y-76321428D01*
X187964285Y-76321428D01*
X188059523Y-76273809D01*
X188107142Y-76226190D01*
X188154761Y-76130952D01*
X135988095Y-76702380D02*
X135988095Y-75702380D01*
X136464285Y-76702380D02*
X136464285Y-75702380D01*
X137035714Y-76702380D01*
X137035714Y-75702380D01*
X137369047Y-75702380D02*
X137940476Y-75702380D01*
X137654761Y-76702380D02*
X137654761Y-75702380D01*
X138988095Y-76416666D02*
X139464285Y-76416666D01*
X138892857Y-76702380D02*
X139226190Y-75702380D01*
X139559523Y-76702380D01*
X140083333Y-75702380D02*
X140178571Y-75702380D01*
X140273809Y-75750000D01*
X140321428Y-75797619D01*
X140369047Y-75892857D01*
X140416666Y-76083333D01*
X140416666Y-76321428D01*
X140369047Y-76511904D01*
X140321428Y-76607142D01*
X140273809Y-76654761D01*
X140178571Y-76702380D01*
X140083333Y-76702380D01*
X139988095Y-76654761D01*
X139940476Y-76607142D01*
X139892857Y-76511904D01*
X139845238Y-76321428D01*
X139845238Y-76083333D01*
X139892857Y-75892857D01*
X139940476Y-75797619D01*
X139988095Y-75750000D01*
X140083333Y-75702380D01*
X142940476Y-76607142D02*
X142892857Y-76654761D01*
X142750000Y-76702380D01*
X142654761Y-76702380D01*
X142511904Y-76654761D01*
X142416666Y-76559523D01*
X142369047Y-76464285D01*
X142321428Y-76273809D01*
X142321428Y-76130952D01*
X142369047Y-75940476D01*
X142416666Y-75845238D01*
X142511904Y-75750000D01*
X142654761Y-75702380D01*
X142750000Y-75702380D01*
X142892857Y-75750000D01*
X142940476Y-75797619D01*
X143321428Y-76654761D02*
X143464285Y-76702380D01*
X143702380Y-76702380D01*
X143797619Y-76654761D01*
X143845238Y-76607142D01*
X143892857Y-76511904D01*
X143892857Y-76416666D01*
X143845238Y-76321428D01*
X143797619Y-76273809D01*
X143702380Y-76226190D01*
X143511904Y-76178571D01*
X143416666Y-76130952D01*
X143369047Y-76083333D01*
X143321428Y-75988095D01*
X143321428Y-75892857D01*
X143369047Y-75797619D01*
X143416666Y-75750000D01*
X143511904Y-75702380D01*
X143750000Y-75702380D01*
X143892857Y-75750000D01*
X145083333Y-76702380D02*
X145083333Y-75702380D01*
X145321428Y-75702380D01*
X145464285Y-75750000D01*
X145559523Y-75845238D01*
X145607142Y-75940476D01*
X145654761Y-76130952D01*
X145654761Y-76273809D01*
X145607142Y-76464285D01*
X145559523Y-76559523D01*
X145464285Y-76654761D01*
X145321428Y-76702380D01*
X145083333Y-76702380D01*
X146607142Y-76702380D02*
X146035714Y-76702380D01*
X146321428Y-76702380D02*
X146321428Y-75702380D01*
X146226190Y-75845238D01*
X146130952Y-75940476D01*
X146035714Y-75988095D01*
X147226190Y-75702380D02*
X147321428Y-75702380D01*
X147416666Y-75750000D01*
X147464285Y-75797619D01*
X147511904Y-75892857D01*
X147559523Y-76083333D01*
X147559523Y-76321428D01*
X147511904Y-76511904D01*
X147464285Y-76607142D01*
X147416666Y-76654761D01*
X147321428Y-76702380D01*
X147226190Y-76702380D01*
X147130952Y-76654761D01*
X147083333Y-76607142D01*
X147035714Y-76511904D01*
X146988095Y-76321428D01*
X146988095Y-76083333D01*
X147035714Y-75892857D01*
X147083333Y-75797619D01*
X147130952Y-75750000D01*
X147226190Y-75702380D01*
X116142857Y-76702380D02*
X116142857Y-75702380D01*
X116619047Y-76702380D02*
X116619047Y-75702380D01*
X117190476Y-76702380D01*
X117190476Y-75702380D01*
X117523809Y-75702380D02*
X118095238Y-75702380D01*
X117809523Y-76702380D02*
X117809523Y-75702380D01*
X119190476Y-76702380D02*
X119190476Y-75702380D01*
X119428571Y-75702380D01*
X119571428Y-75750000D01*
X119666666Y-75845238D01*
X119714285Y-75940476D01*
X119761904Y-76130952D01*
X119761904Y-76273809D01*
X119714285Y-76464285D01*
X119666666Y-76559523D01*
X119571428Y-76654761D01*
X119428571Y-76702380D01*
X119190476Y-76702380D01*
X120142857Y-75797619D02*
X120190476Y-75750000D01*
X120285714Y-75702380D01*
X120523809Y-75702380D01*
X120619047Y-75750000D01*
X120666666Y-75797619D01*
X120714285Y-75892857D01*
X120714285Y-75988095D01*
X120666666Y-76130952D01*
X120095238Y-76702380D01*
X120714285Y-76702380D01*
X123238095Y-76607142D02*
X123190476Y-76654761D01*
X123047619Y-76702380D01*
X122952380Y-76702380D01*
X122809523Y-76654761D01*
X122714285Y-76559523D01*
X122666666Y-76464285D01*
X122619047Y-76273809D01*
X122619047Y-76130952D01*
X122666666Y-75940476D01*
X122714285Y-75845238D01*
X122809523Y-75750000D01*
X122952380Y-75702380D01*
X123047619Y-75702380D01*
X123190476Y-75750000D01*
X123238095Y-75797619D01*
X123619047Y-76654761D02*
X123761904Y-76702380D01*
X124000000Y-76702380D01*
X124095238Y-76654761D01*
X124142857Y-76607142D01*
X124190476Y-76511904D01*
X124190476Y-76416666D01*
X124142857Y-76321428D01*
X124095238Y-76273809D01*
X124000000Y-76226190D01*
X123809523Y-76178571D01*
X123714285Y-76130952D01*
X123666666Y-76083333D01*
X123619047Y-75988095D01*
X123619047Y-75892857D01*
X123666666Y-75797619D01*
X123714285Y-75750000D01*
X123809523Y-75702380D01*
X124047619Y-75702380D01*
X124190476Y-75750000D01*
X125380952Y-76702380D02*
X125380952Y-75702380D01*
X125619047Y-75702380D01*
X125761904Y-75750000D01*
X125857142Y-75845238D01*
X125904761Y-75940476D01*
X125952380Y-76130952D01*
X125952380Y-76273809D01*
X125904761Y-76464285D01*
X125857142Y-76559523D01*
X125761904Y-76654761D01*
X125619047Y-76702380D01*
X125380952Y-76702380D01*
X126523809Y-76130952D02*
X126428571Y-76083333D01*
X126380952Y-76035714D01*
X126333333Y-75940476D01*
X126333333Y-75892857D01*
X126380952Y-75797619D01*
X126428571Y-75750000D01*
X126523809Y-75702380D01*
X126714285Y-75702380D01*
X126809523Y-75750000D01*
X126857142Y-75797619D01*
X126904761Y-75892857D01*
X126904761Y-75940476D01*
X126857142Y-76035714D01*
X126809523Y-76083333D01*
X126714285Y-76130952D01*
X126523809Y-76130952D01*
X126428571Y-76178571D01*
X126380952Y-76226190D01*
X126333333Y-76321428D01*
X126333333Y-76511904D01*
X126380952Y-76607142D01*
X126428571Y-76654761D01*
X126523809Y-76702380D01*
X126714285Y-76702380D01*
X126809523Y-76654761D01*
X126857142Y-76607142D01*
X126904761Y-76511904D01*
X126904761Y-76321428D01*
X126857142Y-76226190D01*
X126809523Y-76178571D01*
X126714285Y-76130952D01*
X179857142Y-112904761D02*
X179904761Y-112952380D01*
X179952380Y-113095238D01*
X179952380Y-113190476D01*
X179904761Y-113333333D01*
X179809523Y-113428571D01*
X179714285Y-113476190D01*
X179523809Y-113523809D01*
X179380952Y-113523809D01*
X179190476Y-113476190D01*
X179095238Y-113428571D01*
X179000000Y-113333333D01*
X178952380Y-113190476D01*
X178952380Y-113095238D01*
X179000000Y-112952380D01*
X179047619Y-112904761D01*
X179952380Y-112047619D02*
X179428571Y-112047619D01*
X179333333Y-112095238D01*
X179285714Y-112190476D01*
X179285714Y-112380952D01*
X179333333Y-112476190D01*
X179904761Y-112047619D02*
X179952380Y-112142857D01*
X179952380Y-112380952D01*
X179904761Y-112476190D01*
X179809523Y-112523809D01*
X179714285Y-112523809D01*
X179619047Y-112476190D01*
X179571428Y-112380952D01*
X179571428Y-112142857D01*
X179523809Y-112047619D01*
X179285714Y-111571428D02*
X179952380Y-111571428D01*
X179380952Y-111571428D02*
X179333333Y-111523809D01*
X179285714Y-111428571D01*
X179285714Y-111285714D01*
X179333333Y-111190476D01*
X179428571Y-111142857D01*
X179952380Y-111142857D01*
X179428571Y-109571428D02*
X179476190Y-109428571D01*
X179523809Y-109380952D01*
X179619047Y-109333333D01*
X179761904Y-109333333D01*
X179857142Y-109380952D01*
X179904761Y-109428571D01*
X179952380Y-109523809D01*
X179952380Y-109904761D01*
X178952380Y-109904761D01*
X178952380Y-109571428D01*
X179000000Y-109476190D01*
X179047619Y-109428571D01*
X179142857Y-109380952D01*
X179238095Y-109380952D01*
X179333333Y-109428571D01*
X179380952Y-109476190D01*
X179428571Y-109571428D01*
X179428571Y-109904761D01*
X179285714Y-108476190D02*
X179952380Y-108476190D01*
X179285714Y-108904761D02*
X179809523Y-108904761D01*
X179904761Y-108857142D01*
X179952380Y-108761904D01*
X179952380Y-108619047D01*
X179904761Y-108523809D01*
X179857142Y-108476190D01*
X179904761Y-108047619D02*
X179952380Y-107952380D01*
X179952380Y-107761904D01*
X179904761Y-107666666D01*
X179809523Y-107619047D01*
X179761904Y-107619047D01*
X179666666Y-107666666D01*
X179619047Y-107761904D01*
X179619047Y-107904761D01*
X179571428Y-108000000D01*
X179476190Y-108047619D01*
X179428571Y-108047619D01*
X179333333Y-108000000D01*
X179285714Y-107904761D01*
X179285714Y-107761904D01*
X179333333Y-107666666D01*
X179952380Y-106428571D02*
X178952380Y-106428571D01*
X179666666Y-106095238D01*
X178952380Y-105761904D01*
X179952380Y-105761904D01*
X179952380Y-105142857D02*
X179904761Y-105238095D01*
X179857142Y-105285714D01*
X179761904Y-105333333D01*
X179476190Y-105333333D01*
X179380952Y-105285714D01*
X179333333Y-105238095D01*
X179285714Y-105142857D01*
X179285714Y-105000000D01*
X179333333Y-104904761D01*
X179380952Y-104857142D01*
X179476190Y-104809523D01*
X179761904Y-104809523D01*
X179857142Y-104857142D01*
X179904761Y-104904761D01*
X179952380Y-105000000D01*
X179952380Y-105142857D01*
X179952380Y-103952380D02*
X178952380Y-103952380D01*
X179904761Y-103952380D02*
X179952380Y-104047619D01*
X179952380Y-104238095D01*
X179904761Y-104333333D01*
X179857142Y-104380952D01*
X179761904Y-104428571D01*
X179476190Y-104428571D01*
X179380952Y-104380952D01*
X179333333Y-104333333D01*
X179285714Y-104238095D01*
X179285714Y-104047619D01*
X179333333Y-103952380D01*
X179285714Y-103047619D02*
X179952380Y-103047619D01*
X179285714Y-103476190D02*
X179809523Y-103476190D01*
X179904761Y-103428571D01*
X179952380Y-103333333D01*
X179952380Y-103190476D01*
X179904761Y-103095238D01*
X179857142Y-103047619D01*
X179952380Y-102428571D02*
X179904761Y-102523809D01*
X179809523Y-102571428D01*
X178952380Y-102571428D01*
X179904761Y-101666666D02*
X179952380Y-101761904D01*
X179952380Y-101952380D01*
X179904761Y-102047619D01*
X179809523Y-102095238D01*
X179428571Y-102095238D01*
X179333333Y-102047619D01*
X179285714Y-101952380D01*
X179285714Y-101761904D01*
X179333333Y-101666666D01*
X179428571Y-101619047D01*
X179523809Y-101619047D01*
X179619047Y-102095238D01*
X179952380Y-100428571D02*
X178952380Y-100428571D01*
X179666666Y-100095238D01*
X178952380Y-99761904D01*
X179952380Y-99761904D01*
X179857142Y-98714285D02*
X179904761Y-98761904D01*
X179952380Y-98904761D01*
X179952380Y-99000000D01*
X179904761Y-99142857D01*
X179809523Y-99238095D01*
X179714285Y-99285714D01*
X179523809Y-99333333D01*
X179380952Y-99333333D01*
X179190476Y-99285714D01*
X179095238Y-99238095D01*
X179000000Y-99142857D01*
X178952380Y-99000000D01*
X178952380Y-98904761D01*
X179000000Y-98761904D01*
X179047619Y-98714285D01*
X179952380Y-98285714D02*
X178952380Y-98285714D01*
X178952380Y-97904761D01*
X179000000Y-97809523D01*
X179047619Y-97761904D01*
X179142857Y-97714285D01*
X179285714Y-97714285D01*
X179380952Y-97761904D01*
X179428571Y-97809523D01*
X179476190Y-97904761D01*
X179476190Y-98285714D01*
X179047619Y-97333333D02*
X179000000Y-97285714D01*
X178952380Y-97190476D01*
X178952380Y-96952380D01*
X179000000Y-96857142D01*
X179047619Y-96809523D01*
X179142857Y-96761904D01*
X179238095Y-96761904D01*
X179380952Y-96809523D01*
X179952380Y-97380952D01*
X179952380Y-96761904D01*
X178952380Y-95857142D02*
X178952380Y-96333333D01*
X179428571Y-96380952D01*
X179380952Y-96333333D01*
X179333333Y-96238095D01*
X179333333Y-96000000D01*
X179380952Y-95904761D01*
X179428571Y-95857142D01*
X179523809Y-95809523D01*
X179761904Y-95809523D01*
X179857142Y-95857142D01*
X179904761Y-95904761D01*
X179952380Y-96000000D01*
X179952380Y-96238095D01*
X179904761Y-96333333D01*
X179857142Y-96380952D01*
X179952380Y-94857142D02*
X179952380Y-95428571D01*
X179952380Y-95142857D02*
X178952380Y-95142857D01*
X179095238Y-95238095D01*
X179190476Y-95333333D01*
X179238095Y-95428571D01*
X178952380Y-93952380D02*
X178952380Y-94428571D01*
X179428571Y-94476190D01*
X179380952Y-94428571D01*
X179333333Y-94333333D01*
X179333333Y-94095238D01*
X179380952Y-94000000D01*
X179428571Y-93952380D01*
X179523809Y-93904761D01*
X179761904Y-93904761D01*
X179857142Y-93952380D01*
X179904761Y-94000000D01*
X179952380Y-94095238D01*
X179952380Y-94333333D01*
X179904761Y-94428571D01*
X179857142Y-94476190D01*
X179952380Y-92285714D02*
X179428571Y-92285714D01*
X179333333Y-92333333D01*
X179285714Y-92428571D01*
X179285714Y-92619047D01*
X179333333Y-92714285D01*
X179904761Y-92285714D02*
X179952380Y-92380952D01*
X179952380Y-92619047D01*
X179904761Y-92714285D01*
X179809523Y-92761904D01*
X179714285Y-92761904D01*
X179619047Y-92714285D01*
X179571428Y-92619047D01*
X179571428Y-92380952D01*
X179523809Y-92285714D01*
X179285714Y-91809523D02*
X179952380Y-91809523D01*
X179380952Y-91809523D02*
X179333333Y-91761904D01*
X179285714Y-91666666D01*
X179285714Y-91523809D01*
X179333333Y-91428571D01*
X179428571Y-91380952D01*
X179952380Y-91380952D01*
X179952380Y-90476190D02*
X178952380Y-90476190D01*
X179904761Y-90476190D02*
X179952380Y-90571428D01*
X179952380Y-90761904D01*
X179904761Y-90857142D01*
X179857142Y-90904761D01*
X179761904Y-90952380D01*
X179476190Y-90952380D01*
X179380952Y-90904761D01*
X179333333Y-90857142D01*
X179285714Y-90761904D01*
X179285714Y-90571428D01*
X179333333Y-90476190D01*
X178952380Y-89380952D02*
X178952380Y-88809523D01*
X179952380Y-89095238D02*
X178952380Y-89095238D01*
X178952380Y-88190476D02*
X179666666Y-88190476D01*
X179809523Y-88238095D01*
X179904761Y-88333333D01*
X179952380Y-88476190D01*
X179952380Y-88571428D01*
X179666666Y-87761904D02*
X179666666Y-87285714D01*
X179952380Y-87857142D02*
X178952380Y-87523809D01*
X179952380Y-87190476D01*
X179952380Y-86333333D02*
X179952380Y-86904761D01*
X179952380Y-86619047D02*
X178952380Y-86619047D01*
X179095238Y-86714285D01*
X179190476Y-86809523D01*
X179238095Y-86904761D01*
X178952380Y-85714285D02*
X178952380Y-85619047D01*
X179000000Y-85523809D01*
X179047619Y-85476190D01*
X179142857Y-85428571D01*
X179333333Y-85380952D01*
X179571428Y-85380952D01*
X179761904Y-85428571D01*
X179857142Y-85476190D01*
X179904761Y-85523809D01*
X179952380Y-85619047D01*
X179952380Y-85714285D01*
X179904761Y-85809523D01*
X179857142Y-85857142D01*
X179761904Y-85904761D01*
X179571428Y-85952380D01*
X179333333Y-85952380D01*
X179142857Y-85904761D01*
X179047619Y-85857142D01*
X179000000Y-85809523D01*
X178952380Y-85714285D01*
X178952380Y-84476190D02*
X178952380Y-84952380D01*
X179428571Y-85000000D01*
X179380952Y-84952380D01*
X179333333Y-84857142D01*
X179333333Y-84619047D01*
X179380952Y-84523809D01*
X179428571Y-84476190D01*
X179523809Y-84428571D01*
X179761904Y-84428571D01*
X179857142Y-84476190D01*
X179904761Y-84523809D01*
X179952380Y-84619047D01*
X179952380Y-84857142D01*
X179904761Y-84952380D01*
X179857142Y-85000000D01*
X178952380Y-83809523D02*
X178952380Y-83714285D01*
X179000000Y-83619047D01*
X179047619Y-83571428D01*
X179142857Y-83523809D01*
X179333333Y-83476190D01*
X179571428Y-83476190D01*
X179761904Y-83523809D01*
X179857142Y-83571428D01*
X179904761Y-83619047D01*
X179952380Y-83714285D01*
X179952380Y-83809523D01*
X179904761Y-83904761D01*
X179857142Y-83952380D01*
X179761904Y-84000000D01*
X179571428Y-84047619D01*
X179333333Y-84047619D01*
X179142857Y-84000000D01*
X179047619Y-83952380D01*
X179000000Y-83904761D01*
X178952380Y-83809523D01*
X130857142Y-112904761D02*
X130904761Y-112952380D01*
X130952380Y-113095238D01*
X130952380Y-113190476D01*
X130904761Y-113333333D01*
X130809523Y-113428571D01*
X130714285Y-113476190D01*
X130523809Y-113523809D01*
X130380952Y-113523809D01*
X130190476Y-113476190D01*
X130095238Y-113428571D01*
X130000000Y-113333333D01*
X129952380Y-113190476D01*
X129952380Y-113095238D01*
X130000000Y-112952380D01*
X130047619Y-112904761D01*
X130952380Y-112047619D02*
X130428571Y-112047619D01*
X130333333Y-112095238D01*
X130285714Y-112190476D01*
X130285714Y-112380952D01*
X130333333Y-112476190D01*
X130904761Y-112047619D02*
X130952380Y-112142857D01*
X130952380Y-112380952D01*
X130904761Y-112476190D01*
X130809523Y-112523809D01*
X130714285Y-112523809D01*
X130619047Y-112476190D01*
X130571428Y-112380952D01*
X130571428Y-112142857D01*
X130523809Y-112047619D01*
X130285714Y-111571428D02*
X130952380Y-111571428D01*
X130380952Y-111571428D02*
X130333333Y-111523809D01*
X130285714Y-111428571D01*
X130285714Y-111285714D01*
X130333333Y-111190476D01*
X130428571Y-111142857D01*
X130952380Y-111142857D01*
X130428571Y-109571428D02*
X130476190Y-109428571D01*
X130523809Y-109380952D01*
X130619047Y-109333333D01*
X130761904Y-109333333D01*
X130857142Y-109380952D01*
X130904761Y-109428571D01*
X130952380Y-109523809D01*
X130952380Y-109904761D01*
X129952380Y-109904761D01*
X129952380Y-109571428D01*
X130000000Y-109476190D01*
X130047619Y-109428571D01*
X130142857Y-109380952D01*
X130238095Y-109380952D01*
X130333333Y-109428571D01*
X130380952Y-109476190D01*
X130428571Y-109571428D01*
X130428571Y-109904761D01*
X130285714Y-108476190D02*
X130952380Y-108476190D01*
X130285714Y-108904761D02*
X130809523Y-108904761D01*
X130904761Y-108857142D01*
X130952380Y-108761904D01*
X130952380Y-108619047D01*
X130904761Y-108523809D01*
X130857142Y-108476190D01*
X130904761Y-108047619D02*
X130952380Y-107952380D01*
X130952380Y-107761904D01*
X130904761Y-107666666D01*
X130809523Y-107619047D01*
X130761904Y-107619047D01*
X130666666Y-107666666D01*
X130619047Y-107761904D01*
X130619047Y-107904761D01*
X130571428Y-108000000D01*
X130476190Y-108047619D01*
X130428571Y-108047619D01*
X130333333Y-108000000D01*
X130285714Y-107904761D01*
X130285714Y-107761904D01*
X130333333Y-107666666D01*
X130952380Y-106428571D02*
X129952380Y-106428571D01*
X130666666Y-106095238D01*
X129952380Y-105761904D01*
X130952380Y-105761904D01*
X130952380Y-105142857D02*
X130904761Y-105238095D01*
X130857142Y-105285714D01*
X130761904Y-105333333D01*
X130476190Y-105333333D01*
X130380952Y-105285714D01*
X130333333Y-105238095D01*
X130285714Y-105142857D01*
X130285714Y-105000000D01*
X130333333Y-104904761D01*
X130380952Y-104857142D01*
X130476190Y-104809523D01*
X130761904Y-104809523D01*
X130857142Y-104857142D01*
X130904761Y-104904761D01*
X130952380Y-105000000D01*
X130952380Y-105142857D01*
X130952380Y-103952380D02*
X129952380Y-103952380D01*
X130904761Y-103952380D02*
X130952380Y-104047619D01*
X130952380Y-104238095D01*
X130904761Y-104333333D01*
X130857142Y-104380952D01*
X130761904Y-104428571D01*
X130476190Y-104428571D01*
X130380952Y-104380952D01*
X130333333Y-104333333D01*
X130285714Y-104238095D01*
X130285714Y-104047619D01*
X130333333Y-103952380D01*
X130285714Y-103047619D02*
X130952380Y-103047619D01*
X130285714Y-103476190D02*
X130809523Y-103476190D01*
X130904761Y-103428571D01*
X130952380Y-103333333D01*
X130952380Y-103190476D01*
X130904761Y-103095238D01*
X130857142Y-103047619D01*
X130952380Y-102428571D02*
X130904761Y-102523809D01*
X130809523Y-102571428D01*
X129952380Y-102571428D01*
X130904761Y-101666666D02*
X130952380Y-101761904D01*
X130952380Y-101952380D01*
X130904761Y-102047619D01*
X130809523Y-102095238D01*
X130428571Y-102095238D01*
X130333333Y-102047619D01*
X130285714Y-101952380D01*
X130285714Y-101761904D01*
X130333333Y-101666666D01*
X130428571Y-101619047D01*
X130523809Y-101619047D01*
X130619047Y-102095238D01*
X130952380Y-100428571D02*
X129952380Y-100428571D01*
X130666666Y-100095238D01*
X129952380Y-99761904D01*
X130952380Y-99761904D01*
X130857142Y-98714285D02*
X130904761Y-98761904D01*
X130952380Y-98904761D01*
X130952380Y-99000000D01*
X130904761Y-99142857D01*
X130809523Y-99238095D01*
X130714285Y-99285714D01*
X130523809Y-99333333D01*
X130380952Y-99333333D01*
X130190476Y-99285714D01*
X130095238Y-99238095D01*
X130000000Y-99142857D01*
X129952380Y-99000000D01*
X129952380Y-98904761D01*
X130000000Y-98761904D01*
X130047619Y-98714285D01*
X130952380Y-98285714D02*
X129952380Y-98285714D01*
X129952380Y-97904761D01*
X130000000Y-97809523D01*
X130047619Y-97761904D01*
X130142857Y-97714285D01*
X130285714Y-97714285D01*
X130380952Y-97761904D01*
X130428571Y-97809523D01*
X130476190Y-97904761D01*
X130476190Y-98285714D01*
X130047619Y-97333333D02*
X130000000Y-97285714D01*
X129952380Y-97190476D01*
X129952380Y-96952380D01*
X130000000Y-96857142D01*
X130047619Y-96809523D01*
X130142857Y-96761904D01*
X130238095Y-96761904D01*
X130380952Y-96809523D01*
X130952380Y-97380952D01*
X130952380Y-96761904D01*
X129952380Y-95857142D02*
X129952380Y-96333333D01*
X130428571Y-96380952D01*
X130380952Y-96333333D01*
X130333333Y-96238095D01*
X130333333Y-96000000D01*
X130380952Y-95904761D01*
X130428571Y-95857142D01*
X130523809Y-95809523D01*
X130761904Y-95809523D01*
X130857142Y-95857142D01*
X130904761Y-95904761D01*
X130952380Y-96000000D01*
X130952380Y-96238095D01*
X130904761Y-96333333D01*
X130857142Y-96380952D01*
X130952380Y-94857142D02*
X130952380Y-95428571D01*
X130952380Y-95142857D02*
X129952380Y-95142857D01*
X130095238Y-95238095D01*
X130190476Y-95333333D01*
X130238095Y-95428571D01*
X129952380Y-93952380D02*
X129952380Y-94428571D01*
X130428571Y-94476190D01*
X130380952Y-94428571D01*
X130333333Y-94333333D01*
X130333333Y-94095238D01*
X130380952Y-94000000D01*
X130428571Y-93952380D01*
X130523809Y-93904761D01*
X130761904Y-93904761D01*
X130857142Y-93952380D01*
X130904761Y-94000000D01*
X130952380Y-94095238D01*
X130952380Y-94333333D01*
X130904761Y-94428571D01*
X130857142Y-94476190D01*
X130952380Y-92285714D02*
X130428571Y-92285714D01*
X130333333Y-92333333D01*
X130285714Y-92428571D01*
X130285714Y-92619047D01*
X130333333Y-92714285D01*
X130904761Y-92285714D02*
X130952380Y-92380952D01*
X130952380Y-92619047D01*
X130904761Y-92714285D01*
X130809523Y-92761904D01*
X130714285Y-92761904D01*
X130619047Y-92714285D01*
X130571428Y-92619047D01*
X130571428Y-92380952D01*
X130523809Y-92285714D01*
X130285714Y-91809523D02*
X130952380Y-91809523D01*
X130380952Y-91809523D02*
X130333333Y-91761904D01*
X130285714Y-91666666D01*
X130285714Y-91523809D01*
X130333333Y-91428571D01*
X130428571Y-91380952D01*
X130952380Y-91380952D01*
X130952380Y-90476190D02*
X129952380Y-90476190D01*
X130904761Y-90476190D02*
X130952380Y-90571428D01*
X130952380Y-90761904D01*
X130904761Y-90857142D01*
X130857142Y-90904761D01*
X130761904Y-90952380D01*
X130476190Y-90952380D01*
X130380952Y-90904761D01*
X130333333Y-90857142D01*
X130285714Y-90761904D01*
X130285714Y-90571428D01*
X130333333Y-90476190D01*
X129952380Y-89380952D02*
X129952380Y-88809523D01*
X130952380Y-89095238D02*
X129952380Y-89095238D01*
X129952380Y-88190476D02*
X130666666Y-88190476D01*
X130809523Y-88238095D01*
X130904761Y-88333333D01*
X130952380Y-88476190D01*
X130952380Y-88571428D01*
X130666666Y-87761904D02*
X130666666Y-87285714D01*
X130952380Y-87857142D02*
X129952380Y-87523809D01*
X130952380Y-87190476D01*
X130952380Y-86333333D02*
X130952380Y-86904761D01*
X130952380Y-86619047D02*
X129952380Y-86619047D01*
X130095238Y-86714285D01*
X130190476Y-86809523D01*
X130238095Y-86904761D01*
X129952380Y-85714285D02*
X129952380Y-85619047D01*
X130000000Y-85523809D01*
X130047619Y-85476190D01*
X130142857Y-85428571D01*
X130333333Y-85380952D01*
X130571428Y-85380952D01*
X130761904Y-85428571D01*
X130857142Y-85476190D01*
X130904761Y-85523809D01*
X130952380Y-85619047D01*
X130952380Y-85714285D01*
X130904761Y-85809523D01*
X130857142Y-85857142D01*
X130761904Y-85904761D01*
X130571428Y-85952380D01*
X130333333Y-85952380D01*
X130142857Y-85904761D01*
X130047619Y-85857142D01*
X130000000Y-85809523D01*
X129952380Y-85714285D01*
X129952380Y-84476190D02*
X129952380Y-84952380D01*
X130428571Y-85000000D01*
X130380952Y-84952380D01*
X130333333Y-84857142D01*
X130333333Y-84619047D01*
X130380952Y-84523809D01*
X130428571Y-84476190D01*
X130523809Y-84428571D01*
X130761904Y-84428571D01*
X130857142Y-84476190D01*
X130904761Y-84523809D01*
X130952380Y-84619047D01*
X130952380Y-84857142D01*
X130904761Y-84952380D01*
X130857142Y-85000000D01*
X129952380Y-83809523D02*
X129952380Y-83714285D01*
X130000000Y-83619047D01*
X130047619Y-83571428D01*
X130142857Y-83523809D01*
X130333333Y-83476190D01*
X130571428Y-83476190D01*
X130761904Y-83523809D01*
X130857142Y-83571428D01*
X130904761Y-83619047D01*
X130952380Y-83714285D01*
X130952380Y-83809523D01*
X130904761Y-83904761D01*
X130857142Y-83952380D01*
X130761904Y-84000000D01*
X130571428Y-84047619D01*
X130333333Y-84047619D01*
X130142857Y-84000000D01*
X130047619Y-83952380D01*
X130000000Y-83904761D01*
X129952380Y-83809523D01*
X102107142Y-112904761D02*
X102154761Y-112952380D01*
X102202380Y-113095238D01*
X102202380Y-113190476D01*
X102154761Y-113333333D01*
X102059523Y-113428571D01*
X101964285Y-113476190D01*
X101773809Y-113523809D01*
X101630952Y-113523809D01*
X101440476Y-113476190D01*
X101345238Y-113428571D01*
X101250000Y-113333333D01*
X101202380Y-113190476D01*
X101202380Y-113095238D01*
X101250000Y-112952380D01*
X101297619Y-112904761D01*
X102202380Y-112047619D02*
X101678571Y-112047619D01*
X101583333Y-112095238D01*
X101535714Y-112190476D01*
X101535714Y-112380952D01*
X101583333Y-112476190D01*
X102154761Y-112047619D02*
X102202380Y-112142857D01*
X102202380Y-112380952D01*
X102154761Y-112476190D01*
X102059523Y-112523809D01*
X101964285Y-112523809D01*
X101869047Y-112476190D01*
X101821428Y-112380952D01*
X101821428Y-112142857D01*
X101773809Y-112047619D01*
X101535714Y-111571428D02*
X102202380Y-111571428D01*
X101630952Y-111571428D02*
X101583333Y-111523809D01*
X101535714Y-111428571D01*
X101535714Y-111285714D01*
X101583333Y-111190476D01*
X101678571Y-111142857D01*
X102202380Y-111142857D01*
X101678571Y-109571428D02*
X101726190Y-109428571D01*
X101773809Y-109380952D01*
X101869047Y-109333333D01*
X102011904Y-109333333D01*
X102107142Y-109380952D01*
X102154761Y-109428571D01*
X102202380Y-109523809D01*
X102202380Y-109904761D01*
X101202380Y-109904761D01*
X101202380Y-109571428D01*
X101250000Y-109476190D01*
X101297619Y-109428571D01*
X101392857Y-109380952D01*
X101488095Y-109380952D01*
X101583333Y-109428571D01*
X101630952Y-109476190D01*
X101678571Y-109571428D01*
X101678571Y-109904761D01*
X101535714Y-108476190D02*
X102202380Y-108476190D01*
X101535714Y-108904761D02*
X102059523Y-108904761D01*
X102154761Y-108857142D01*
X102202380Y-108761904D01*
X102202380Y-108619047D01*
X102154761Y-108523809D01*
X102107142Y-108476190D01*
X102154761Y-108047619D02*
X102202380Y-107952380D01*
X102202380Y-107761904D01*
X102154761Y-107666666D01*
X102059523Y-107619047D01*
X102011904Y-107619047D01*
X101916666Y-107666666D01*
X101869047Y-107761904D01*
X101869047Y-107904761D01*
X101821428Y-108000000D01*
X101726190Y-108047619D01*
X101678571Y-108047619D01*
X101583333Y-108000000D01*
X101535714Y-107904761D01*
X101535714Y-107761904D01*
X101583333Y-107666666D01*
X102202380Y-106428571D02*
X101202380Y-106428571D01*
X101916666Y-106095238D01*
X101202380Y-105761904D01*
X102202380Y-105761904D01*
X102202380Y-105142857D02*
X102154761Y-105238095D01*
X102107142Y-105285714D01*
X102011904Y-105333333D01*
X101726190Y-105333333D01*
X101630952Y-105285714D01*
X101583333Y-105238095D01*
X101535714Y-105142857D01*
X101535714Y-105000000D01*
X101583333Y-104904761D01*
X101630952Y-104857142D01*
X101726190Y-104809523D01*
X102011904Y-104809523D01*
X102107142Y-104857142D01*
X102154761Y-104904761D01*
X102202380Y-105000000D01*
X102202380Y-105142857D01*
X102202380Y-103952380D02*
X101202380Y-103952380D01*
X102154761Y-103952380D02*
X102202380Y-104047619D01*
X102202380Y-104238095D01*
X102154761Y-104333333D01*
X102107142Y-104380952D01*
X102011904Y-104428571D01*
X101726190Y-104428571D01*
X101630952Y-104380952D01*
X101583333Y-104333333D01*
X101535714Y-104238095D01*
X101535714Y-104047619D01*
X101583333Y-103952380D01*
X101535714Y-103047619D02*
X102202380Y-103047619D01*
X101535714Y-103476190D02*
X102059523Y-103476190D01*
X102154761Y-103428571D01*
X102202380Y-103333333D01*
X102202380Y-103190476D01*
X102154761Y-103095238D01*
X102107142Y-103047619D01*
X102202380Y-102428571D02*
X102154761Y-102523809D01*
X102059523Y-102571428D01*
X101202380Y-102571428D01*
X102154761Y-101666666D02*
X102202380Y-101761904D01*
X102202380Y-101952380D01*
X102154761Y-102047619D01*
X102059523Y-102095238D01*
X101678571Y-102095238D01*
X101583333Y-102047619D01*
X101535714Y-101952380D01*
X101535714Y-101761904D01*
X101583333Y-101666666D01*
X101678571Y-101619047D01*
X101773809Y-101619047D01*
X101869047Y-102095238D01*
X102202380Y-100428571D02*
X101202380Y-100428571D01*
X101916666Y-100095238D01*
X101202380Y-99761904D01*
X102202380Y-99761904D01*
X102107142Y-98714285D02*
X102154761Y-98761904D01*
X102202380Y-98904761D01*
X102202380Y-99000000D01*
X102154761Y-99142857D01*
X102059523Y-99238095D01*
X101964285Y-99285714D01*
X101773809Y-99333333D01*
X101630952Y-99333333D01*
X101440476Y-99285714D01*
X101345238Y-99238095D01*
X101250000Y-99142857D01*
X101202380Y-99000000D01*
X101202380Y-98904761D01*
X101250000Y-98761904D01*
X101297619Y-98714285D01*
X102202380Y-98285714D02*
X101202380Y-98285714D01*
X101202380Y-97904761D01*
X101250000Y-97809523D01*
X101297619Y-97761904D01*
X101392857Y-97714285D01*
X101535714Y-97714285D01*
X101630952Y-97761904D01*
X101678571Y-97809523D01*
X101726190Y-97904761D01*
X101726190Y-98285714D01*
X101297619Y-97333333D02*
X101250000Y-97285714D01*
X101202380Y-97190476D01*
X101202380Y-96952380D01*
X101250000Y-96857142D01*
X101297619Y-96809523D01*
X101392857Y-96761904D01*
X101488095Y-96761904D01*
X101630952Y-96809523D01*
X102202380Y-97380952D01*
X102202380Y-96761904D01*
X101202380Y-95857142D02*
X101202380Y-96333333D01*
X101678571Y-96380952D01*
X101630952Y-96333333D01*
X101583333Y-96238095D01*
X101583333Y-96000000D01*
X101630952Y-95904761D01*
X101678571Y-95857142D01*
X101773809Y-95809523D01*
X102011904Y-95809523D01*
X102107142Y-95857142D01*
X102154761Y-95904761D01*
X102202380Y-96000000D01*
X102202380Y-96238095D01*
X102154761Y-96333333D01*
X102107142Y-96380952D01*
X102202380Y-94857142D02*
X102202380Y-95428571D01*
X102202380Y-95142857D02*
X101202380Y-95142857D01*
X101345238Y-95238095D01*
X101440476Y-95333333D01*
X101488095Y-95428571D01*
X101202380Y-93952380D02*
X101202380Y-94428571D01*
X101678571Y-94476190D01*
X101630952Y-94428571D01*
X101583333Y-94333333D01*
X101583333Y-94095238D01*
X101630952Y-94000000D01*
X101678571Y-93952380D01*
X101773809Y-93904761D01*
X102011904Y-93904761D01*
X102107142Y-93952380D01*
X102154761Y-94000000D01*
X102202380Y-94095238D01*
X102202380Y-94333333D01*
X102154761Y-94428571D01*
X102107142Y-94476190D01*
X102202380Y-92285714D02*
X101678571Y-92285714D01*
X101583333Y-92333333D01*
X101535714Y-92428571D01*
X101535714Y-92619047D01*
X101583333Y-92714285D01*
X102154761Y-92285714D02*
X102202380Y-92380952D01*
X102202380Y-92619047D01*
X102154761Y-92714285D01*
X102059523Y-92761904D01*
X101964285Y-92761904D01*
X101869047Y-92714285D01*
X101821428Y-92619047D01*
X101821428Y-92380952D01*
X101773809Y-92285714D01*
X101535714Y-91809523D02*
X102202380Y-91809523D01*
X101630952Y-91809523D02*
X101583333Y-91761904D01*
X101535714Y-91666666D01*
X101535714Y-91523809D01*
X101583333Y-91428571D01*
X101678571Y-91380952D01*
X102202380Y-91380952D01*
X102202380Y-90476190D02*
X101202380Y-90476190D01*
X102154761Y-90476190D02*
X102202380Y-90571428D01*
X102202380Y-90761904D01*
X102154761Y-90857142D01*
X102107142Y-90904761D01*
X102011904Y-90952380D01*
X101726190Y-90952380D01*
X101630952Y-90904761D01*
X101583333Y-90857142D01*
X101535714Y-90761904D01*
X101535714Y-90571428D01*
X101583333Y-90476190D01*
X101202380Y-89380952D02*
X101202380Y-88809523D01*
X102202380Y-89095238D02*
X101202380Y-89095238D01*
X101202380Y-88190476D02*
X101916666Y-88190476D01*
X102059523Y-88238095D01*
X102154761Y-88333333D01*
X102202380Y-88476190D01*
X102202380Y-88571428D01*
X101916666Y-87761904D02*
X101916666Y-87285714D01*
X102202380Y-87857142D02*
X101202380Y-87523809D01*
X102202380Y-87190476D01*
X102202380Y-86333333D02*
X102202380Y-86904761D01*
X102202380Y-86619047D02*
X101202380Y-86619047D01*
X101345238Y-86714285D01*
X101440476Y-86809523D01*
X101488095Y-86904761D01*
X101202380Y-85714285D02*
X101202380Y-85619047D01*
X101250000Y-85523809D01*
X101297619Y-85476190D01*
X101392857Y-85428571D01*
X101583333Y-85380952D01*
X101821428Y-85380952D01*
X102011904Y-85428571D01*
X102107142Y-85476190D01*
X102154761Y-85523809D01*
X102202380Y-85619047D01*
X102202380Y-85714285D01*
X102154761Y-85809523D01*
X102107142Y-85857142D01*
X102011904Y-85904761D01*
X101821428Y-85952380D01*
X101583333Y-85952380D01*
X101392857Y-85904761D01*
X101297619Y-85857142D01*
X101250000Y-85809523D01*
X101202380Y-85714285D01*
X101202380Y-84476190D02*
X101202380Y-84952380D01*
X101678571Y-85000000D01*
X101630952Y-84952380D01*
X101583333Y-84857142D01*
X101583333Y-84619047D01*
X101630952Y-84523809D01*
X101678571Y-84476190D01*
X101773809Y-84428571D01*
X102011904Y-84428571D01*
X102107142Y-84476190D01*
X102154761Y-84523809D01*
X102202380Y-84619047D01*
X102202380Y-84857142D01*
X102154761Y-84952380D01*
X102107142Y-85000000D01*
X101202380Y-83809523D02*
X101202380Y-83714285D01*
X101250000Y-83619047D01*
X101297619Y-83571428D01*
X101392857Y-83523809D01*
X101583333Y-83476190D01*
X101821428Y-83476190D01*
X102011904Y-83523809D01*
X102107142Y-83571428D01*
X102154761Y-83619047D01*
X102202380Y-83714285D01*
X102202380Y-83809523D01*
X102154761Y-83904761D01*
X102107142Y-83952380D01*
X102011904Y-84000000D01*
X101821428Y-84047619D01*
X101583333Y-84047619D01*
X101392857Y-84000000D01*
X101297619Y-83952380D01*
X101250000Y-83904761D01*
X101202380Y-83809523D01*
X166666666Y-102119047D02*
X166666666Y-101642857D01*
X166952380Y-102214285D02*
X165952380Y-101880952D01*
X166952380Y-101547619D01*
X166952380Y-101214285D02*
X166285714Y-101214285D01*
X166476190Y-101214285D02*
X166380952Y-101166666D01*
X166333333Y-101119047D01*
X166285714Y-101023809D01*
X166285714Y-100928571D01*
X166952380Y-100166666D02*
X165952380Y-100166666D01*
X166904761Y-100166666D02*
X166952380Y-100261904D01*
X166952380Y-100452380D01*
X166904761Y-100547619D01*
X166857142Y-100595238D01*
X166761904Y-100642857D01*
X166476190Y-100642857D01*
X166380952Y-100595238D01*
X166333333Y-100547619D01*
X166285714Y-100452380D01*
X166285714Y-100261904D01*
X166333333Y-100166666D01*
X166285714Y-99261904D02*
X166952380Y-99261904D01*
X166285714Y-99690476D02*
X166809523Y-99690476D01*
X166904761Y-99642857D01*
X166952380Y-99547619D01*
X166952380Y-99404761D01*
X166904761Y-99309523D01*
X166857142Y-99261904D01*
X166952380Y-98785714D02*
X166285714Y-98785714D01*
X165952380Y-98785714D02*
X166000000Y-98833333D01*
X166047619Y-98785714D01*
X166000000Y-98738095D01*
X165952380Y-98785714D01*
X166047619Y-98785714D01*
X166285714Y-98309523D02*
X166952380Y-98309523D01*
X166380952Y-98309523D02*
X166333333Y-98261904D01*
X166285714Y-98166666D01*
X166285714Y-98023809D01*
X166333333Y-97928571D01*
X166428571Y-97880952D01*
X166952380Y-97880952D01*
X166952380Y-97261904D02*
X166904761Y-97357142D01*
X166857142Y-97404761D01*
X166761904Y-97452380D01*
X166476190Y-97452380D01*
X166380952Y-97404761D01*
X166333333Y-97357142D01*
X166285714Y-97261904D01*
X166285714Y-97119047D01*
X166333333Y-97023809D01*
X166380952Y-96976190D01*
X166476190Y-96928571D01*
X166761904Y-96928571D01*
X166857142Y-96976190D01*
X166904761Y-97023809D01*
X166952380Y-97119047D01*
X166952380Y-97261904D01*
X166952380Y-95738095D02*
X165952380Y-95738095D01*
X165952380Y-95357142D01*
X166000000Y-95261904D01*
X166047619Y-95214285D01*
X166142857Y-95166666D01*
X166285714Y-95166666D01*
X166380952Y-95214285D01*
X166428571Y-95261904D01*
X166476190Y-95357142D01*
X166476190Y-95738095D01*
X166952380Y-94738095D02*
X166285714Y-94738095D01*
X166476190Y-94738095D02*
X166380952Y-94690476D01*
X166333333Y-94642857D01*
X166285714Y-94547619D01*
X166285714Y-94452380D01*
X166952380Y-93976190D02*
X166904761Y-94071428D01*
X166857142Y-94119047D01*
X166761904Y-94166666D01*
X166476190Y-94166666D01*
X166380952Y-94119047D01*
X166333333Y-94071428D01*
X166285714Y-93976190D01*
X166285714Y-93833333D01*
X166333333Y-93738095D01*
X166380952Y-93690476D01*
X166476190Y-93642857D01*
X166761904Y-93642857D01*
X166857142Y-93690476D01*
X166904761Y-93738095D01*
X166952380Y-93833333D01*
X166952380Y-93976190D01*
X166952380Y-92452380D02*
X165952380Y-92452380D01*
X166666666Y-92119047D01*
X165952380Y-91785714D01*
X166952380Y-91785714D01*
X166952380Y-91309523D02*
X166285714Y-91309523D01*
X165952380Y-91309523D02*
X166000000Y-91357142D01*
X166047619Y-91309523D01*
X166000000Y-91261904D01*
X165952380Y-91309523D01*
X166047619Y-91309523D01*
X166285714Y-90833333D02*
X166952380Y-90833333D01*
X166380952Y-90833333D02*
X166333333Y-90785714D01*
X166285714Y-90690476D01*
X166285714Y-90547619D01*
X166333333Y-90452380D01*
X166428571Y-90404761D01*
X166952380Y-90404761D01*
X166952380Y-89928571D02*
X166285714Y-89928571D01*
X165952380Y-89928571D02*
X166000000Y-89976190D01*
X166047619Y-89928571D01*
X166000000Y-89880952D01*
X165952380Y-89928571D01*
X166047619Y-89928571D01*
X164571428Y-80202380D02*
X164000000Y-80202380D01*
X164285714Y-80202380D02*
X164285714Y-79202380D01*
X164190476Y-79345238D01*
X164095238Y-79440476D01*
X164000000Y-79488095D01*
X165190476Y-79202380D02*
X165285714Y-79202380D01*
X165380952Y-79250000D01*
X165428571Y-79297619D01*
X165476190Y-79392857D01*
X165523809Y-79583333D01*
X165523809Y-79821428D01*
X165476190Y-80011904D01*
X165428571Y-80107142D01*
X165380952Y-80154761D01*
X165285714Y-80202380D01*
X165190476Y-80202380D01*
X165095238Y-80154761D01*
X165047619Y-80107142D01*
X165000000Y-80011904D01*
X164952380Y-79821428D01*
X164952380Y-79583333D01*
X165000000Y-79392857D01*
X165047619Y-79297619D01*
X165095238Y-79250000D01*
X165190476Y-79202380D01*
X166142857Y-79202380D02*
X166238095Y-79202380D01*
X166333333Y-79250000D01*
X166380952Y-79297619D01*
X166428571Y-79392857D01*
X166476190Y-79583333D01*
X166476190Y-79821428D01*
X166428571Y-80011904D01*
X166380952Y-80107142D01*
X166333333Y-80154761D01*
X166238095Y-80202380D01*
X166142857Y-80202380D01*
X166047619Y-80154761D01*
X166000000Y-80107142D01*
X165952380Y-80011904D01*
X165904761Y-79821428D01*
X165904761Y-79583333D01*
X165952380Y-79392857D01*
X166000000Y-79297619D01*
X166047619Y-79250000D01*
X166142857Y-79202380D01*
X167666666Y-79535714D02*
X167666666Y-80202380D01*
X167666666Y-79630952D02*
X167714285Y-79583333D01*
X167809523Y-79535714D01*
X167952380Y-79535714D01*
X168047619Y-79583333D01*
X168095238Y-79678571D01*
X168095238Y-80202380D01*
X168904761Y-79678571D02*
X168571428Y-79678571D01*
X168571428Y-80202380D02*
X168571428Y-79202380D01*
X169047619Y-79202380D01*
X123821428Y-121452380D02*
X123250000Y-121452380D01*
X123535714Y-121452380D02*
X123535714Y-120452380D01*
X123440476Y-120595238D01*
X123345238Y-120690476D01*
X123250000Y-120738095D01*
X124440476Y-120452380D02*
X124535714Y-120452380D01*
X124630952Y-120500000D01*
X124678571Y-120547619D01*
X124726190Y-120642857D01*
X124773809Y-120833333D01*
X124773809Y-121071428D01*
X124726190Y-121261904D01*
X124678571Y-121357142D01*
X124630952Y-121404761D01*
X124535714Y-121452380D01*
X124440476Y-121452380D01*
X124345238Y-121404761D01*
X124297619Y-121357142D01*
X124250000Y-121261904D01*
X124202380Y-121071428D01*
X124202380Y-120833333D01*
X124250000Y-120642857D01*
X124297619Y-120547619D01*
X124345238Y-120500000D01*
X124440476Y-120452380D01*
X125392857Y-120452380D02*
X125488095Y-120452380D01*
X125583333Y-120500000D01*
X125630952Y-120547619D01*
X125678571Y-120642857D01*
X125726190Y-120833333D01*
X125726190Y-121071428D01*
X125678571Y-121261904D01*
X125630952Y-121357142D01*
X125583333Y-121404761D01*
X125488095Y-121452380D01*
X125392857Y-121452380D01*
X125297619Y-121404761D01*
X125250000Y-121357142D01*
X125202380Y-121261904D01*
X125154761Y-121071428D01*
X125154761Y-120833333D01*
X125202380Y-120642857D01*
X125250000Y-120547619D01*
X125297619Y-120500000D01*
X125392857Y-120452380D01*
X126916666Y-120785714D02*
X126916666Y-121452380D01*
X126916666Y-120880952D02*
X126964285Y-120833333D01*
X127059523Y-120785714D01*
X127202380Y-120785714D01*
X127297619Y-120833333D01*
X127345238Y-120928571D01*
X127345238Y-121452380D01*
X128154761Y-120928571D02*
X127821428Y-120928571D01*
X127821428Y-121452380D02*
X127821428Y-120452380D01*
X128297619Y-120452380D01*
X153821428Y-121452380D02*
X153250000Y-121452380D01*
X153535714Y-121452380D02*
X153535714Y-120452380D01*
X153440476Y-120595238D01*
X153345238Y-120690476D01*
X153250000Y-120738095D01*
X154440476Y-120452380D02*
X154535714Y-120452380D01*
X154630952Y-120500000D01*
X154678571Y-120547619D01*
X154726190Y-120642857D01*
X154773809Y-120833333D01*
X154773809Y-121071428D01*
X154726190Y-121261904D01*
X154678571Y-121357142D01*
X154630952Y-121404761D01*
X154535714Y-121452380D01*
X154440476Y-121452380D01*
X154345238Y-121404761D01*
X154297619Y-121357142D01*
X154250000Y-121261904D01*
X154202380Y-121071428D01*
X154202380Y-120833333D01*
X154250000Y-120642857D01*
X154297619Y-120547619D01*
X154345238Y-120500000D01*
X154440476Y-120452380D01*
X155392857Y-120452380D02*
X155488095Y-120452380D01*
X155583333Y-120500000D01*
X155630952Y-120547619D01*
X155678571Y-120642857D01*
X155726190Y-120833333D01*
X155726190Y-121071428D01*
X155678571Y-121261904D01*
X155630952Y-121357142D01*
X155583333Y-121404761D01*
X155488095Y-121452380D01*
X155392857Y-121452380D01*
X155297619Y-121404761D01*
X155250000Y-121357142D01*
X155202380Y-121261904D01*
X155154761Y-121071428D01*
X155154761Y-120833333D01*
X155202380Y-120642857D01*
X155250000Y-120547619D01*
X155297619Y-120500000D01*
X155392857Y-120452380D01*
X156916666Y-120785714D02*
X156916666Y-121452380D01*
X156916666Y-120880952D02*
X156964285Y-120833333D01*
X157059523Y-120785714D01*
X157202380Y-120785714D01*
X157297619Y-120833333D01*
X157345238Y-120928571D01*
X157345238Y-121452380D01*
X158154761Y-120928571D02*
X157821428Y-120928571D01*
X157821428Y-121452380D02*
X157821428Y-120452380D01*
X158297619Y-120452380D01*
X188071428Y-121202380D02*
X187500000Y-121202380D01*
X187785714Y-121202380D02*
X187785714Y-120202380D01*
X187690476Y-120345238D01*
X187595238Y-120440476D01*
X187500000Y-120488095D01*
X188690476Y-120202380D02*
X188785714Y-120202380D01*
X188880952Y-120250000D01*
X188928571Y-120297619D01*
X188976190Y-120392857D01*
X189023809Y-120583333D01*
X189023809Y-120821428D01*
X188976190Y-121011904D01*
X188928571Y-121107142D01*
X188880952Y-121154761D01*
X188785714Y-121202380D01*
X188690476Y-121202380D01*
X188595238Y-121154761D01*
X188547619Y-121107142D01*
X188500000Y-121011904D01*
X188452380Y-120821428D01*
X188452380Y-120583333D01*
X188500000Y-120392857D01*
X188547619Y-120297619D01*
X188595238Y-120250000D01*
X188690476Y-120202380D01*
X189642857Y-120202380D02*
X189738095Y-120202380D01*
X189833333Y-120250000D01*
X189880952Y-120297619D01*
X189928571Y-120392857D01*
X189976190Y-120583333D01*
X189976190Y-120821428D01*
X189928571Y-121011904D01*
X189880952Y-121107142D01*
X189833333Y-121154761D01*
X189738095Y-121202380D01*
X189642857Y-121202380D01*
X189547619Y-121154761D01*
X189500000Y-121107142D01*
X189452380Y-121011904D01*
X189404761Y-120821428D01*
X189404761Y-120583333D01*
X189452380Y-120392857D01*
X189500000Y-120297619D01*
X189547619Y-120250000D01*
X189642857Y-120202380D01*
X191166666Y-120535714D02*
X191166666Y-121202380D01*
X191166666Y-120630952D02*
X191214285Y-120583333D01*
X191309523Y-120535714D01*
X191452380Y-120535714D01*
X191547619Y-120583333D01*
X191595238Y-120678571D01*
X191595238Y-121202380D01*
X192404761Y-120678571D02*
X192071428Y-120678571D01*
X192071428Y-121202380D02*
X192071428Y-120202380D01*
X192547619Y-120202380D01*
X123976190Y-73857142D02*
X123928571Y-73904761D01*
X123785714Y-73952380D01*
X123690476Y-73952380D01*
X123547619Y-73904761D01*
X123452380Y-73809523D01*
X123404761Y-73714285D01*
X123357142Y-73523809D01*
X123357142Y-73380952D01*
X123404761Y-73190476D01*
X123452380Y-73095238D01*
X123547619Y-73000000D01*
X123690476Y-72952380D01*
X123785714Y-72952380D01*
X123928571Y-73000000D01*
X123976190Y-73047619D01*
X124404761Y-73952380D02*
X124404761Y-72952380D01*
X124833333Y-73952380D02*
X124833333Y-73428571D01*
X124785714Y-73333333D01*
X124690476Y-73285714D01*
X124547619Y-73285714D01*
X124452380Y-73333333D01*
X124404761Y-73380952D01*
X125309523Y-73952380D02*
X125309523Y-73285714D01*
X125309523Y-72952380D02*
X125261904Y-73000000D01*
X125309523Y-73047619D01*
X125357142Y-73000000D01*
X125309523Y-72952380D01*
X125309523Y-73047619D01*
X125785714Y-73952380D02*
X125785714Y-73285714D01*
X125785714Y-73476190D02*
X125833333Y-73380952D01*
X125880952Y-73333333D01*
X125976190Y-73285714D01*
X126071428Y-73285714D01*
X126404761Y-73285714D02*
X126404761Y-74285714D01*
X126404761Y-73333333D02*
X126500000Y-73285714D01*
X126690476Y-73285714D01*
X126785714Y-73333333D01*
X126833333Y-73380952D01*
X126880952Y-73476190D01*
X126880952Y-73761904D01*
X126833333Y-73857142D01*
X126785714Y-73904761D01*
X126690476Y-73952380D01*
X126500000Y-73952380D01*
X126404761Y-73904761D01*
X127214285Y-73285714D02*
X127452380Y-73952380D01*
X127690476Y-73285714D02*
X127452380Y-73952380D01*
X127357142Y-74190476D01*
X127309523Y-74238095D01*
X127214285Y-74285714D01*
X128833333Y-73571428D02*
X129595238Y-73571428D01*
X130690476Y-72952380D02*
X131023809Y-73952380D01*
X131357142Y-72952380D01*
X132214285Y-73952380D02*
X131642857Y-73952380D01*
X131928571Y-73952380D02*
X131928571Y-72952380D01*
X131833333Y-73095238D01*
X131738095Y-73190476D01*
X131642857Y-73238095D01*
X132642857Y-73857142D02*
X132690476Y-73904761D01*
X132642857Y-73952380D01*
X132595238Y-73904761D01*
X132642857Y-73857142D01*
X132642857Y-73952380D01*
X133309523Y-72952380D02*
X133404761Y-72952380D01*
X133500000Y-73000000D01*
X133547619Y-73047619D01*
X133595238Y-73142857D01*
X133642857Y-73333333D01*
X133642857Y-73571428D01*
X133595238Y-73761904D01*
X133547619Y-73857142D01*
X133500000Y-73904761D01*
X133404761Y-73952380D01*
X133309523Y-73952380D01*
X133214285Y-73904761D01*
X133166666Y-73857142D01*
X133119047Y-73761904D01*
X133071428Y-73571428D01*
X133071428Y-73333333D01*
X133119047Y-73142857D01*
X133166666Y-73047619D01*
X133214285Y-73000000D01*
X133309523Y-72952380D01*
X123952380Y-71607142D02*
X123904761Y-71654761D01*
X123761904Y-71702380D01*
X123666666Y-71702380D01*
X123523809Y-71654761D01*
X123428571Y-71559523D01*
X123380952Y-71464285D01*
X123333333Y-71273809D01*
X123333333Y-71130952D01*
X123380952Y-70940476D01*
X123428571Y-70845238D01*
X123523809Y-70750000D01*
X123666666Y-70702380D01*
X123761904Y-70702380D01*
X123904761Y-70750000D01*
X123952380Y-70797619D01*
X124809523Y-71702380D02*
X124809523Y-71178571D01*
X124761904Y-71083333D01*
X124666666Y-71035714D01*
X124476190Y-71035714D01*
X124380952Y-71083333D01*
X124809523Y-71654761D02*
X124714285Y-71702380D01*
X124476190Y-71702380D01*
X124380952Y-71654761D01*
X124333333Y-71559523D01*
X124333333Y-71464285D01*
X124380952Y-71369047D01*
X124476190Y-71321428D01*
X124714285Y-71321428D01*
X124809523Y-71273809D01*
X125285714Y-71035714D02*
X125285714Y-71702380D01*
X125285714Y-71130952D02*
X125333333Y-71083333D01*
X125428571Y-71035714D01*
X125571428Y-71035714D01*
X125666666Y-71083333D01*
X125714285Y-71178571D01*
X125714285Y-71702380D01*
X127285714Y-71178571D02*
X127428571Y-71226190D01*
X127476190Y-71273809D01*
X127523809Y-71369047D01*
X127523809Y-71511904D01*
X127476190Y-71607142D01*
X127428571Y-71654761D01*
X127333333Y-71702380D01*
X126952380Y-71702380D01*
X126952380Y-70702380D01*
X127285714Y-70702380D01*
X127380952Y-70750000D01*
X127428571Y-70797619D01*
X127476190Y-70892857D01*
X127476190Y-70988095D01*
X127428571Y-71083333D01*
X127380952Y-71130952D01*
X127285714Y-71178571D01*
X126952380Y-71178571D01*
X128380952Y-71035714D02*
X128380952Y-71702380D01*
X127952380Y-71035714D02*
X127952380Y-71559523D01*
X127999999Y-71654761D01*
X128095238Y-71702380D01*
X128238095Y-71702380D01*
X128333333Y-71654761D01*
X128380952Y-71607142D01*
X128809523Y-71654761D02*
X128904761Y-71702380D01*
X129095238Y-71702380D01*
X129190476Y-71654761D01*
X129238095Y-71559523D01*
X129238095Y-71511904D01*
X129190476Y-71416666D01*
X129095238Y-71369047D01*
X128952380Y-71369047D01*
X128857142Y-71321428D01*
X128809523Y-71226190D01*
X128809523Y-71178571D01*
X128857142Y-71083333D01*
X128952380Y-71035714D01*
X129095238Y-71035714D01*
X129190476Y-71083333D01*
X130999999Y-71702380D02*
X130666666Y-71226190D01*
X130428571Y-71702380D02*
X130428571Y-70702380D01*
X130809523Y-70702380D01*
X130904761Y-70750000D01*
X130952380Y-70797619D01*
X130999999Y-70892857D01*
X130999999Y-71035714D01*
X130952380Y-71130952D01*
X130904761Y-71178571D01*
X130809523Y-71226190D01*
X130428571Y-71226190D01*
X131809523Y-71654761D02*
X131714285Y-71702380D01*
X131523809Y-71702380D01*
X131428571Y-71654761D01*
X131380952Y-71559523D01*
X131380952Y-71178571D01*
X131428571Y-71083333D01*
X131523809Y-71035714D01*
X131714285Y-71035714D01*
X131809523Y-71083333D01*
X131857142Y-71178571D01*
X131857142Y-71273809D01*
X131380952Y-71369047D01*
X132285714Y-71035714D02*
X132285714Y-72035714D01*
X132285714Y-71083333D02*
X132380952Y-71035714D01*
X132571428Y-71035714D01*
X132666666Y-71083333D01*
X132714285Y-71130952D01*
X132761904Y-71226190D01*
X132761904Y-71511904D01*
X132714285Y-71607142D01*
X132666666Y-71654761D01*
X132571428Y-71702380D01*
X132380952Y-71702380D01*
X132285714Y-71654761D01*
X133571428Y-71654761D02*
X133476190Y-71702380D01*
X133285714Y-71702380D01*
X133190476Y-71654761D01*
X133142857Y-71559523D01*
X133142857Y-71178571D01*
X133190476Y-71083333D01*
X133285714Y-71035714D01*
X133476190Y-71035714D01*
X133571428Y-71083333D01*
X133619047Y-71178571D01*
X133619047Y-71273809D01*
X133142857Y-71369047D01*
X134476190Y-71702380D02*
X134476190Y-71178571D01*
X134428571Y-71083333D01*
X134333333Y-71035714D01*
X134142857Y-71035714D01*
X134047619Y-71083333D01*
X134476190Y-71654761D02*
X134380952Y-71702380D01*
X134142857Y-71702380D01*
X134047619Y-71654761D01*
X133999999Y-71559523D01*
X133999999Y-71464285D01*
X134047619Y-71369047D01*
X134142857Y-71321428D01*
X134380952Y-71321428D01*
X134476190Y-71273809D01*
X134809523Y-71035714D02*
X135190476Y-71035714D01*
X134952380Y-70702380D02*
X134952380Y-71559523D01*
X135000000Y-71654761D01*
X135095238Y-71702380D01*
X135190476Y-71702380D01*
X135904761Y-71654761D02*
X135809523Y-71702380D01*
X135619047Y-71702380D01*
X135523809Y-71654761D01*
X135476190Y-71559523D01*
X135476190Y-71178571D01*
X135523809Y-71083333D01*
X135619047Y-71035714D01*
X135809523Y-71035714D01*
X135904761Y-71083333D01*
X135952380Y-71178571D01*
X135952380Y-71273809D01*
X135476190Y-71369047D01*
X136380952Y-71702380D02*
X136380952Y-71035714D01*
X136380952Y-71226190D02*
X136428571Y-71130952D01*
X136476190Y-71083333D01*
X136571428Y-71035714D01*
X136666666Y-71035714D01*
X138476190Y-70654761D02*
X137619047Y-71940476D01*
X139571428Y-71702380D02*
X139571428Y-70702380D01*
X139904761Y-71416666D01*
X140238095Y-70702380D01*
X140238095Y-71702380D01*
X140857142Y-71702380D02*
X140761904Y-71654761D01*
X140714285Y-71607142D01*
X140666666Y-71511904D01*
X140666666Y-71226190D01*
X140714285Y-71130952D01*
X140761904Y-71083333D01*
X140857142Y-71035714D01*
X141000000Y-71035714D01*
X141095238Y-71083333D01*
X141142857Y-71130952D01*
X141190476Y-71226190D01*
X141190476Y-71511904D01*
X141142857Y-71607142D01*
X141095238Y-71654761D01*
X141000000Y-71702380D01*
X140857142Y-71702380D01*
X141619047Y-71035714D02*
X141619047Y-71702380D01*
X141619047Y-71130952D02*
X141666666Y-71083333D01*
X141761904Y-71035714D01*
X141904761Y-71035714D01*
X142000000Y-71083333D01*
X142047619Y-71178571D01*
X142047619Y-71702380D01*
X142523809Y-71702380D02*
X142523809Y-71035714D01*
X142523809Y-70702380D02*
X142476190Y-70750000D01*
X142523809Y-70797619D01*
X142571428Y-70750000D01*
X142523809Y-70702380D01*
X142523809Y-70797619D01*
X142857142Y-71035714D02*
X143238095Y-71035714D01*
X143000000Y-70702380D02*
X143000000Y-71559523D01*
X143047619Y-71654761D01*
X143142857Y-71702380D01*
X143238095Y-71702380D01*
X143714285Y-71702380D02*
X143619047Y-71654761D01*
X143571428Y-71607142D01*
X143523809Y-71511904D01*
X143523809Y-71226190D01*
X143571428Y-71130952D01*
X143619047Y-71083333D01*
X143714285Y-71035714D01*
X143857142Y-71035714D01*
X143952380Y-71083333D01*
X144000000Y-71130952D01*
X144047619Y-71226190D01*
X144047619Y-71511904D01*
X144000000Y-71607142D01*
X143952380Y-71654761D01*
X143857142Y-71702380D01*
X143714285Y-71702380D01*
X144476190Y-71702380D02*
X144476190Y-71035714D01*
X144476190Y-71226190D02*
X144523809Y-71130952D01*
X144571428Y-71083333D01*
X144666666Y-71035714D01*
X144761904Y-71035714D01*
D11*
X155310000Y-72615000D02*
X155310000Y-73885000D01*
X152135000Y-74520000D02*
X150865000Y-74520000D01*
X150230000Y-73885000D02*
X150865000Y-74520000D01*
X150865000Y-71980000D02*
X150230000Y-72615000D01*
X150230000Y-72615000D02*
X150230000Y-73885000D01*
X153405000Y-74520000D02*
X152770000Y-73885000D01*
X154675000Y-74520000D02*
X153405000Y-74520000D01*
X155310000Y-73885000D02*
X154675000Y-74520000D01*
X154675000Y-71980000D02*
X155310000Y-72615000D01*
X153405000Y-71980000D02*
X154675000Y-71980000D01*
X152770000Y-72615000D02*
X153405000Y-71980000D01*
X152770000Y-73885000D02*
X152135000Y-74520000D01*
X152135000Y-71980000D02*
X152770000Y-72615000D01*
X150865000Y-71980000D02*
X152135000Y-71980000D01*
D12*
X162120000Y-80805000D02*
X162120000Y-80870000D01*
X162120000Y-78630000D02*
X162120000Y-78695000D01*
X158880000Y-80805000D02*
X158880000Y-80870000D01*
X158880000Y-78630000D02*
X158880000Y-78695000D01*
X158880000Y-80870000D02*
X162120000Y-80870000D01*
X158880000Y-78630000D02*
X162120000Y-78630000D01*
X150870000Y-121805000D02*
X150870000Y-121870000D01*
X150870000Y-119630000D02*
X150870000Y-119695000D01*
X147630000Y-121805000D02*
X147630000Y-121870000D01*
X147630000Y-119630000D02*
X147630000Y-119695000D01*
X147630000Y-121870000D02*
X150870000Y-121870000D01*
X147630000Y-119630000D02*
X150870000Y-119630000D01*
X118130000Y-119695000D02*
X118130000Y-119630000D01*
X118130000Y-121870000D02*
X118130000Y-121805000D01*
X121370000Y-119695000D02*
X121370000Y-119630000D01*
X121370000Y-121870000D02*
X121370000Y-121805000D01*
X121370000Y-119630000D02*
X118130000Y-119630000D01*
X121370000Y-121870000D02*
X118130000Y-121870000D01*
X194130000Y-119695000D02*
X194130000Y-119630000D01*
X194130000Y-121870000D02*
X194130000Y-121805000D01*
X197370000Y-119695000D02*
X197370000Y-119630000D01*
X197370000Y-121870000D02*
X197370000Y-121805000D01*
X197370000Y-119630000D02*
X194130000Y-119630000D01*
X197370000Y-121870000D02*
X194130000Y-121870000D01*
X171990000Y-111210000D02*
X169450000Y-111210000D01*
X161830000Y-111210000D02*
X164370000Y-111210000D01*
X161830000Y-85810000D02*
X161830000Y-111210000D01*
X164370000Y-111210000D02*
G75*
G02X169450000Y-111210000I2540000J0D01*
G01*
X171990000Y-85810000D02*
X161830000Y-85810000D01*
X171990000Y-111210000D02*
X171990000Y-85810000D01*
X128530000Y-118320000D02*
X156470000Y-118320000D01*
X128530000Y-78315000D02*
X128530000Y-118320000D01*
X156470000Y-78315000D02*
X128530000Y-78315000D01*
X156470000Y-118320000D02*
X156470000Y-78315000D01*
X177530000Y-118320000D02*
X205470000Y-118320000D01*
X177530000Y-78315000D02*
X177530000Y-118320000D01*
X205470000Y-78315000D02*
X177530000Y-78315000D01*
X205470000Y-118320000D02*
X205470000Y-78315000D01*
X99530000Y-118320000D02*
X127470000Y-118320000D01*
X99530000Y-78315000D02*
X99530000Y-118320000D01*
X127470000Y-78315000D02*
X99530000Y-78315000D01*
X127470000Y-118320000D02*
X127470000Y-78315000D01*
D13*
X151296800Y-71011171D02*
X151296800Y-71446600D01*
X151267771Y-71533685D01*
X151209714Y-71591742D01*
X151122628Y-71620771D01*
X151064571Y-71620771D01*
X151906400Y-71620771D02*
X151558057Y-71620771D01*
X151732228Y-71620771D02*
X151732228Y-71011171D01*
X151674171Y-71098257D01*
X151616114Y-71156314D01*
X151558057Y-71185342D01*
D10*
X160333333Y-77857142D02*
X160285714Y-77904761D01*
X160142857Y-77952380D01*
X160047619Y-77952380D01*
X159904761Y-77904761D01*
X159809523Y-77809523D01*
X159761904Y-77714285D01*
X159714285Y-77523809D01*
X159714285Y-77380952D01*
X159761904Y-77190476D01*
X159809523Y-77095238D01*
X159904761Y-77000000D01*
X160047619Y-76952380D01*
X160142857Y-76952380D01*
X160285714Y-77000000D01*
X160333333Y-77047619D01*
X161190476Y-77285714D02*
X161190476Y-77952380D01*
X160952380Y-76904761D02*
X160714285Y-77619047D01*
X161333333Y-77619047D01*
X148333333Y-123607142D02*
X148285714Y-123654761D01*
X148142857Y-123702380D01*
X148047619Y-123702380D01*
X147904761Y-123654761D01*
X147809523Y-123559523D01*
X147761904Y-123464285D01*
X147714285Y-123273809D01*
X147714285Y-123130952D01*
X147761904Y-122940476D01*
X147809523Y-122845238D01*
X147904761Y-122750000D01*
X148047619Y-122702380D01*
X148142857Y-122702380D01*
X148285714Y-122750000D01*
X148333333Y-122797619D01*
X148666666Y-122702380D02*
X149285714Y-122702380D01*
X148952380Y-123083333D01*
X149095238Y-123083333D01*
X149190476Y-123130952D01*
X149238095Y-123178571D01*
X149285714Y-123273809D01*
X149285714Y-123511904D01*
X149238095Y-123607142D01*
X149190476Y-123654761D01*
X149095238Y-123702380D01*
X148809523Y-123702380D01*
X148714285Y-123654761D01*
X148666666Y-123607142D01*
X119583333Y-123357142D02*
X119535714Y-123404761D01*
X119392857Y-123452380D01*
X119297619Y-123452380D01*
X119154761Y-123404761D01*
X119059523Y-123309523D01*
X119011904Y-123214285D01*
X118964285Y-123023809D01*
X118964285Y-122880952D01*
X119011904Y-122690476D01*
X119059523Y-122595238D01*
X119154761Y-122500000D01*
X119297619Y-122452380D01*
X119392857Y-122452380D01*
X119535714Y-122500000D01*
X119583333Y-122547619D01*
X119964285Y-122547619D02*
X120011904Y-122500000D01*
X120107142Y-122452380D01*
X120345238Y-122452380D01*
X120440476Y-122500000D01*
X120488095Y-122547619D01*
X120535714Y-122642857D01*
X120535714Y-122738095D01*
X120488095Y-122880952D01*
X119916666Y-123452380D01*
X120535714Y-123452380D01*
X195583333Y-123357142D02*
X195535714Y-123404761D01*
X195392857Y-123452380D01*
X195297619Y-123452380D01*
X195154761Y-123404761D01*
X195059523Y-123309523D01*
X195011904Y-123214285D01*
X194964285Y-123023809D01*
X194964285Y-122880952D01*
X195011904Y-122690476D01*
X195059523Y-122595238D01*
X195154761Y-122500000D01*
X195297619Y-122452380D01*
X195392857Y-122452380D01*
X195535714Y-122500000D01*
X195583333Y-122547619D01*
X196535714Y-123452380D02*
X195964285Y-123452380D01*
X196250000Y-123452380D02*
X196250000Y-122452380D01*
X196154761Y-122595238D01*
X196059523Y-122690476D01*
X195964285Y-122738095D01*
X166345238Y-83928571D02*
X166488095Y-83976190D01*
X166535714Y-84023809D01*
X166583333Y-84119047D01*
X166583333Y-84261904D01*
X166535714Y-84357142D01*
X166488095Y-84404761D01*
X166392857Y-84452380D01*
X166011904Y-84452380D01*
X166011904Y-83452380D01*
X166345238Y-83452380D01*
X166440476Y-83500000D01*
X166488095Y-83547619D01*
X166535714Y-83642857D01*
X166535714Y-83738095D01*
X166488095Y-83833333D01*
X166440476Y-83880952D01*
X166345238Y-83928571D01*
X166011904Y-83928571D01*
X167535714Y-84452380D02*
X166964285Y-84452380D01*
X167250000Y-84452380D02*
X167250000Y-83452380D01*
X167154761Y-83595238D01*
X167059523Y-83690476D01*
X166964285Y-83738095D01*
X139491666Y-102524285D02*
X139491666Y-102048095D01*
X139777380Y-102619523D02*
X138777380Y-102286190D01*
X139777380Y-101952857D01*
X138777380Y-101714761D02*
X138777380Y-101095714D01*
X139158333Y-101429047D01*
X139158333Y-101286190D01*
X139205952Y-101190952D01*
X139253571Y-101143333D01*
X139348809Y-101095714D01*
X139586904Y-101095714D01*
X139682142Y-101143333D01*
X139729761Y-101190952D01*
X139777380Y-101286190D01*
X139777380Y-101571904D01*
X139729761Y-101667142D01*
X139682142Y-101714761D01*
X151477380Y-89014523D02*
X151477380Y-88443095D01*
X152477380Y-88728809D02*
X151477380Y-88728809D01*
X151953571Y-88109761D02*
X151953571Y-87776428D01*
X152477380Y-87633571D02*
X152477380Y-88109761D01*
X151477380Y-88109761D01*
X151477380Y-87633571D01*
X152477380Y-86633571D02*
X152001190Y-86966904D01*
X152477380Y-87205000D02*
X151477380Y-87205000D01*
X151477380Y-86824047D01*
X151525000Y-86728809D01*
X151572619Y-86681190D01*
X151667857Y-86633571D01*
X151810714Y-86633571D01*
X151905952Y-86681190D01*
X151953571Y-86728809D01*
X152001190Y-86824047D01*
X152001190Y-87205000D01*
X152477380Y-86205000D02*
X151477380Y-86205000D01*
X152191666Y-85871666D01*
X151477380Y-85538333D01*
X152477380Y-85538333D01*
X144127142Y-93332619D02*
X144174761Y-93380238D01*
X144222380Y-93523095D01*
X144222380Y-93618333D01*
X144174761Y-93761190D01*
X144079523Y-93856428D01*
X143984285Y-93904047D01*
X143793809Y-93951666D01*
X143650952Y-93951666D01*
X143460476Y-93904047D01*
X143365238Y-93856428D01*
X143270000Y-93761190D01*
X143222380Y-93618333D01*
X143222380Y-93523095D01*
X143270000Y-93380238D01*
X143317619Y-93332619D01*
X143936666Y-92951666D02*
X143936666Y-92475476D01*
X144222380Y-93046904D02*
X143222380Y-92713571D01*
X144222380Y-92380238D01*
X144222380Y-92046904D02*
X143222380Y-92046904D01*
X144222380Y-91475476D01*
X143222380Y-91475476D01*
X144222380Y-90523095D02*
X144222380Y-90999285D01*
X143222380Y-90999285D01*
X141587142Y-93451666D02*
X141634761Y-93499285D01*
X141682380Y-93642142D01*
X141682380Y-93737380D01*
X141634761Y-93880238D01*
X141539523Y-93975476D01*
X141444285Y-94023095D01*
X141253809Y-94070714D01*
X141110952Y-94070714D01*
X140920476Y-94023095D01*
X140825238Y-93975476D01*
X140730000Y-93880238D01*
X140682380Y-93737380D01*
X140682380Y-93642142D01*
X140730000Y-93499285D01*
X140777619Y-93451666D01*
X141396666Y-93070714D02*
X141396666Y-92594523D01*
X141682380Y-93165952D02*
X140682380Y-92832619D01*
X141682380Y-92499285D01*
X141682380Y-92165952D02*
X140682380Y-92165952D01*
X141682380Y-91594523D01*
X140682380Y-91594523D01*
X141682380Y-91118333D02*
X140682380Y-91118333D01*
X141158571Y-91118333D02*
X141158571Y-90546904D01*
X141682380Y-90546904D02*
X140682380Y-90546904D01*
X149572380Y-114573333D02*
X150572380Y-114240000D01*
X149572380Y-113906666D01*
X150477142Y-113001904D02*
X150524761Y-113049523D01*
X150572380Y-113192380D01*
X150572380Y-113287619D01*
X150524761Y-113430476D01*
X150429523Y-113525714D01*
X150334285Y-113573333D01*
X150143809Y-113620952D01*
X150000952Y-113620952D01*
X149810476Y-113573333D01*
X149715238Y-113525714D01*
X149620000Y-113430476D01*
X149572380Y-113287619D01*
X149572380Y-113192380D01*
X149620000Y-113049523D01*
X149667619Y-113001904D01*
X150477142Y-112001904D02*
X150524761Y-112049523D01*
X150572380Y-112192380D01*
X150572380Y-112287619D01*
X150524761Y-112430476D01*
X150429523Y-112525714D01*
X150334285Y-112573333D01*
X150143809Y-112620952D01*
X150000952Y-112620952D01*
X149810476Y-112573333D01*
X149715238Y-112525714D01*
X149620000Y-112430476D01*
X149572380Y-112287619D01*
X149572380Y-112192380D01*
X149620000Y-112049523D01*
X149667619Y-112001904D01*
X147080000Y-114001904D02*
X147032380Y-114097142D01*
X147032380Y-114240000D01*
X147080000Y-114382857D01*
X147175238Y-114478095D01*
X147270476Y-114525714D01*
X147460952Y-114573333D01*
X147603809Y-114573333D01*
X147794285Y-114525714D01*
X147889523Y-114478095D01*
X147984761Y-114382857D01*
X148032380Y-114240000D01*
X148032380Y-114144761D01*
X147984761Y-114001904D01*
X147937142Y-113954285D01*
X147603809Y-113954285D01*
X147603809Y-114144761D01*
X148032380Y-113525714D02*
X147032380Y-113525714D01*
X148032380Y-112954285D01*
X147032380Y-112954285D01*
X148032380Y-112478095D02*
X147032380Y-112478095D01*
X147032380Y-112240000D01*
X147080000Y-112097142D01*
X147175238Y-112001904D01*
X147270476Y-111954285D01*
X147460952Y-111906666D01*
X147603809Y-111906666D01*
X147794285Y-111954285D01*
X147889523Y-112001904D01*
X147984761Y-112097142D01*
X148032380Y-112240000D01*
X148032380Y-112478095D01*
X145397142Y-113406666D02*
X145444761Y-113454285D01*
X145492380Y-113597142D01*
X145492380Y-113692380D01*
X145444761Y-113835238D01*
X145349523Y-113930476D01*
X145254285Y-113978095D01*
X145063809Y-114025714D01*
X144920952Y-114025714D01*
X144730476Y-113978095D01*
X144635238Y-113930476D01*
X144540000Y-113835238D01*
X144492380Y-113692380D01*
X144492380Y-113597142D01*
X144540000Y-113454285D01*
X144587619Y-113406666D01*
X145444761Y-113025714D02*
X145492380Y-112882857D01*
X145492380Y-112644761D01*
X145444761Y-112549523D01*
X145397142Y-112501904D01*
X145301904Y-112454285D01*
X145206666Y-112454285D01*
X145111428Y-112501904D01*
X145063809Y-112549523D01*
X145016190Y-112644761D01*
X144968571Y-112835238D01*
X144920952Y-112930476D01*
X144873333Y-112978095D01*
X144778095Y-113025714D01*
X144682857Y-113025714D01*
X144587619Y-112978095D01*
X144540000Y-112930476D01*
X144492380Y-112835238D01*
X144492380Y-112597142D01*
X144540000Y-112454285D01*
X142952380Y-114811428D02*
X141952380Y-114811428D01*
X142666666Y-114478095D01*
X141952380Y-114144761D01*
X142952380Y-114144761D01*
X142952380Y-113668571D02*
X141952380Y-113668571D01*
X142904761Y-113240000D02*
X142952380Y-113097142D01*
X142952380Y-112859047D01*
X142904761Y-112763809D01*
X142857142Y-112716190D01*
X142761904Y-112668571D01*
X142666666Y-112668571D01*
X142571428Y-112716190D01*
X142523809Y-112763809D01*
X142476190Y-112859047D01*
X142428571Y-113049523D01*
X142380952Y-113144761D01*
X142333333Y-113192380D01*
X142238095Y-113240000D01*
X142142857Y-113240000D01*
X142047619Y-113192380D01*
X142000000Y-113144761D01*
X141952380Y-113049523D01*
X141952380Y-112811428D01*
X142000000Y-112668571D01*
X141952380Y-112049523D02*
X141952380Y-111859047D01*
X142000000Y-111763809D01*
X142095238Y-111668571D01*
X142285714Y-111620952D01*
X142619047Y-111620952D01*
X142809523Y-111668571D01*
X142904761Y-111763809D01*
X142952380Y-111859047D01*
X142952380Y-112049523D01*
X142904761Y-112144761D01*
X142809523Y-112240000D01*
X142619047Y-112287619D01*
X142285714Y-112287619D01*
X142095238Y-112240000D01*
X142000000Y-112144761D01*
X141952380Y-112049523D01*
X140412380Y-114811428D02*
X139412380Y-114811428D01*
X140126666Y-114478095D01*
X139412380Y-114144761D01*
X140412380Y-114144761D01*
X139412380Y-113478095D02*
X139412380Y-113287619D01*
X139460000Y-113192380D01*
X139555238Y-113097142D01*
X139745714Y-113049523D01*
X140079047Y-113049523D01*
X140269523Y-113097142D01*
X140364761Y-113192380D01*
X140412380Y-113287619D01*
X140412380Y-113478095D01*
X140364761Y-113573333D01*
X140269523Y-113668571D01*
X140079047Y-113716190D01*
X139745714Y-113716190D01*
X139555238Y-113668571D01*
X139460000Y-113573333D01*
X139412380Y-113478095D01*
X140364761Y-112668571D02*
X140412380Y-112525714D01*
X140412380Y-112287619D01*
X140364761Y-112192380D01*
X140317142Y-112144761D01*
X140221904Y-112097142D01*
X140126666Y-112097142D01*
X140031428Y-112144761D01*
X139983809Y-112192380D01*
X139936190Y-112287619D01*
X139888571Y-112478095D01*
X139840952Y-112573333D01*
X139793333Y-112620952D01*
X139698095Y-112668571D01*
X139602857Y-112668571D01*
X139507619Y-112620952D01*
X139460000Y-112573333D01*
X139412380Y-112478095D01*
X139412380Y-112240000D01*
X139460000Y-112097142D01*
X140412380Y-111668571D02*
X139412380Y-111668571D01*
X137824761Y-114525714D02*
X137872380Y-114382857D01*
X137872380Y-114144761D01*
X137824761Y-114049523D01*
X137777142Y-114001904D01*
X137681904Y-113954285D01*
X137586666Y-113954285D01*
X137491428Y-114001904D01*
X137443809Y-114049523D01*
X137396190Y-114144761D01*
X137348571Y-114335238D01*
X137300952Y-114430476D01*
X137253333Y-114478095D01*
X137158095Y-114525714D01*
X137062857Y-114525714D01*
X136967619Y-114478095D01*
X136920000Y-114430476D01*
X136872380Y-114335238D01*
X136872380Y-114097142D01*
X136920000Y-113954285D01*
X137777142Y-112954285D02*
X137824761Y-113001904D01*
X137872380Y-113144761D01*
X137872380Y-113240000D01*
X137824761Y-113382857D01*
X137729523Y-113478095D01*
X137634285Y-113525714D01*
X137443809Y-113573333D01*
X137300952Y-113573333D01*
X137110476Y-113525714D01*
X137015238Y-113478095D01*
X136920000Y-113382857D01*
X136872380Y-113240000D01*
X136872380Y-113144761D01*
X136920000Y-113001904D01*
X136967619Y-112954285D01*
X137872380Y-112525714D02*
X136872380Y-112525714D01*
X137872380Y-111954285D02*
X137300952Y-112382857D01*
X136872380Y-111954285D02*
X137443809Y-112525714D01*
X135332380Y-114144761D02*
X134332380Y-114144761D01*
X135332380Y-113668571D02*
X134332380Y-113668571D01*
X135332380Y-113097142D01*
X134332380Y-113097142D01*
X134332380Y-112763809D02*
X134332380Y-112192380D01*
X135332380Y-112478095D02*
X134332380Y-112478095D01*
X188491666Y-102524285D02*
X188491666Y-102048095D01*
X188777380Y-102619523D02*
X187777380Y-102286190D01*
X188777380Y-101952857D01*
X187872619Y-101667142D02*
X187825000Y-101619523D01*
X187777380Y-101524285D01*
X187777380Y-101286190D01*
X187825000Y-101190952D01*
X187872619Y-101143333D01*
X187967857Y-101095714D01*
X188063095Y-101095714D01*
X188205952Y-101143333D01*
X188777380Y-101714761D01*
X188777380Y-101095714D01*
X200477380Y-89014523D02*
X200477380Y-88443095D01*
X201477380Y-88728809D02*
X200477380Y-88728809D01*
X200953571Y-88109761D02*
X200953571Y-87776428D01*
X201477380Y-87633571D02*
X201477380Y-88109761D01*
X200477380Y-88109761D01*
X200477380Y-87633571D01*
X201477380Y-86633571D02*
X201001190Y-86966904D01*
X201477380Y-87205000D02*
X200477380Y-87205000D01*
X200477380Y-86824047D01*
X200525000Y-86728809D01*
X200572619Y-86681190D01*
X200667857Y-86633571D01*
X200810714Y-86633571D01*
X200905952Y-86681190D01*
X200953571Y-86728809D01*
X201001190Y-86824047D01*
X201001190Y-87205000D01*
X201477380Y-86205000D02*
X200477380Y-86205000D01*
X201191666Y-85871666D01*
X200477380Y-85538333D01*
X201477380Y-85538333D01*
X193127142Y-93332619D02*
X193174761Y-93380238D01*
X193222380Y-93523095D01*
X193222380Y-93618333D01*
X193174761Y-93761190D01*
X193079523Y-93856428D01*
X192984285Y-93904047D01*
X192793809Y-93951666D01*
X192650952Y-93951666D01*
X192460476Y-93904047D01*
X192365238Y-93856428D01*
X192270000Y-93761190D01*
X192222380Y-93618333D01*
X192222380Y-93523095D01*
X192270000Y-93380238D01*
X192317619Y-93332619D01*
X192936666Y-92951666D02*
X192936666Y-92475476D01*
X193222380Y-93046904D02*
X192222380Y-92713571D01*
X193222380Y-92380238D01*
X193222380Y-92046904D02*
X192222380Y-92046904D01*
X193222380Y-91475476D01*
X192222380Y-91475476D01*
X193222380Y-90523095D02*
X193222380Y-90999285D01*
X192222380Y-90999285D01*
X190587142Y-93451666D02*
X190634761Y-93499285D01*
X190682380Y-93642142D01*
X190682380Y-93737380D01*
X190634761Y-93880238D01*
X190539523Y-93975476D01*
X190444285Y-94023095D01*
X190253809Y-94070714D01*
X190110952Y-94070714D01*
X189920476Y-94023095D01*
X189825238Y-93975476D01*
X189730000Y-93880238D01*
X189682380Y-93737380D01*
X189682380Y-93642142D01*
X189730000Y-93499285D01*
X189777619Y-93451666D01*
X190396666Y-93070714D02*
X190396666Y-92594523D01*
X190682380Y-93165952D02*
X189682380Y-92832619D01*
X190682380Y-92499285D01*
X190682380Y-92165952D02*
X189682380Y-92165952D01*
X190682380Y-91594523D01*
X189682380Y-91594523D01*
X190682380Y-91118333D02*
X189682380Y-91118333D01*
X190158571Y-91118333D02*
X190158571Y-90546904D01*
X190682380Y-90546904D02*
X189682380Y-90546904D01*
X198572380Y-114573333D02*
X199572380Y-114240000D01*
X198572380Y-113906666D01*
X199477142Y-113001904D02*
X199524761Y-113049523D01*
X199572380Y-113192380D01*
X199572380Y-113287619D01*
X199524761Y-113430476D01*
X199429523Y-113525714D01*
X199334285Y-113573333D01*
X199143809Y-113620952D01*
X199000952Y-113620952D01*
X198810476Y-113573333D01*
X198715238Y-113525714D01*
X198620000Y-113430476D01*
X198572380Y-113287619D01*
X198572380Y-113192380D01*
X198620000Y-113049523D01*
X198667619Y-113001904D01*
X199477142Y-112001904D02*
X199524761Y-112049523D01*
X199572380Y-112192380D01*
X199572380Y-112287619D01*
X199524761Y-112430476D01*
X199429523Y-112525714D01*
X199334285Y-112573333D01*
X199143809Y-112620952D01*
X199000952Y-112620952D01*
X198810476Y-112573333D01*
X198715238Y-112525714D01*
X198620000Y-112430476D01*
X198572380Y-112287619D01*
X198572380Y-112192380D01*
X198620000Y-112049523D01*
X198667619Y-112001904D01*
X196080000Y-114001904D02*
X196032380Y-114097142D01*
X196032380Y-114240000D01*
X196080000Y-114382857D01*
X196175238Y-114478095D01*
X196270476Y-114525714D01*
X196460952Y-114573333D01*
X196603809Y-114573333D01*
X196794285Y-114525714D01*
X196889523Y-114478095D01*
X196984761Y-114382857D01*
X197032380Y-114240000D01*
X197032380Y-114144761D01*
X196984761Y-114001904D01*
X196937142Y-113954285D01*
X196603809Y-113954285D01*
X196603809Y-114144761D01*
X197032380Y-113525714D02*
X196032380Y-113525714D01*
X197032380Y-112954285D01*
X196032380Y-112954285D01*
X197032380Y-112478095D02*
X196032380Y-112478095D01*
X196032380Y-112240000D01*
X196080000Y-112097142D01*
X196175238Y-112001904D01*
X196270476Y-111954285D01*
X196460952Y-111906666D01*
X196603809Y-111906666D01*
X196794285Y-111954285D01*
X196889523Y-112001904D01*
X196984761Y-112097142D01*
X197032380Y-112240000D01*
X197032380Y-112478095D01*
X194397142Y-113406666D02*
X194444761Y-113454285D01*
X194492380Y-113597142D01*
X194492380Y-113692380D01*
X194444761Y-113835238D01*
X194349523Y-113930476D01*
X194254285Y-113978095D01*
X194063809Y-114025714D01*
X193920952Y-114025714D01*
X193730476Y-113978095D01*
X193635238Y-113930476D01*
X193540000Y-113835238D01*
X193492380Y-113692380D01*
X193492380Y-113597142D01*
X193540000Y-113454285D01*
X193587619Y-113406666D01*
X194444761Y-113025714D02*
X194492380Y-112882857D01*
X194492380Y-112644761D01*
X194444761Y-112549523D01*
X194397142Y-112501904D01*
X194301904Y-112454285D01*
X194206666Y-112454285D01*
X194111428Y-112501904D01*
X194063809Y-112549523D01*
X194016190Y-112644761D01*
X193968571Y-112835238D01*
X193920952Y-112930476D01*
X193873333Y-112978095D01*
X193778095Y-113025714D01*
X193682857Y-113025714D01*
X193587619Y-112978095D01*
X193540000Y-112930476D01*
X193492380Y-112835238D01*
X193492380Y-112597142D01*
X193540000Y-112454285D01*
X191952380Y-114811428D02*
X190952380Y-114811428D01*
X191666666Y-114478095D01*
X190952380Y-114144761D01*
X191952380Y-114144761D01*
X191952380Y-113668571D02*
X190952380Y-113668571D01*
X191904761Y-113240000D02*
X191952380Y-113097142D01*
X191952380Y-112859047D01*
X191904761Y-112763809D01*
X191857142Y-112716190D01*
X191761904Y-112668571D01*
X191666666Y-112668571D01*
X191571428Y-112716190D01*
X191523809Y-112763809D01*
X191476190Y-112859047D01*
X191428571Y-113049523D01*
X191380952Y-113144761D01*
X191333333Y-113192380D01*
X191238095Y-113240000D01*
X191142857Y-113240000D01*
X191047619Y-113192380D01*
X191000000Y-113144761D01*
X190952380Y-113049523D01*
X190952380Y-112811428D01*
X191000000Y-112668571D01*
X190952380Y-112049523D02*
X190952380Y-111859047D01*
X191000000Y-111763809D01*
X191095238Y-111668571D01*
X191285714Y-111620952D01*
X191619047Y-111620952D01*
X191809523Y-111668571D01*
X191904761Y-111763809D01*
X191952380Y-111859047D01*
X191952380Y-112049523D01*
X191904761Y-112144761D01*
X191809523Y-112240000D01*
X191619047Y-112287619D01*
X191285714Y-112287619D01*
X191095238Y-112240000D01*
X191000000Y-112144761D01*
X190952380Y-112049523D01*
X189412380Y-114811428D02*
X188412380Y-114811428D01*
X189126666Y-114478095D01*
X188412380Y-114144761D01*
X189412380Y-114144761D01*
X188412380Y-113478095D02*
X188412380Y-113287619D01*
X188460000Y-113192380D01*
X188555238Y-113097142D01*
X188745714Y-113049523D01*
X189079047Y-113049523D01*
X189269523Y-113097142D01*
X189364761Y-113192380D01*
X189412380Y-113287619D01*
X189412380Y-113478095D01*
X189364761Y-113573333D01*
X189269523Y-113668571D01*
X189079047Y-113716190D01*
X188745714Y-113716190D01*
X188555238Y-113668571D01*
X188460000Y-113573333D01*
X188412380Y-113478095D01*
X189364761Y-112668571D02*
X189412380Y-112525714D01*
X189412380Y-112287619D01*
X189364761Y-112192380D01*
X189317142Y-112144761D01*
X189221904Y-112097142D01*
X189126666Y-112097142D01*
X189031428Y-112144761D01*
X188983809Y-112192380D01*
X188936190Y-112287619D01*
X188888571Y-112478095D01*
X188840952Y-112573333D01*
X188793333Y-112620952D01*
X188698095Y-112668571D01*
X188602857Y-112668571D01*
X188507619Y-112620952D01*
X188460000Y-112573333D01*
X188412380Y-112478095D01*
X188412380Y-112240000D01*
X188460000Y-112097142D01*
X189412380Y-111668571D02*
X188412380Y-111668571D01*
X186824761Y-114525714D02*
X186872380Y-114382857D01*
X186872380Y-114144761D01*
X186824761Y-114049523D01*
X186777142Y-114001904D01*
X186681904Y-113954285D01*
X186586666Y-113954285D01*
X186491428Y-114001904D01*
X186443809Y-114049523D01*
X186396190Y-114144761D01*
X186348571Y-114335238D01*
X186300952Y-114430476D01*
X186253333Y-114478095D01*
X186158095Y-114525714D01*
X186062857Y-114525714D01*
X185967619Y-114478095D01*
X185920000Y-114430476D01*
X185872380Y-114335238D01*
X185872380Y-114097142D01*
X185920000Y-113954285D01*
X186777142Y-112954285D02*
X186824761Y-113001904D01*
X186872380Y-113144761D01*
X186872380Y-113240000D01*
X186824761Y-113382857D01*
X186729523Y-113478095D01*
X186634285Y-113525714D01*
X186443809Y-113573333D01*
X186300952Y-113573333D01*
X186110476Y-113525714D01*
X186015238Y-113478095D01*
X185920000Y-113382857D01*
X185872380Y-113240000D01*
X185872380Y-113144761D01*
X185920000Y-113001904D01*
X185967619Y-112954285D01*
X186872380Y-112525714D02*
X185872380Y-112525714D01*
X186872380Y-111954285D02*
X186300952Y-112382857D01*
X185872380Y-111954285D02*
X186443809Y-112525714D01*
X184332380Y-114144761D02*
X183332380Y-114144761D01*
X184332380Y-113668571D02*
X183332380Y-113668571D01*
X184332380Y-113097142D01*
X183332380Y-113097142D01*
X183332380Y-112763809D02*
X183332380Y-112192380D01*
X184332380Y-112478095D02*
X183332380Y-112478095D01*
X110491666Y-102524285D02*
X110491666Y-102048095D01*
X110777380Y-102619523D02*
X109777380Y-102286190D01*
X110777380Y-101952857D01*
X110777380Y-101095714D02*
X110777380Y-101667142D01*
X110777380Y-101381428D02*
X109777380Y-101381428D01*
X109920238Y-101476666D01*
X110015476Y-101571904D01*
X110063095Y-101667142D01*
X122477380Y-89014523D02*
X122477380Y-88443095D01*
X123477380Y-88728809D02*
X122477380Y-88728809D01*
X122953571Y-88109761D02*
X122953571Y-87776428D01*
X123477380Y-87633571D02*
X123477380Y-88109761D01*
X122477380Y-88109761D01*
X122477380Y-87633571D01*
X123477380Y-86633571D02*
X123001190Y-86966904D01*
X123477380Y-87205000D02*
X122477380Y-87205000D01*
X122477380Y-86824047D01*
X122525000Y-86728809D01*
X122572619Y-86681190D01*
X122667857Y-86633571D01*
X122810714Y-86633571D01*
X122905952Y-86681190D01*
X122953571Y-86728809D01*
X123001190Y-86824047D01*
X123001190Y-87205000D01*
X123477380Y-86205000D02*
X122477380Y-86205000D01*
X123191666Y-85871666D01*
X122477380Y-85538333D01*
X123477380Y-85538333D01*
X115127142Y-93332619D02*
X115174761Y-93380238D01*
X115222380Y-93523095D01*
X115222380Y-93618333D01*
X115174761Y-93761190D01*
X115079523Y-93856428D01*
X114984285Y-93904047D01*
X114793809Y-93951666D01*
X114650952Y-93951666D01*
X114460476Y-93904047D01*
X114365238Y-93856428D01*
X114270000Y-93761190D01*
X114222380Y-93618333D01*
X114222380Y-93523095D01*
X114270000Y-93380238D01*
X114317619Y-93332619D01*
X114936666Y-92951666D02*
X114936666Y-92475476D01*
X115222380Y-93046904D02*
X114222380Y-92713571D01*
X115222380Y-92380238D01*
X115222380Y-92046904D02*
X114222380Y-92046904D01*
X115222380Y-91475476D01*
X114222380Y-91475476D01*
X115222380Y-90523095D02*
X115222380Y-90999285D01*
X114222380Y-90999285D01*
X112587142Y-93451666D02*
X112634761Y-93499285D01*
X112682380Y-93642142D01*
X112682380Y-93737380D01*
X112634761Y-93880238D01*
X112539523Y-93975476D01*
X112444285Y-94023095D01*
X112253809Y-94070714D01*
X112110952Y-94070714D01*
X111920476Y-94023095D01*
X111825238Y-93975476D01*
X111730000Y-93880238D01*
X111682380Y-93737380D01*
X111682380Y-93642142D01*
X111730000Y-93499285D01*
X111777619Y-93451666D01*
X112396666Y-93070714D02*
X112396666Y-92594523D01*
X112682380Y-93165952D02*
X111682380Y-92832619D01*
X112682380Y-92499285D01*
X112682380Y-92165952D02*
X111682380Y-92165952D01*
X112682380Y-91594523D01*
X111682380Y-91594523D01*
X112682380Y-91118333D02*
X111682380Y-91118333D01*
X112158571Y-91118333D02*
X112158571Y-90546904D01*
X112682380Y-90546904D02*
X111682380Y-90546904D01*
X120572380Y-114573333D02*
X121572380Y-114240000D01*
X120572380Y-113906666D01*
X121477142Y-113001904D02*
X121524761Y-113049523D01*
X121572380Y-113192380D01*
X121572380Y-113287619D01*
X121524761Y-113430476D01*
X121429523Y-113525714D01*
X121334285Y-113573333D01*
X121143809Y-113620952D01*
X121000952Y-113620952D01*
X120810476Y-113573333D01*
X120715238Y-113525714D01*
X120620000Y-113430476D01*
X120572380Y-113287619D01*
X120572380Y-113192380D01*
X120620000Y-113049523D01*
X120667619Y-113001904D01*
X121477142Y-112001904D02*
X121524761Y-112049523D01*
X121572380Y-112192380D01*
X121572380Y-112287619D01*
X121524761Y-112430476D01*
X121429523Y-112525714D01*
X121334285Y-112573333D01*
X121143809Y-112620952D01*
X121000952Y-112620952D01*
X120810476Y-112573333D01*
X120715238Y-112525714D01*
X120620000Y-112430476D01*
X120572380Y-112287619D01*
X120572380Y-112192380D01*
X120620000Y-112049523D01*
X120667619Y-112001904D01*
X118080000Y-114001904D02*
X118032380Y-114097142D01*
X118032380Y-114240000D01*
X118080000Y-114382857D01*
X118175238Y-114478095D01*
X118270476Y-114525714D01*
X118460952Y-114573333D01*
X118603809Y-114573333D01*
X118794285Y-114525714D01*
X118889523Y-114478095D01*
X118984761Y-114382857D01*
X119032380Y-114240000D01*
X119032380Y-114144761D01*
X118984761Y-114001904D01*
X118937142Y-113954285D01*
X118603809Y-113954285D01*
X118603809Y-114144761D01*
X119032380Y-113525714D02*
X118032380Y-113525714D01*
X119032380Y-112954285D01*
X118032380Y-112954285D01*
X119032380Y-112478095D02*
X118032380Y-112478095D01*
X118032380Y-112240000D01*
X118080000Y-112097142D01*
X118175238Y-112001904D01*
X118270476Y-111954285D01*
X118460952Y-111906666D01*
X118603809Y-111906666D01*
X118794285Y-111954285D01*
X118889523Y-112001904D01*
X118984761Y-112097142D01*
X119032380Y-112240000D01*
X119032380Y-112478095D01*
X116397142Y-113406666D02*
X116444761Y-113454285D01*
X116492380Y-113597142D01*
X116492380Y-113692380D01*
X116444761Y-113835238D01*
X116349523Y-113930476D01*
X116254285Y-113978095D01*
X116063809Y-114025714D01*
X115920952Y-114025714D01*
X115730476Y-113978095D01*
X115635238Y-113930476D01*
X115540000Y-113835238D01*
X115492380Y-113692380D01*
X115492380Y-113597142D01*
X115540000Y-113454285D01*
X115587619Y-113406666D01*
X116444761Y-113025714D02*
X116492380Y-112882857D01*
X116492380Y-112644761D01*
X116444761Y-112549523D01*
X116397142Y-112501904D01*
X116301904Y-112454285D01*
X116206666Y-112454285D01*
X116111428Y-112501904D01*
X116063809Y-112549523D01*
X116016190Y-112644761D01*
X115968571Y-112835238D01*
X115920952Y-112930476D01*
X115873333Y-112978095D01*
X115778095Y-113025714D01*
X115682857Y-113025714D01*
X115587619Y-112978095D01*
X115540000Y-112930476D01*
X115492380Y-112835238D01*
X115492380Y-112597142D01*
X115540000Y-112454285D01*
X113952380Y-114811428D02*
X112952380Y-114811428D01*
X113666666Y-114478095D01*
X112952380Y-114144761D01*
X113952380Y-114144761D01*
X113952380Y-113668571D02*
X112952380Y-113668571D01*
X113904761Y-113240000D02*
X113952380Y-113097142D01*
X113952380Y-112859047D01*
X113904761Y-112763809D01*
X113857142Y-112716190D01*
X113761904Y-112668571D01*
X113666666Y-112668571D01*
X113571428Y-112716190D01*
X113523809Y-112763809D01*
X113476190Y-112859047D01*
X113428571Y-113049523D01*
X113380952Y-113144761D01*
X113333333Y-113192380D01*
X113238095Y-113240000D01*
X113142857Y-113240000D01*
X113047619Y-113192380D01*
X113000000Y-113144761D01*
X112952380Y-113049523D01*
X112952380Y-112811428D01*
X113000000Y-112668571D01*
X112952380Y-112049523D02*
X112952380Y-111859047D01*
X113000000Y-111763809D01*
X113095238Y-111668571D01*
X113285714Y-111620952D01*
X113619047Y-111620952D01*
X113809523Y-111668571D01*
X113904761Y-111763809D01*
X113952380Y-111859047D01*
X113952380Y-112049523D01*
X113904761Y-112144761D01*
X113809523Y-112240000D01*
X113619047Y-112287619D01*
X113285714Y-112287619D01*
X113095238Y-112240000D01*
X113000000Y-112144761D01*
X112952380Y-112049523D01*
X111412380Y-114811428D02*
X110412380Y-114811428D01*
X111126666Y-114478095D01*
X110412380Y-114144761D01*
X111412380Y-114144761D01*
X110412380Y-113478095D02*
X110412380Y-113287619D01*
X110460000Y-113192380D01*
X110555238Y-113097142D01*
X110745714Y-113049523D01*
X111079047Y-113049523D01*
X111269523Y-113097142D01*
X111364761Y-113192380D01*
X111412380Y-113287619D01*
X111412380Y-113478095D01*
X111364761Y-113573333D01*
X111269523Y-113668571D01*
X111079047Y-113716190D01*
X110745714Y-113716190D01*
X110555238Y-113668571D01*
X110460000Y-113573333D01*
X110412380Y-113478095D01*
X111364761Y-112668571D02*
X111412380Y-112525714D01*
X111412380Y-112287619D01*
X111364761Y-112192380D01*
X111317142Y-112144761D01*
X111221904Y-112097142D01*
X111126666Y-112097142D01*
X111031428Y-112144761D01*
X110983809Y-112192380D01*
X110936190Y-112287619D01*
X110888571Y-112478095D01*
X110840952Y-112573333D01*
X110793333Y-112620952D01*
X110698095Y-112668571D01*
X110602857Y-112668571D01*
X110507619Y-112620952D01*
X110460000Y-112573333D01*
X110412380Y-112478095D01*
X110412380Y-112240000D01*
X110460000Y-112097142D01*
X111412380Y-111668571D02*
X110412380Y-111668571D01*
X108824761Y-114525714D02*
X108872380Y-114382857D01*
X108872380Y-114144761D01*
X108824761Y-114049523D01*
X108777142Y-114001904D01*
X108681904Y-113954285D01*
X108586666Y-113954285D01*
X108491428Y-114001904D01*
X108443809Y-114049523D01*
X108396190Y-114144761D01*
X108348571Y-114335238D01*
X108300952Y-114430476D01*
X108253333Y-114478095D01*
X108158095Y-114525714D01*
X108062857Y-114525714D01*
X107967619Y-114478095D01*
X107920000Y-114430476D01*
X107872380Y-114335238D01*
X107872380Y-114097142D01*
X107920000Y-113954285D01*
X108777142Y-112954285D02*
X108824761Y-113001904D01*
X108872380Y-113144761D01*
X108872380Y-113240000D01*
X108824761Y-113382857D01*
X108729523Y-113478095D01*
X108634285Y-113525714D01*
X108443809Y-113573333D01*
X108300952Y-113573333D01*
X108110476Y-113525714D01*
X108015238Y-113478095D01*
X107920000Y-113382857D01*
X107872380Y-113240000D01*
X107872380Y-113144761D01*
X107920000Y-113001904D01*
X107967619Y-112954285D01*
X108872380Y-112525714D02*
X107872380Y-112525714D01*
X108872380Y-111954285D02*
X108300952Y-112382857D01*
X107872380Y-111954285D02*
X108443809Y-112525714D01*
X106332380Y-114144761D02*
X105332380Y-114144761D01*
X106332380Y-113668571D02*
X105332380Y-113668571D01*
X106332380Y-113097142D01*
X105332380Y-113097142D01*
X105332380Y-112763809D02*
X105332380Y-112192380D01*
X106332380Y-112478095D02*
X105332380Y-112478095D01*
M02*
