M48
; DRILL file {KiCad (5.1.4)-1} date 3/19/2020 12:59:58 PM
; FORMAT={-:-/ absolute / inch / decimal}
; #@! TF.CreationDate,2020-03-19T12:59:58-06:00
; #@! TF.GenerationSoftware,Kicad,Pcbnew,(5.1.4)-1
; #@! TF.FileFunction,Plated,1,2,PTH
FMAT,2
INCH
T1C0.0315
T2C0.0394
T3C0.0400
T4C0.1260
%
G90
G05
T1
X4.6654Y-4.7539
X4.7638Y-4.7539
X6.2697Y-3.1398
X6.3681Y-3.1398
X7.6575Y-4.7539
X7.7559Y-4.7539
X5.8268Y-4.7539
X5.9252Y-4.7539
T2
X4.1685Y-4.5833
X4.2685Y-4.5833
X4.3685Y-4.5833
X4.4185Y-3.4833
X4.4685Y-4.5833
X4.5185Y-3.4833
X4.5685Y-4.5833
X4.6685Y-4.5833
X4.7685Y-4.5833
X4.9185Y-3.3833
X4.9185Y-3.4833
X5.3102Y-4.5833
X5.4102Y-4.5833
X5.5102Y-4.5833
X5.5602Y-3.4833
X5.6102Y-4.5833
X5.6602Y-3.4833
X5.7102Y-4.5833
X5.8102Y-4.5833
X5.9102Y-4.5833
X6.0602Y-3.3833
X6.0602Y-3.4833
X7.2394Y-4.5833
X7.3394Y-4.5833
X7.4394Y-4.5833
X7.4894Y-3.4833
X7.5394Y-4.5833
X7.5894Y-3.4833
X7.6394Y-4.5833
X7.7394Y-4.5833
X7.8394Y-4.5833
X7.9894Y-3.3833
X7.9894Y-3.4833
T3
X6.2713Y-3.3283
X6.2713Y-3.4283
X6.2713Y-3.5283
X6.2713Y-3.6283
X6.2713Y-3.7283
X6.2713Y-3.8283
X6.2713Y-3.9283
X6.2713Y-4.0283
X6.2713Y-4.1283
X6.2713Y-4.2283
X6.2713Y-4.3283
X6.2713Y-4.4283
X6.6713Y-4.4283
X6.7713Y-3.6783
X6.7713Y-3.7783
X6.7713Y-4.4283
X6.8713Y-3.3283
X6.8713Y-3.4283
X6.8713Y-3.5283
X6.8713Y-3.6283
X6.8713Y-3.7283
X6.8713Y-3.8283
X6.8713Y-3.9283
X6.8713Y-4.0283
X6.8713Y-4.1283
X6.8713Y-4.2283
X6.8713Y-4.3283
X6.8713Y-4.4283
X5.9646Y-2.8839
X6.0646Y-2.8839
T4
X4.3996Y-2.8248
X7.5492Y-2.8248
X6.5059Y-4.7736
X4.4193Y-4.7835
T0
M30
