G04 #@! TF.GenerationSoftware,KiCad,Pcbnew,(5.1.4)-1*
G04 #@! TF.CreationDate,2020-03-19T13:00:02-06:00*
G04 #@! TF.ProjectId,Axle Ratio Change,41786c65-2052-4617-9469-6f204368616e,rev?*
G04 #@! TF.SameCoordinates,Original*
G04 #@! TF.FileFunction,Soldermask,Top*
G04 #@! TF.FilePolarity,Negative*
%FSLAX46Y46*%
G04 Gerber Fmt 4.6, Leading zero omitted, Abs format (unit mm)*
G04 Created by KiCad (PCBNEW (5.1.4)-1) date 2020-03-19 13:00:02*
%MOMM*%
%LPD*%
G04 APERTURE LIST*
%ADD10C,0.100000*%
G04 APERTURE END LIST*
D10*
G36*
X112884239Y-118311467D02*
G01*
X113198282Y-118373934D01*
X113789926Y-118619001D01*
X114322392Y-118974784D01*
X114775216Y-119427608D01*
X115130999Y-119960074D01*
X115376066Y-120551718D01*
X115501000Y-121179804D01*
X115501000Y-121820196D01*
X115376066Y-122448282D01*
X115130999Y-123039926D01*
X114775216Y-123572392D01*
X114322392Y-124025216D01*
X113789926Y-124380999D01*
X113198282Y-124626066D01*
X112884239Y-124688533D01*
X112570197Y-124751000D01*
X111929803Y-124751000D01*
X111615761Y-124688533D01*
X111301718Y-124626066D01*
X110710074Y-124380999D01*
X110177608Y-124025216D01*
X109724784Y-123572392D01*
X109369001Y-123039926D01*
X109123934Y-122448282D01*
X108999000Y-121820196D01*
X108999000Y-121179804D01*
X109123934Y-120551718D01*
X109369001Y-119960074D01*
X109724784Y-119427608D01*
X110177608Y-118974784D01*
X110710074Y-118619001D01*
X111301718Y-118373934D01*
X111615761Y-118311467D01*
X111929803Y-118249000D01*
X112570197Y-118249000D01*
X112884239Y-118311467D01*
X112884239Y-118311467D01*
G37*
G36*
X165884239Y-118061467D02*
G01*
X166198282Y-118123934D01*
X166789926Y-118369001D01*
X167322392Y-118724784D01*
X167775216Y-119177608D01*
X168130999Y-119710074D01*
X168376066Y-120301718D01*
X168501000Y-120929804D01*
X168501000Y-121570196D01*
X168376066Y-122198282D01*
X168130999Y-122789926D01*
X167775216Y-123322392D01*
X167322392Y-123775216D01*
X166789926Y-124130999D01*
X166198282Y-124376066D01*
X165884239Y-124438533D01*
X165570197Y-124501000D01*
X164929803Y-124501000D01*
X164615761Y-124438533D01*
X164301718Y-124376066D01*
X163710074Y-124130999D01*
X163177608Y-123775216D01*
X162724784Y-123322392D01*
X162369001Y-122789926D01*
X162123934Y-122198282D01*
X161999000Y-121570196D01*
X161999000Y-120929804D01*
X162123934Y-120301718D01*
X162369001Y-119710074D01*
X162724784Y-119177608D01*
X163177608Y-118724784D01*
X163710074Y-118369001D01*
X164301718Y-118123934D01*
X164615761Y-118061467D01*
X164929803Y-117999000D01*
X165570197Y-117999000D01*
X165884239Y-118061467D01*
X165884239Y-118061467D01*
G37*
G36*
X194748228Y-119931703D02*
G01*
X194903100Y-119995853D01*
X195042481Y-120088985D01*
X195161015Y-120207519D01*
X195254147Y-120346900D01*
X195318297Y-120501772D01*
X195351000Y-120666184D01*
X195351000Y-120833816D01*
X195318297Y-120998228D01*
X195254147Y-121153100D01*
X195161015Y-121292481D01*
X195042481Y-121411015D01*
X194903100Y-121504147D01*
X194748228Y-121568297D01*
X194583816Y-121601000D01*
X194416184Y-121601000D01*
X194251772Y-121568297D01*
X194096900Y-121504147D01*
X193957519Y-121411015D01*
X193838985Y-121292481D01*
X193745853Y-121153100D01*
X193681703Y-120998228D01*
X193649000Y-120833816D01*
X193649000Y-120666184D01*
X193681703Y-120501772D01*
X193745853Y-120346900D01*
X193838985Y-120207519D01*
X193957519Y-120088985D01*
X194096900Y-119995853D01*
X194251772Y-119931703D01*
X194416184Y-119899000D01*
X194583816Y-119899000D01*
X194748228Y-119931703D01*
X194748228Y-119931703D01*
G37*
G36*
X197248228Y-119931703D02*
G01*
X197403100Y-119995853D01*
X197542481Y-120088985D01*
X197661015Y-120207519D01*
X197754147Y-120346900D01*
X197818297Y-120501772D01*
X197851000Y-120666184D01*
X197851000Y-120833816D01*
X197818297Y-120998228D01*
X197754147Y-121153100D01*
X197661015Y-121292481D01*
X197542481Y-121411015D01*
X197403100Y-121504147D01*
X197248228Y-121568297D01*
X197083816Y-121601000D01*
X196916184Y-121601000D01*
X196751772Y-121568297D01*
X196596900Y-121504147D01*
X196457519Y-121411015D01*
X196338985Y-121292481D01*
X196245853Y-121153100D01*
X196181703Y-120998228D01*
X196149000Y-120833816D01*
X196149000Y-120666184D01*
X196181703Y-120501772D01*
X196245853Y-120346900D01*
X196338985Y-120207519D01*
X196457519Y-120088985D01*
X196596900Y-119995853D01*
X196751772Y-119931703D01*
X196916184Y-119899000D01*
X197083816Y-119899000D01*
X197248228Y-119931703D01*
X197248228Y-119931703D01*
G37*
G36*
X150748228Y-119931703D02*
G01*
X150903100Y-119995853D01*
X151042481Y-120088985D01*
X151161015Y-120207519D01*
X151254147Y-120346900D01*
X151318297Y-120501772D01*
X151351000Y-120666184D01*
X151351000Y-120833816D01*
X151318297Y-120998228D01*
X151254147Y-121153100D01*
X151161015Y-121292481D01*
X151042481Y-121411015D01*
X150903100Y-121504147D01*
X150748228Y-121568297D01*
X150583816Y-121601000D01*
X150416184Y-121601000D01*
X150251772Y-121568297D01*
X150096900Y-121504147D01*
X149957519Y-121411015D01*
X149838985Y-121292481D01*
X149745853Y-121153100D01*
X149681703Y-120998228D01*
X149649000Y-120833816D01*
X149649000Y-120666184D01*
X149681703Y-120501772D01*
X149745853Y-120346900D01*
X149838985Y-120207519D01*
X149957519Y-120088985D01*
X150096900Y-119995853D01*
X150251772Y-119931703D01*
X150416184Y-119899000D01*
X150583816Y-119899000D01*
X150748228Y-119931703D01*
X150748228Y-119931703D01*
G37*
G36*
X118748228Y-119931703D02*
G01*
X118903100Y-119995853D01*
X119042481Y-120088985D01*
X119161015Y-120207519D01*
X119254147Y-120346900D01*
X119318297Y-120501772D01*
X119351000Y-120666184D01*
X119351000Y-120833816D01*
X119318297Y-120998228D01*
X119254147Y-121153100D01*
X119161015Y-121292481D01*
X119042481Y-121411015D01*
X118903100Y-121504147D01*
X118748228Y-121568297D01*
X118583816Y-121601000D01*
X118416184Y-121601000D01*
X118251772Y-121568297D01*
X118096900Y-121504147D01*
X117957519Y-121411015D01*
X117838985Y-121292481D01*
X117745853Y-121153100D01*
X117681703Y-120998228D01*
X117649000Y-120833816D01*
X117649000Y-120666184D01*
X117681703Y-120501772D01*
X117745853Y-120346900D01*
X117838985Y-120207519D01*
X117957519Y-120088985D01*
X118096900Y-119995853D01*
X118251772Y-119931703D01*
X118416184Y-119899000D01*
X118583816Y-119899000D01*
X118748228Y-119931703D01*
X118748228Y-119931703D01*
G37*
G36*
X121248228Y-119931703D02*
G01*
X121403100Y-119995853D01*
X121542481Y-120088985D01*
X121661015Y-120207519D01*
X121754147Y-120346900D01*
X121818297Y-120501772D01*
X121851000Y-120666184D01*
X121851000Y-120833816D01*
X121818297Y-120998228D01*
X121754147Y-121153100D01*
X121661015Y-121292481D01*
X121542481Y-121411015D01*
X121403100Y-121504147D01*
X121248228Y-121568297D01*
X121083816Y-121601000D01*
X120916184Y-121601000D01*
X120751772Y-121568297D01*
X120596900Y-121504147D01*
X120457519Y-121411015D01*
X120338985Y-121292481D01*
X120245853Y-121153100D01*
X120181703Y-120998228D01*
X120149000Y-120833816D01*
X120149000Y-120666184D01*
X120181703Y-120501772D01*
X120245853Y-120346900D01*
X120338985Y-120207519D01*
X120457519Y-120088985D01*
X120596900Y-119995853D01*
X120751772Y-119931703D01*
X120916184Y-119899000D01*
X121083816Y-119899000D01*
X121248228Y-119931703D01*
X121248228Y-119931703D01*
G37*
G36*
X148248228Y-119931703D02*
G01*
X148403100Y-119995853D01*
X148542481Y-120088985D01*
X148661015Y-120207519D01*
X148754147Y-120346900D01*
X148818297Y-120501772D01*
X148851000Y-120666184D01*
X148851000Y-120833816D01*
X148818297Y-120998228D01*
X148754147Y-121153100D01*
X148661015Y-121292481D01*
X148542481Y-121411015D01*
X148403100Y-121504147D01*
X148248228Y-121568297D01*
X148083816Y-121601000D01*
X147916184Y-121601000D01*
X147751772Y-121568297D01*
X147596900Y-121504147D01*
X147457519Y-121411015D01*
X147338985Y-121292481D01*
X147245853Y-121153100D01*
X147181703Y-120998228D01*
X147149000Y-120833816D01*
X147149000Y-120666184D01*
X147181703Y-120501772D01*
X147245853Y-120346900D01*
X147338985Y-120207519D01*
X147457519Y-120088985D01*
X147596900Y-119995853D01*
X147751772Y-119931703D01*
X147916184Y-119899000D01*
X148083816Y-119899000D01*
X148248228Y-119931703D01*
X148248228Y-119931703D01*
G37*
G36*
X134993512Y-115518927D02*
G01*
X135142812Y-115548624D01*
X135306784Y-115616544D01*
X135454354Y-115715147D01*
X135579853Y-115840646D01*
X135678456Y-115988216D01*
X135746376Y-116152188D01*
X135781000Y-116326259D01*
X135781000Y-116503741D01*
X135746376Y-116677812D01*
X135678456Y-116841784D01*
X135579853Y-116989354D01*
X135454354Y-117114853D01*
X135306784Y-117213456D01*
X135142812Y-117281376D01*
X134993512Y-117311073D01*
X134968742Y-117316000D01*
X134791258Y-117316000D01*
X134766488Y-117311073D01*
X134617188Y-117281376D01*
X134453216Y-117213456D01*
X134305646Y-117114853D01*
X134180147Y-116989354D01*
X134081544Y-116841784D01*
X134013624Y-116677812D01*
X133979000Y-116503741D01*
X133979000Y-116326259D01*
X134013624Y-116152188D01*
X134081544Y-115988216D01*
X134180147Y-115840646D01*
X134305646Y-115715147D01*
X134453216Y-115616544D01*
X134617188Y-115548624D01*
X134766488Y-115518927D01*
X134791258Y-115514000D01*
X134968742Y-115514000D01*
X134993512Y-115518927D01*
X134993512Y-115518927D01*
G37*
G36*
X121233512Y-115518927D02*
G01*
X121382812Y-115548624D01*
X121546784Y-115616544D01*
X121694354Y-115715147D01*
X121819853Y-115840646D01*
X121918456Y-115988216D01*
X121986376Y-116152188D01*
X122021000Y-116326259D01*
X122021000Y-116503741D01*
X121986376Y-116677812D01*
X121918456Y-116841784D01*
X121819853Y-116989354D01*
X121694354Y-117114853D01*
X121546784Y-117213456D01*
X121382812Y-117281376D01*
X121233512Y-117311073D01*
X121208742Y-117316000D01*
X121031258Y-117316000D01*
X121006488Y-117311073D01*
X120857188Y-117281376D01*
X120693216Y-117213456D01*
X120545646Y-117114853D01*
X120420147Y-116989354D01*
X120321544Y-116841784D01*
X120253624Y-116677812D01*
X120219000Y-116503741D01*
X120219000Y-116326259D01*
X120253624Y-116152188D01*
X120321544Y-115988216D01*
X120420147Y-115840646D01*
X120545646Y-115715147D01*
X120693216Y-115616544D01*
X120857188Y-115548624D01*
X121006488Y-115518927D01*
X121031258Y-115514000D01*
X121208742Y-115514000D01*
X121233512Y-115518927D01*
X121233512Y-115518927D01*
G37*
G36*
X183993512Y-115518927D02*
G01*
X184142812Y-115548624D01*
X184306784Y-115616544D01*
X184454354Y-115715147D01*
X184579853Y-115840646D01*
X184678456Y-115988216D01*
X184746376Y-116152188D01*
X184781000Y-116326259D01*
X184781000Y-116503741D01*
X184746376Y-116677812D01*
X184678456Y-116841784D01*
X184579853Y-116989354D01*
X184454354Y-117114853D01*
X184306784Y-117213456D01*
X184142812Y-117281376D01*
X183993512Y-117311073D01*
X183968742Y-117316000D01*
X183791258Y-117316000D01*
X183766488Y-117311073D01*
X183617188Y-117281376D01*
X183453216Y-117213456D01*
X183305646Y-117114853D01*
X183180147Y-116989354D01*
X183081544Y-116841784D01*
X183013624Y-116677812D01*
X182979000Y-116503741D01*
X182979000Y-116326259D01*
X183013624Y-116152188D01*
X183081544Y-115988216D01*
X183180147Y-115840646D01*
X183305646Y-115715147D01*
X183453216Y-115616544D01*
X183617188Y-115548624D01*
X183766488Y-115518927D01*
X183791258Y-115514000D01*
X183968742Y-115514000D01*
X183993512Y-115518927D01*
X183993512Y-115518927D01*
G37*
G36*
X186533512Y-115518927D02*
G01*
X186682812Y-115548624D01*
X186846784Y-115616544D01*
X186994354Y-115715147D01*
X187119853Y-115840646D01*
X187218456Y-115988216D01*
X187286376Y-116152188D01*
X187321000Y-116326259D01*
X187321000Y-116503741D01*
X187286376Y-116677812D01*
X187218456Y-116841784D01*
X187119853Y-116989354D01*
X186994354Y-117114853D01*
X186846784Y-117213456D01*
X186682812Y-117281376D01*
X186533512Y-117311073D01*
X186508742Y-117316000D01*
X186331258Y-117316000D01*
X186306488Y-117311073D01*
X186157188Y-117281376D01*
X185993216Y-117213456D01*
X185845646Y-117114853D01*
X185720147Y-116989354D01*
X185621544Y-116841784D01*
X185553624Y-116677812D01*
X185519000Y-116503741D01*
X185519000Y-116326259D01*
X185553624Y-116152188D01*
X185621544Y-115988216D01*
X185720147Y-115840646D01*
X185845646Y-115715147D01*
X185993216Y-115616544D01*
X186157188Y-115548624D01*
X186306488Y-115518927D01*
X186331258Y-115514000D01*
X186508742Y-115514000D01*
X186533512Y-115518927D01*
X186533512Y-115518927D01*
G37*
G36*
X189073512Y-115518927D02*
G01*
X189222812Y-115548624D01*
X189386784Y-115616544D01*
X189534354Y-115715147D01*
X189659853Y-115840646D01*
X189758456Y-115988216D01*
X189826376Y-116152188D01*
X189861000Y-116326259D01*
X189861000Y-116503741D01*
X189826376Y-116677812D01*
X189758456Y-116841784D01*
X189659853Y-116989354D01*
X189534354Y-117114853D01*
X189386784Y-117213456D01*
X189222812Y-117281376D01*
X189073512Y-117311073D01*
X189048742Y-117316000D01*
X188871258Y-117316000D01*
X188846488Y-117311073D01*
X188697188Y-117281376D01*
X188533216Y-117213456D01*
X188385646Y-117114853D01*
X188260147Y-116989354D01*
X188161544Y-116841784D01*
X188093624Y-116677812D01*
X188059000Y-116503741D01*
X188059000Y-116326259D01*
X188093624Y-116152188D01*
X188161544Y-115988216D01*
X188260147Y-115840646D01*
X188385646Y-115715147D01*
X188533216Y-115616544D01*
X188697188Y-115548624D01*
X188846488Y-115518927D01*
X188871258Y-115514000D01*
X189048742Y-115514000D01*
X189073512Y-115518927D01*
X189073512Y-115518927D01*
G37*
G36*
X191613512Y-115518927D02*
G01*
X191762812Y-115548624D01*
X191926784Y-115616544D01*
X192074354Y-115715147D01*
X192199853Y-115840646D01*
X192298456Y-115988216D01*
X192366376Y-116152188D01*
X192401000Y-116326259D01*
X192401000Y-116503741D01*
X192366376Y-116677812D01*
X192298456Y-116841784D01*
X192199853Y-116989354D01*
X192074354Y-117114853D01*
X191926784Y-117213456D01*
X191762812Y-117281376D01*
X191613512Y-117311073D01*
X191588742Y-117316000D01*
X191411258Y-117316000D01*
X191386488Y-117311073D01*
X191237188Y-117281376D01*
X191073216Y-117213456D01*
X190925646Y-117114853D01*
X190800147Y-116989354D01*
X190701544Y-116841784D01*
X190633624Y-116677812D01*
X190599000Y-116503741D01*
X190599000Y-116326259D01*
X190633624Y-116152188D01*
X190701544Y-115988216D01*
X190800147Y-115840646D01*
X190925646Y-115715147D01*
X191073216Y-115616544D01*
X191237188Y-115548624D01*
X191386488Y-115518927D01*
X191411258Y-115514000D01*
X191588742Y-115514000D01*
X191613512Y-115518927D01*
X191613512Y-115518927D01*
G37*
G36*
X194153512Y-115518927D02*
G01*
X194302812Y-115548624D01*
X194466784Y-115616544D01*
X194614354Y-115715147D01*
X194739853Y-115840646D01*
X194838456Y-115988216D01*
X194906376Y-116152188D01*
X194941000Y-116326259D01*
X194941000Y-116503741D01*
X194906376Y-116677812D01*
X194838456Y-116841784D01*
X194739853Y-116989354D01*
X194614354Y-117114853D01*
X194466784Y-117213456D01*
X194302812Y-117281376D01*
X194153512Y-117311073D01*
X194128742Y-117316000D01*
X193951258Y-117316000D01*
X193926488Y-117311073D01*
X193777188Y-117281376D01*
X193613216Y-117213456D01*
X193465646Y-117114853D01*
X193340147Y-116989354D01*
X193241544Y-116841784D01*
X193173624Y-116677812D01*
X193139000Y-116503741D01*
X193139000Y-116326259D01*
X193173624Y-116152188D01*
X193241544Y-115988216D01*
X193340147Y-115840646D01*
X193465646Y-115715147D01*
X193613216Y-115616544D01*
X193777188Y-115548624D01*
X193926488Y-115518927D01*
X193951258Y-115514000D01*
X194128742Y-115514000D01*
X194153512Y-115518927D01*
X194153512Y-115518927D01*
G37*
G36*
X196693512Y-115518927D02*
G01*
X196842812Y-115548624D01*
X197006784Y-115616544D01*
X197154354Y-115715147D01*
X197279853Y-115840646D01*
X197378456Y-115988216D01*
X197446376Y-116152188D01*
X197481000Y-116326259D01*
X197481000Y-116503741D01*
X197446376Y-116677812D01*
X197378456Y-116841784D01*
X197279853Y-116989354D01*
X197154354Y-117114853D01*
X197006784Y-117213456D01*
X196842812Y-117281376D01*
X196693512Y-117311073D01*
X196668742Y-117316000D01*
X196491258Y-117316000D01*
X196466488Y-117311073D01*
X196317188Y-117281376D01*
X196153216Y-117213456D01*
X196005646Y-117114853D01*
X195880147Y-116989354D01*
X195781544Y-116841784D01*
X195713624Y-116677812D01*
X195679000Y-116503741D01*
X195679000Y-116326259D01*
X195713624Y-116152188D01*
X195781544Y-115988216D01*
X195880147Y-115840646D01*
X196005646Y-115715147D01*
X196153216Y-115616544D01*
X196317188Y-115548624D01*
X196466488Y-115518927D01*
X196491258Y-115514000D01*
X196668742Y-115514000D01*
X196693512Y-115518927D01*
X196693512Y-115518927D01*
G37*
G36*
X199233512Y-115518927D02*
G01*
X199382812Y-115548624D01*
X199546784Y-115616544D01*
X199694354Y-115715147D01*
X199819853Y-115840646D01*
X199918456Y-115988216D01*
X199986376Y-116152188D01*
X200021000Y-116326259D01*
X200021000Y-116503741D01*
X199986376Y-116677812D01*
X199918456Y-116841784D01*
X199819853Y-116989354D01*
X199694354Y-117114853D01*
X199546784Y-117213456D01*
X199382812Y-117281376D01*
X199233512Y-117311073D01*
X199208742Y-117316000D01*
X199031258Y-117316000D01*
X199006488Y-117311073D01*
X198857188Y-117281376D01*
X198693216Y-117213456D01*
X198545646Y-117114853D01*
X198420147Y-116989354D01*
X198321544Y-116841784D01*
X198253624Y-116677812D01*
X198219000Y-116503741D01*
X198219000Y-116326259D01*
X198253624Y-116152188D01*
X198321544Y-115988216D01*
X198420147Y-115840646D01*
X198545646Y-115715147D01*
X198693216Y-115616544D01*
X198857188Y-115548624D01*
X199006488Y-115518927D01*
X199031258Y-115514000D01*
X199208742Y-115514000D01*
X199233512Y-115518927D01*
X199233512Y-115518927D01*
G37*
G36*
X137533512Y-115518927D02*
G01*
X137682812Y-115548624D01*
X137846784Y-115616544D01*
X137994354Y-115715147D01*
X138119853Y-115840646D01*
X138218456Y-115988216D01*
X138286376Y-116152188D01*
X138321000Y-116326259D01*
X138321000Y-116503741D01*
X138286376Y-116677812D01*
X138218456Y-116841784D01*
X138119853Y-116989354D01*
X137994354Y-117114853D01*
X137846784Y-117213456D01*
X137682812Y-117281376D01*
X137533512Y-117311073D01*
X137508742Y-117316000D01*
X137331258Y-117316000D01*
X137306488Y-117311073D01*
X137157188Y-117281376D01*
X136993216Y-117213456D01*
X136845646Y-117114853D01*
X136720147Y-116989354D01*
X136621544Y-116841784D01*
X136553624Y-116677812D01*
X136519000Y-116503741D01*
X136519000Y-116326259D01*
X136553624Y-116152188D01*
X136621544Y-115988216D01*
X136720147Y-115840646D01*
X136845646Y-115715147D01*
X136993216Y-115616544D01*
X137157188Y-115548624D01*
X137306488Y-115518927D01*
X137331258Y-115514000D01*
X137508742Y-115514000D01*
X137533512Y-115518927D01*
X137533512Y-115518927D01*
G37*
G36*
X118693512Y-115518927D02*
G01*
X118842812Y-115548624D01*
X119006784Y-115616544D01*
X119154354Y-115715147D01*
X119279853Y-115840646D01*
X119378456Y-115988216D01*
X119446376Y-116152188D01*
X119481000Y-116326259D01*
X119481000Y-116503741D01*
X119446376Y-116677812D01*
X119378456Y-116841784D01*
X119279853Y-116989354D01*
X119154354Y-117114853D01*
X119006784Y-117213456D01*
X118842812Y-117281376D01*
X118693512Y-117311073D01*
X118668742Y-117316000D01*
X118491258Y-117316000D01*
X118466488Y-117311073D01*
X118317188Y-117281376D01*
X118153216Y-117213456D01*
X118005646Y-117114853D01*
X117880147Y-116989354D01*
X117781544Y-116841784D01*
X117713624Y-116677812D01*
X117679000Y-116503741D01*
X117679000Y-116326259D01*
X117713624Y-116152188D01*
X117781544Y-115988216D01*
X117880147Y-115840646D01*
X118005646Y-115715147D01*
X118153216Y-115616544D01*
X118317188Y-115548624D01*
X118466488Y-115518927D01*
X118491258Y-115514000D01*
X118668742Y-115514000D01*
X118693512Y-115518927D01*
X118693512Y-115518927D01*
G37*
G36*
X142613512Y-115518927D02*
G01*
X142762812Y-115548624D01*
X142926784Y-115616544D01*
X143074354Y-115715147D01*
X143199853Y-115840646D01*
X143298456Y-115988216D01*
X143366376Y-116152188D01*
X143401000Y-116326259D01*
X143401000Y-116503741D01*
X143366376Y-116677812D01*
X143298456Y-116841784D01*
X143199853Y-116989354D01*
X143074354Y-117114853D01*
X142926784Y-117213456D01*
X142762812Y-117281376D01*
X142613512Y-117311073D01*
X142588742Y-117316000D01*
X142411258Y-117316000D01*
X142386488Y-117311073D01*
X142237188Y-117281376D01*
X142073216Y-117213456D01*
X141925646Y-117114853D01*
X141800147Y-116989354D01*
X141701544Y-116841784D01*
X141633624Y-116677812D01*
X141599000Y-116503741D01*
X141599000Y-116326259D01*
X141633624Y-116152188D01*
X141701544Y-115988216D01*
X141800147Y-115840646D01*
X141925646Y-115715147D01*
X142073216Y-115616544D01*
X142237188Y-115548624D01*
X142386488Y-115518927D01*
X142411258Y-115514000D01*
X142588742Y-115514000D01*
X142613512Y-115518927D01*
X142613512Y-115518927D01*
G37*
G36*
X105993512Y-115518927D02*
G01*
X106142812Y-115548624D01*
X106306784Y-115616544D01*
X106454354Y-115715147D01*
X106579853Y-115840646D01*
X106678456Y-115988216D01*
X106746376Y-116152188D01*
X106781000Y-116326259D01*
X106781000Y-116503741D01*
X106746376Y-116677812D01*
X106678456Y-116841784D01*
X106579853Y-116989354D01*
X106454354Y-117114853D01*
X106306784Y-117213456D01*
X106142812Y-117281376D01*
X105993512Y-117311073D01*
X105968742Y-117316000D01*
X105791258Y-117316000D01*
X105766488Y-117311073D01*
X105617188Y-117281376D01*
X105453216Y-117213456D01*
X105305646Y-117114853D01*
X105180147Y-116989354D01*
X105081544Y-116841784D01*
X105013624Y-116677812D01*
X104979000Y-116503741D01*
X104979000Y-116326259D01*
X105013624Y-116152188D01*
X105081544Y-115988216D01*
X105180147Y-115840646D01*
X105305646Y-115715147D01*
X105453216Y-115616544D01*
X105617188Y-115548624D01*
X105766488Y-115518927D01*
X105791258Y-115514000D01*
X105968742Y-115514000D01*
X105993512Y-115518927D01*
X105993512Y-115518927D01*
G37*
G36*
X108533512Y-115518927D02*
G01*
X108682812Y-115548624D01*
X108846784Y-115616544D01*
X108994354Y-115715147D01*
X109119853Y-115840646D01*
X109218456Y-115988216D01*
X109286376Y-116152188D01*
X109321000Y-116326259D01*
X109321000Y-116503741D01*
X109286376Y-116677812D01*
X109218456Y-116841784D01*
X109119853Y-116989354D01*
X108994354Y-117114853D01*
X108846784Y-117213456D01*
X108682812Y-117281376D01*
X108533512Y-117311073D01*
X108508742Y-117316000D01*
X108331258Y-117316000D01*
X108306488Y-117311073D01*
X108157188Y-117281376D01*
X107993216Y-117213456D01*
X107845646Y-117114853D01*
X107720147Y-116989354D01*
X107621544Y-116841784D01*
X107553624Y-116677812D01*
X107519000Y-116503741D01*
X107519000Y-116326259D01*
X107553624Y-116152188D01*
X107621544Y-115988216D01*
X107720147Y-115840646D01*
X107845646Y-115715147D01*
X107993216Y-115616544D01*
X108157188Y-115548624D01*
X108306488Y-115518927D01*
X108331258Y-115514000D01*
X108508742Y-115514000D01*
X108533512Y-115518927D01*
X108533512Y-115518927D01*
G37*
G36*
X111073512Y-115518927D02*
G01*
X111222812Y-115548624D01*
X111386784Y-115616544D01*
X111534354Y-115715147D01*
X111659853Y-115840646D01*
X111758456Y-115988216D01*
X111826376Y-116152188D01*
X111861000Y-116326259D01*
X111861000Y-116503741D01*
X111826376Y-116677812D01*
X111758456Y-116841784D01*
X111659853Y-116989354D01*
X111534354Y-117114853D01*
X111386784Y-117213456D01*
X111222812Y-117281376D01*
X111073512Y-117311073D01*
X111048742Y-117316000D01*
X110871258Y-117316000D01*
X110846488Y-117311073D01*
X110697188Y-117281376D01*
X110533216Y-117213456D01*
X110385646Y-117114853D01*
X110260147Y-116989354D01*
X110161544Y-116841784D01*
X110093624Y-116677812D01*
X110059000Y-116503741D01*
X110059000Y-116326259D01*
X110093624Y-116152188D01*
X110161544Y-115988216D01*
X110260147Y-115840646D01*
X110385646Y-115715147D01*
X110533216Y-115616544D01*
X110697188Y-115548624D01*
X110846488Y-115518927D01*
X110871258Y-115514000D01*
X111048742Y-115514000D01*
X111073512Y-115518927D01*
X111073512Y-115518927D01*
G37*
G36*
X113613512Y-115518927D02*
G01*
X113762812Y-115548624D01*
X113926784Y-115616544D01*
X114074354Y-115715147D01*
X114199853Y-115840646D01*
X114298456Y-115988216D01*
X114366376Y-116152188D01*
X114401000Y-116326259D01*
X114401000Y-116503741D01*
X114366376Y-116677812D01*
X114298456Y-116841784D01*
X114199853Y-116989354D01*
X114074354Y-117114853D01*
X113926784Y-117213456D01*
X113762812Y-117281376D01*
X113613512Y-117311073D01*
X113588742Y-117316000D01*
X113411258Y-117316000D01*
X113386488Y-117311073D01*
X113237188Y-117281376D01*
X113073216Y-117213456D01*
X112925646Y-117114853D01*
X112800147Y-116989354D01*
X112701544Y-116841784D01*
X112633624Y-116677812D01*
X112599000Y-116503741D01*
X112599000Y-116326259D01*
X112633624Y-116152188D01*
X112701544Y-115988216D01*
X112800147Y-115840646D01*
X112925646Y-115715147D01*
X113073216Y-115616544D01*
X113237188Y-115548624D01*
X113386488Y-115518927D01*
X113411258Y-115514000D01*
X113588742Y-115514000D01*
X113613512Y-115518927D01*
X113613512Y-115518927D01*
G37*
G36*
X116153512Y-115518927D02*
G01*
X116302812Y-115548624D01*
X116466784Y-115616544D01*
X116614354Y-115715147D01*
X116739853Y-115840646D01*
X116838456Y-115988216D01*
X116906376Y-116152188D01*
X116941000Y-116326259D01*
X116941000Y-116503741D01*
X116906376Y-116677812D01*
X116838456Y-116841784D01*
X116739853Y-116989354D01*
X116614354Y-117114853D01*
X116466784Y-117213456D01*
X116302812Y-117281376D01*
X116153512Y-117311073D01*
X116128742Y-117316000D01*
X115951258Y-117316000D01*
X115926488Y-117311073D01*
X115777188Y-117281376D01*
X115613216Y-117213456D01*
X115465646Y-117114853D01*
X115340147Y-116989354D01*
X115241544Y-116841784D01*
X115173624Y-116677812D01*
X115139000Y-116503741D01*
X115139000Y-116326259D01*
X115173624Y-116152188D01*
X115241544Y-115988216D01*
X115340147Y-115840646D01*
X115465646Y-115715147D01*
X115613216Y-115616544D01*
X115777188Y-115548624D01*
X115926488Y-115518927D01*
X115951258Y-115514000D01*
X116128742Y-115514000D01*
X116153512Y-115518927D01*
X116153512Y-115518927D01*
G37*
G36*
X150233512Y-115518927D02*
G01*
X150382812Y-115548624D01*
X150546784Y-115616544D01*
X150694354Y-115715147D01*
X150819853Y-115840646D01*
X150918456Y-115988216D01*
X150986376Y-116152188D01*
X151021000Y-116326259D01*
X151021000Y-116503741D01*
X150986376Y-116677812D01*
X150918456Y-116841784D01*
X150819853Y-116989354D01*
X150694354Y-117114853D01*
X150546784Y-117213456D01*
X150382812Y-117281376D01*
X150233512Y-117311073D01*
X150208742Y-117316000D01*
X150031258Y-117316000D01*
X150006488Y-117311073D01*
X149857188Y-117281376D01*
X149693216Y-117213456D01*
X149545646Y-117114853D01*
X149420147Y-116989354D01*
X149321544Y-116841784D01*
X149253624Y-116677812D01*
X149219000Y-116503741D01*
X149219000Y-116326259D01*
X149253624Y-116152188D01*
X149321544Y-115988216D01*
X149420147Y-115840646D01*
X149545646Y-115715147D01*
X149693216Y-115616544D01*
X149857188Y-115548624D01*
X150006488Y-115518927D01*
X150031258Y-115514000D01*
X150208742Y-115514000D01*
X150233512Y-115518927D01*
X150233512Y-115518927D01*
G37*
G36*
X147693512Y-115518927D02*
G01*
X147842812Y-115548624D01*
X148006784Y-115616544D01*
X148154354Y-115715147D01*
X148279853Y-115840646D01*
X148378456Y-115988216D01*
X148446376Y-116152188D01*
X148481000Y-116326259D01*
X148481000Y-116503741D01*
X148446376Y-116677812D01*
X148378456Y-116841784D01*
X148279853Y-116989354D01*
X148154354Y-117114853D01*
X148006784Y-117213456D01*
X147842812Y-117281376D01*
X147693512Y-117311073D01*
X147668742Y-117316000D01*
X147491258Y-117316000D01*
X147466488Y-117311073D01*
X147317188Y-117281376D01*
X147153216Y-117213456D01*
X147005646Y-117114853D01*
X146880147Y-116989354D01*
X146781544Y-116841784D01*
X146713624Y-116677812D01*
X146679000Y-116503741D01*
X146679000Y-116326259D01*
X146713624Y-116152188D01*
X146781544Y-115988216D01*
X146880147Y-115840646D01*
X147005646Y-115715147D01*
X147153216Y-115616544D01*
X147317188Y-115548624D01*
X147466488Y-115518927D01*
X147491258Y-115514000D01*
X147668742Y-115514000D01*
X147693512Y-115518927D01*
X147693512Y-115518927D01*
G37*
G36*
X145153512Y-115518927D02*
G01*
X145302812Y-115548624D01*
X145466784Y-115616544D01*
X145614354Y-115715147D01*
X145739853Y-115840646D01*
X145838456Y-115988216D01*
X145906376Y-116152188D01*
X145941000Y-116326259D01*
X145941000Y-116503741D01*
X145906376Y-116677812D01*
X145838456Y-116841784D01*
X145739853Y-116989354D01*
X145614354Y-117114853D01*
X145466784Y-117213456D01*
X145302812Y-117281376D01*
X145153512Y-117311073D01*
X145128742Y-117316000D01*
X144951258Y-117316000D01*
X144926488Y-117311073D01*
X144777188Y-117281376D01*
X144613216Y-117213456D01*
X144465646Y-117114853D01*
X144340147Y-116989354D01*
X144241544Y-116841784D01*
X144173624Y-116677812D01*
X144139000Y-116503741D01*
X144139000Y-116326259D01*
X144173624Y-116152188D01*
X144241544Y-115988216D01*
X144340147Y-115840646D01*
X144465646Y-115715147D01*
X144613216Y-115616544D01*
X144777188Y-115548624D01*
X144926488Y-115518927D01*
X144951258Y-115514000D01*
X145128742Y-115514000D01*
X145153512Y-115518927D01*
X145153512Y-115518927D01*
G37*
G36*
X140073512Y-115518927D02*
G01*
X140222812Y-115548624D01*
X140386784Y-115616544D01*
X140534354Y-115715147D01*
X140659853Y-115840646D01*
X140758456Y-115988216D01*
X140826376Y-116152188D01*
X140861000Y-116326259D01*
X140861000Y-116503741D01*
X140826376Y-116677812D01*
X140758456Y-116841784D01*
X140659853Y-116989354D01*
X140534354Y-117114853D01*
X140386784Y-117213456D01*
X140222812Y-117281376D01*
X140073512Y-117311073D01*
X140048742Y-117316000D01*
X139871258Y-117316000D01*
X139846488Y-117311073D01*
X139697188Y-117281376D01*
X139533216Y-117213456D01*
X139385646Y-117114853D01*
X139260147Y-116989354D01*
X139161544Y-116841784D01*
X139093624Y-116677812D01*
X139059000Y-116503741D01*
X139059000Y-116326259D01*
X139093624Y-116152188D01*
X139161544Y-115988216D01*
X139260147Y-115840646D01*
X139385646Y-115715147D01*
X139533216Y-115616544D01*
X139697188Y-115548624D01*
X139846488Y-115518927D01*
X139871258Y-115514000D01*
X140048742Y-115514000D01*
X140073512Y-115518927D01*
X140073512Y-115518927D01*
G37*
G36*
X159403512Y-111583927D02*
G01*
X159552812Y-111613624D01*
X159716784Y-111681544D01*
X159864354Y-111780147D01*
X159989853Y-111905646D01*
X160088456Y-112053216D01*
X160156376Y-112217188D01*
X160191000Y-112391259D01*
X160191000Y-112568741D01*
X160156376Y-112742812D01*
X160088456Y-112906784D01*
X159989853Y-113054354D01*
X159864354Y-113179853D01*
X159716784Y-113278456D01*
X159552812Y-113346376D01*
X159403512Y-113376073D01*
X159378742Y-113381000D01*
X159201258Y-113381000D01*
X159176488Y-113376073D01*
X159027188Y-113346376D01*
X158863216Y-113278456D01*
X158715646Y-113179853D01*
X158590147Y-113054354D01*
X158491544Y-112906784D01*
X158423624Y-112742812D01*
X158389000Y-112568741D01*
X158389000Y-112391259D01*
X158423624Y-112217188D01*
X158491544Y-112053216D01*
X158590147Y-111905646D01*
X158715646Y-111780147D01*
X158863216Y-111681544D01*
X159027188Y-111613624D01*
X159176488Y-111583927D01*
X159201258Y-111579000D01*
X159378742Y-111579000D01*
X159403512Y-111583927D01*
X159403512Y-111583927D01*
G37*
G36*
X174643512Y-111583927D02*
G01*
X174792812Y-111613624D01*
X174956784Y-111681544D01*
X175104354Y-111780147D01*
X175229853Y-111905646D01*
X175328456Y-112053216D01*
X175396376Y-112217188D01*
X175431000Y-112391259D01*
X175431000Y-112568741D01*
X175396376Y-112742812D01*
X175328456Y-112906784D01*
X175229853Y-113054354D01*
X175104354Y-113179853D01*
X174956784Y-113278456D01*
X174792812Y-113346376D01*
X174643512Y-113376073D01*
X174618742Y-113381000D01*
X174441258Y-113381000D01*
X174416488Y-113376073D01*
X174267188Y-113346376D01*
X174103216Y-113278456D01*
X173955646Y-113179853D01*
X173830147Y-113054354D01*
X173731544Y-112906784D01*
X173663624Y-112742812D01*
X173629000Y-112568741D01*
X173629000Y-112391259D01*
X173663624Y-112217188D01*
X173731544Y-112053216D01*
X173830147Y-111905646D01*
X173955646Y-111780147D01*
X174103216Y-111681544D01*
X174267188Y-111613624D01*
X174416488Y-111583927D01*
X174441258Y-111579000D01*
X174618742Y-111579000D01*
X174643512Y-111583927D01*
X174643512Y-111583927D01*
G37*
G36*
X172103512Y-111583927D02*
G01*
X172252812Y-111613624D01*
X172416784Y-111681544D01*
X172564354Y-111780147D01*
X172689853Y-111905646D01*
X172788456Y-112053216D01*
X172856376Y-112217188D01*
X172891000Y-112391259D01*
X172891000Y-112568741D01*
X172856376Y-112742812D01*
X172788456Y-112906784D01*
X172689853Y-113054354D01*
X172564354Y-113179853D01*
X172416784Y-113278456D01*
X172252812Y-113346376D01*
X172103512Y-113376073D01*
X172078742Y-113381000D01*
X171901258Y-113381000D01*
X171876488Y-113376073D01*
X171727188Y-113346376D01*
X171563216Y-113278456D01*
X171415646Y-113179853D01*
X171290147Y-113054354D01*
X171191544Y-112906784D01*
X171123624Y-112742812D01*
X171089000Y-112568741D01*
X171089000Y-112391259D01*
X171123624Y-112217188D01*
X171191544Y-112053216D01*
X171290147Y-111905646D01*
X171415646Y-111780147D01*
X171563216Y-111681544D01*
X171727188Y-111613624D01*
X171876488Y-111583927D01*
X171901258Y-111579000D01*
X172078742Y-111579000D01*
X172103512Y-111583927D01*
X172103512Y-111583927D01*
G37*
G36*
X169563512Y-111583927D02*
G01*
X169712812Y-111613624D01*
X169876784Y-111681544D01*
X170024354Y-111780147D01*
X170149853Y-111905646D01*
X170248456Y-112053216D01*
X170316376Y-112217188D01*
X170351000Y-112391259D01*
X170351000Y-112568741D01*
X170316376Y-112742812D01*
X170248456Y-112906784D01*
X170149853Y-113054354D01*
X170024354Y-113179853D01*
X169876784Y-113278456D01*
X169712812Y-113346376D01*
X169563512Y-113376073D01*
X169538742Y-113381000D01*
X169361258Y-113381000D01*
X169336488Y-113376073D01*
X169187188Y-113346376D01*
X169023216Y-113278456D01*
X168875646Y-113179853D01*
X168750147Y-113054354D01*
X168651544Y-112906784D01*
X168583624Y-112742812D01*
X168549000Y-112568741D01*
X168549000Y-112391259D01*
X168583624Y-112217188D01*
X168651544Y-112053216D01*
X168750147Y-111905646D01*
X168875646Y-111780147D01*
X169023216Y-111681544D01*
X169187188Y-111613624D01*
X169336488Y-111583927D01*
X169361258Y-111579000D01*
X169538742Y-111579000D01*
X169563512Y-111583927D01*
X169563512Y-111583927D01*
G37*
G36*
X159403512Y-109043927D02*
G01*
X159552812Y-109073624D01*
X159716784Y-109141544D01*
X159864354Y-109240147D01*
X159989853Y-109365646D01*
X160088456Y-109513216D01*
X160156376Y-109677188D01*
X160191000Y-109851259D01*
X160191000Y-110028741D01*
X160156376Y-110202812D01*
X160088456Y-110366784D01*
X159989853Y-110514354D01*
X159864354Y-110639853D01*
X159716784Y-110738456D01*
X159552812Y-110806376D01*
X159403512Y-110836073D01*
X159378742Y-110841000D01*
X159201258Y-110841000D01*
X159176488Y-110836073D01*
X159027188Y-110806376D01*
X158863216Y-110738456D01*
X158715646Y-110639853D01*
X158590147Y-110514354D01*
X158491544Y-110366784D01*
X158423624Y-110202812D01*
X158389000Y-110028741D01*
X158389000Y-109851259D01*
X158423624Y-109677188D01*
X158491544Y-109513216D01*
X158590147Y-109365646D01*
X158715646Y-109240147D01*
X158863216Y-109141544D01*
X159027188Y-109073624D01*
X159176488Y-109043927D01*
X159201258Y-109039000D01*
X159378742Y-109039000D01*
X159403512Y-109043927D01*
X159403512Y-109043927D01*
G37*
G36*
X174643512Y-109043927D02*
G01*
X174792812Y-109073624D01*
X174956784Y-109141544D01*
X175104354Y-109240147D01*
X175229853Y-109365646D01*
X175328456Y-109513216D01*
X175396376Y-109677188D01*
X175431000Y-109851259D01*
X175431000Y-110028741D01*
X175396376Y-110202812D01*
X175328456Y-110366784D01*
X175229853Y-110514354D01*
X175104354Y-110639853D01*
X174956784Y-110738456D01*
X174792812Y-110806376D01*
X174643512Y-110836073D01*
X174618742Y-110841000D01*
X174441258Y-110841000D01*
X174416488Y-110836073D01*
X174267188Y-110806376D01*
X174103216Y-110738456D01*
X173955646Y-110639853D01*
X173830147Y-110514354D01*
X173731544Y-110366784D01*
X173663624Y-110202812D01*
X173629000Y-110028741D01*
X173629000Y-109851259D01*
X173663624Y-109677188D01*
X173731544Y-109513216D01*
X173830147Y-109365646D01*
X173955646Y-109240147D01*
X174103216Y-109141544D01*
X174267188Y-109073624D01*
X174416488Y-109043927D01*
X174441258Y-109039000D01*
X174618742Y-109039000D01*
X174643512Y-109043927D01*
X174643512Y-109043927D01*
G37*
G36*
X159403512Y-106503927D02*
G01*
X159552812Y-106533624D01*
X159716784Y-106601544D01*
X159864354Y-106700147D01*
X159989853Y-106825646D01*
X160088456Y-106973216D01*
X160156376Y-107137188D01*
X160191000Y-107311259D01*
X160191000Y-107488741D01*
X160156376Y-107662812D01*
X160088456Y-107826784D01*
X159989853Y-107974354D01*
X159864354Y-108099853D01*
X159716784Y-108198456D01*
X159552812Y-108266376D01*
X159403512Y-108296073D01*
X159378742Y-108301000D01*
X159201258Y-108301000D01*
X159176488Y-108296073D01*
X159027188Y-108266376D01*
X158863216Y-108198456D01*
X158715646Y-108099853D01*
X158590147Y-107974354D01*
X158491544Y-107826784D01*
X158423624Y-107662812D01*
X158389000Y-107488741D01*
X158389000Y-107311259D01*
X158423624Y-107137188D01*
X158491544Y-106973216D01*
X158590147Y-106825646D01*
X158715646Y-106700147D01*
X158863216Y-106601544D01*
X159027188Y-106533624D01*
X159176488Y-106503927D01*
X159201258Y-106499000D01*
X159378742Y-106499000D01*
X159403512Y-106503927D01*
X159403512Y-106503927D01*
G37*
G36*
X174643512Y-106503927D02*
G01*
X174792812Y-106533624D01*
X174956784Y-106601544D01*
X175104354Y-106700147D01*
X175229853Y-106825646D01*
X175328456Y-106973216D01*
X175396376Y-107137188D01*
X175431000Y-107311259D01*
X175431000Y-107488741D01*
X175396376Y-107662812D01*
X175328456Y-107826784D01*
X175229853Y-107974354D01*
X175104354Y-108099853D01*
X174956784Y-108198456D01*
X174792812Y-108266376D01*
X174643512Y-108296073D01*
X174618742Y-108301000D01*
X174441258Y-108301000D01*
X174416488Y-108296073D01*
X174267188Y-108266376D01*
X174103216Y-108198456D01*
X173955646Y-108099853D01*
X173830147Y-107974354D01*
X173731544Y-107826784D01*
X173663624Y-107662812D01*
X173629000Y-107488741D01*
X173629000Y-107311259D01*
X173663624Y-107137188D01*
X173731544Y-106973216D01*
X173830147Y-106825646D01*
X173955646Y-106700147D01*
X174103216Y-106601544D01*
X174267188Y-106533624D01*
X174416488Y-106503927D01*
X174441258Y-106499000D01*
X174618742Y-106499000D01*
X174643512Y-106503927D01*
X174643512Y-106503927D01*
G37*
G36*
X159403512Y-103963927D02*
G01*
X159552812Y-103993624D01*
X159716784Y-104061544D01*
X159864354Y-104160147D01*
X159989853Y-104285646D01*
X160088456Y-104433216D01*
X160156376Y-104597188D01*
X160191000Y-104771259D01*
X160191000Y-104948741D01*
X160156376Y-105122812D01*
X160088456Y-105286784D01*
X159989853Y-105434354D01*
X159864354Y-105559853D01*
X159716784Y-105658456D01*
X159552812Y-105726376D01*
X159403512Y-105756073D01*
X159378742Y-105761000D01*
X159201258Y-105761000D01*
X159176488Y-105756073D01*
X159027188Y-105726376D01*
X158863216Y-105658456D01*
X158715646Y-105559853D01*
X158590147Y-105434354D01*
X158491544Y-105286784D01*
X158423624Y-105122812D01*
X158389000Y-104948741D01*
X158389000Y-104771259D01*
X158423624Y-104597188D01*
X158491544Y-104433216D01*
X158590147Y-104285646D01*
X158715646Y-104160147D01*
X158863216Y-104061544D01*
X159027188Y-103993624D01*
X159176488Y-103963927D01*
X159201258Y-103959000D01*
X159378742Y-103959000D01*
X159403512Y-103963927D01*
X159403512Y-103963927D01*
G37*
G36*
X174643512Y-103963927D02*
G01*
X174792812Y-103993624D01*
X174956784Y-104061544D01*
X175104354Y-104160147D01*
X175229853Y-104285646D01*
X175328456Y-104433216D01*
X175396376Y-104597188D01*
X175431000Y-104771259D01*
X175431000Y-104948741D01*
X175396376Y-105122812D01*
X175328456Y-105286784D01*
X175229853Y-105434354D01*
X175104354Y-105559853D01*
X174956784Y-105658456D01*
X174792812Y-105726376D01*
X174643512Y-105756073D01*
X174618742Y-105761000D01*
X174441258Y-105761000D01*
X174416488Y-105756073D01*
X174267188Y-105726376D01*
X174103216Y-105658456D01*
X173955646Y-105559853D01*
X173830147Y-105434354D01*
X173731544Y-105286784D01*
X173663624Y-105122812D01*
X173629000Y-104948741D01*
X173629000Y-104771259D01*
X173663624Y-104597188D01*
X173731544Y-104433216D01*
X173830147Y-104285646D01*
X173955646Y-104160147D01*
X174103216Y-104061544D01*
X174267188Y-103993624D01*
X174416488Y-103963927D01*
X174441258Y-103959000D01*
X174618742Y-103959000D01*
X174643512Y-103963927D01*
X174643512Y-103963927D01*
G37*
G36*
X159403512Y-101423927D02*
G01*
X159552812Y-101453624D01*
X159716784Y-101521544D01*
X159864354Y-101620147D01*
X159989853Y-101745646D01*
X160088456Y-101893216D01*
X160156376Y-102057188D01*
X160191000Y-102231259D01*
X160191000Y-102408741D01*
X160156376Y-102582812D01*
X160088456Y-102746784D01*
X159989853Y-102894354D01*
X159864354Y-103019853D01*
X159716784Y-103118456D01*
X159552812Y-103186376D01*
X159403512Y-103216073D01*
X159378742Y-103221000D01*
X159201258Y-103221000D01*
X159176488Y-103216073D01*
X159027188Y-103186376D01*
X158863216Y-103118456D01*
X158715646Y-103019853D01*
X158590147Y-102894354D01*
X158491544Y-102746784D01*
X158423624Y-102582812D01*
X158389000Y-102408741D01*
X158389000Y-102231259D01*
X158423624Y-102057188D01*
X158491544Y-101893216D01*
X158590147Y-101745646D01*
X158715646Y-101620147D01*
X158863216Y-101521544D01*
X159027188Y-101453624D01*
X159176488Y-101423927D01*
X159201258Y-101419000D01*
X159378742Y-101419000D01*
X159403512Y-101423927D01*
X159403512Y-101423927D01*
G37*
G36*
X174643512Y-101423927D02*
G01*
X174792812Y-101453624D01*
X174956784Y-101521544D01*
X175104354Y-101620147D01*
X175229853Y-101745646D01*
X175328456Y-101893216D01*
X175396376Y-102057188D01*
X175431000Y-102231259D01*
X175431000Y-102408741D01*
X175396376Y-102582812D01*
X175328456Y-102746784D01*
X175229853Y-102894354D01*
X175104354Y-103019853D01*
X174956784Y-103118456D01*
X174792812Y-103186376D01*
X174643512Y-103216073D01*
X174618742Y-103221000D01*
X174441258Y-103221000D01*
X174416488Y-103216073D01*
X174267188Y-103186376D01*
X174103216Y-103118456D01*
X173955646Y-103019853D01*
X173830147Y-102894354D01*
X173731544Y-102746784D01*
X173663624Y-102582812D01*
X173629000Y-102408741D01*
X173629000Y-102231259D01*
X173663624Y-102057188D01*
X173731544Y-101893216D01*
X173830147Y-101745646D01*
X173955646Y-101620147D01*
X174103216Y-101521544D01*
X174267188Y-101453624D01*
X174416488Y-101423927D01*
X174441258Y-101419000D01*
X174618742Y-101419000D01*
X174643512Y-101423927D01*
X174643512Y-101423927D01*
G37*
G36*
X159403512Y-98883927D02*
G01*
X159552812Y-98913624D01*
X159716784Y-98981544D01*
X159864354Y-99080147D01*
X159989853Y-99205646D01*
X160088456Y-99353216D01*
X160156376Y-99517188D01*
X160191000Y-99691259D01*
X160191000Y-99868741D01*
X160156376Y-100042812D01*
X160088456Y-100206784D01*
X159989853Y-100354354D01*
X159864354Y-100479853D01*
X159716784Y-100578456D01*
X159552812Y-100646376D01*
X159403512Y-100676073D01*
X159378742Y-100681000D01*
X159201258Y-100681000D01*
X159176488Y-100676073D01*
X159027188Y-100646376D01*
X158863216Y-100578456D01*
X158715646Y-100479853D01*
X158590147Y-100354354D01*
X158491544Y-100206784D01*
X158423624Y-100042812D01*
X158389000Y-99868741D01*
X158389000Y-99691259D01*
X158423624Y-99517188D01*
X158491544Y-99353216D01*
X158590147Y-99205646D01*
X158715646Y-99080147D01*
X158863216Y-98981544D01*
X159027188Y-98913624D01*
X159176488Y-98883927D01*
X159201258Y-98879000D01*
X159378742Y-98879000D01*
X159403512Y-98883927D01*
X159403512Y-98883927D01*
G37*
G36*
X174643512Y-98883927D02*
G01*
X174792812Y-98913624D01*
X174956784Y-98981544D01*
X175104354Y-99080147D01*
X175229853Y-99205646D01*
X175328456Y-99353216D01*
X175396376Y-99517188D01*
X175431000Y-99691259D01*
X175431000Y-99868741D01*
X175396376Y-100042812D01*
X175328456Y-100206784D01*
X175229853Y-100354354D01*
X175104354Y-100479853D01*
X174956784Y-100578456D01*
X174792812Y-100646376D01*
X174643512Y-100676073D01*
X174618742Y-100681000D01*
X174441258Y-100681000D01*
X174416488Y-100676073D01*
X174267188Y-100646376D01*
X174103216Y-100578456D01*
X173955646Y-100479853D01*
X173830147Y-100354354D01*
X173731544Y-100206784D01*
X173663624Y-100042812D01*
X173629000Y-99868741D01*
X173629000Y-99691259D01*
X173663624Y-99517188D01*
X173731544Y-99353216D01*
X173830147Y-99205646D01*
X173955646Y-99080147D01*
X174103216Y-98981544D01*
X174267188Y-98913624D01*
X174416488Y-98883927D01*
X174441258Y-98879000D01*
X174618742Y-98879000D01*
X174643512Y-98883927D01*
X174643512Y-98883927D01*
G37*
G36*
X159403512Y-96343927D02*
G01*
X159552812Y-96373624D01*
X159716784Y-96441544D01*
X159864354Y-96540147D01*
X159989853Y-96665646D01*
X160088456Y-96813216D01*
X160156376Y-96977188D01*
X160191000Y-97151259D01*
X160191000Y-97328741D01*
X160156376Y-97502812D01*
X160088456Y-97666784D01*
X159989853Y-97814354D01*
X159864354Y-97939853D01*
X159716784Y-98038456D01*
X159552812Y-98106376D01*
X159403512Y-98136073D01*
X159378742Y-98141000D01*
X159201258Y-98141000D01*
X159176488Y-98136073D01*
X159027188Y-98106376D01*
X158863216Y-98038456D01*
X158715646Y-97939853D01*
X158590147Y-97814354D01*
X158491544Y-97666784D01*
X158423624Y-97502812D01*
X158389000Y-97328741D01*
X158389000Y-97151259D01*
X158423624Y-96977188D01*
X158491544Y-96813216D01*
X158590147Y-96665646D01*
X158715646Y-96540147D01*
X158863216Y-96441544D01*
X159027188Y-96373624D01*
X159176488Y-96343927D01*
X159201258Y-96339000D01*
X159378742Y-96339000D01*
X159403512Y-96343927D01*
X159403512Y-96343927D01*
G37*
G36*
X174643512Y-96343927D02*
G01*
X174792812Y-96373624D01*
X174956784Y-96441544D01*
X175104354Y-96540147D01*
X175229853Y-96665646D01*
X175328456Y-96813216D01*
X175396376Y-96977188D01*
X175431000Y-97151259D01*
X175431000Y-97328741D01*
X175396376Y-97502812D01*
X175328456Y-97666784D01*
X175229853Y-97814354D01*
X175104354Y-97939853D01*
X174956784Y-98038456D01*
X174792812Y-98106376D01*
X174643512Y-98136073D01*
X174618742Y-98141000D01*
X174441258Y-98141000D01*
X174416488Y-98136073D01*
X174267188Y-98106376D01*
X174103216Y-98038456D01*
X173955646Y-97939853D01*
X173830147Y-97814354D01*
X173731544Y-97666784D01*
X173663624Y-97502812D01*
X173629000Y-97328741D01*
X173629000Y-97151259D01*
X173663624Y-96977188D01*
X173731544Y-96813216D01*
X173830147Y-96665646D01*
X173955646Y-96540147D01*
X174103216Y-96441544D01*
X174267188Y-96373624D01*
X174416488Y-96343927D01*
X174441258Y-96339000D01*
X174618742Y-96339000D01*
X174643512Y-96343927D01*
X174643512Y-96343927D01*
G37*
G36*
X172103512Y-95073927D02*
G01*
X172252812Y-95103624D01*
X172416784Y-95171544D01*
X172564354Y-95270147D01*
X172689853Y-95395646D01*
X172788456Y-95543216D01*
X172856376Y-95707188D01*
X172891000Y-95881259D01*
X172891000Y-96058741D01*
X172856376Y-96232812D01*
X172788456Y-96396784D01*
X172689853Y-96544354D01*
X172564354Y-96669853D01*
X172416784Y-96768456D01*
X172252812Y-96836376D01*
X172103512Y-96866073D01*
X172078742Y-96871000D01*
X171901258Y-96871000D01*
X171876488Y-96866073D01*
X171727188Y-96836376D01*
X171563216Y-96768456D01*
X171415646Y-96669853D01*
X171290147Y-96544354D01*
X171191544Y-96396784D01*
X171123624Y-96232812D01*
X171089000Y-96058741D01*
X171089000Y-95881259D01*
X171123624Y-95707188D01*
X171191544Y-95543216D01*
X171290147Y-95395646D01*
X171415646Y-95270147D01*
X171563216Y-95171544D01*
X171727188Y-95103624D01*
X171876488Y-95073927D01*
X171901258Y-95069000D01*
X172078742Y-95069000D01*
X172103512Y-95073927D01*
X172103512Y-95073927D01*
G37*
G36*
X159403512Y-93803927D02*
G01*
X159552812Y-93833624D01*
X159716784Y-93901544D01*
X159864354Y-94000147D01*
X159989853Y-94125646D01*
X160088456Y-94273216D01*
X160156376Y-94437188D01*
X160191000Y-94611259D01*
X160191000Y-94788741D01*
X160156376Y-94962812D01*
X160088456Y-95126784D01*
X159989853Y-95274354D01*
X159864354Y-95399853D01*
X159716784Y-95498456D01*
X159552812Y-95566376D01*
X159403512Y-95596073D01*
X159378742Y-95601000D01*
X159201258Y-95601000D01*
X159176488Y-95596073D01*
X159027188Y-95566376D01*
X158863216Y-95498456D01*
X158715646Y-95399853D01*
X158590147Y-95274354D01*
X158491544Y-95126784D01*
X158423624Y-94962812D01*
X158389000Y-94788741D01*
X158389000Y-94611259D01*
X158423624Y-94437188D01*
X158491544Y-94273216D01*
X158590147Y-94125646D01*
X158715646Y-94000147D01*
X158863216Y-93901544D01*
X159027188Y-93833624D01*
X159176488Y-93803927D01*
X159201258Y-93799000D01*
X159378742Y-93799000D01*
X159403512Y-93803927D01*
X159403512Y-93803927D01*
G37*
G36*
X174643512Y-93803927D02*
G01*
X174792812Y-93833624D01*
X174956784Y-93901544D01*
X175104354Y-94000147D01*
X175229853Y-94125646D01*
X175328456Y-94273216D01*
X175396376Y-94437188D01*
X175431000Y-94611259D01*
X175431000Y-94788741D01*
X175396376Y-94962812D01*
X175328456Y-95126784D01*
X175229853Y-95274354D01*
X175104354Y-95399853D01*
X174956784Y-95498456D01*
X174792812Y-95566376D01*
X174643512Y-95596073D01*
X174618742Y-95601000D01*
X174441258Y-95601000D01*
X174416488Y-95596073D01*
X174267188Y-95566376D01*
X174103216Y-95498456D01*
X173955646Y-95399853D01*
X173830147Y-95274354D01*
X173731544Y-95126784D01*
X173663624Y-94962812D01*
X173629000Y-94788741D01*
X173629000Y-94611259D01*
X173663624Y-94437188D01*
X173731544Y-94273216D01*
X173830147Y-94125646D01*
X173955646Y-94000147D01*
X174103216Y-93901544D01*
X174267188Y-93833624D01*
X174416488Y-93803927D01*
X174441258Y-93799000D01*
X174618742Y-93799000D01*
X174643512Y-93803927D01*
X174643512Y-93803927D01*
G37*
G36*
X172103512Y-92533927D02*
G01*
X172252812Y-92563624D01*
X172416784Y-92631544D01*
X172564354Y-92730147D01*
X172689853Y-92855646D01*
X172788456Y-93003216D01*
X172856376Y-93167188D01*
X172891000Y-93341259D01*
X172891000Y-93518741D01*
X172856376Y-93692812D01*
X172788456Y-93856784D01*
X172689853Y-94004354D01*
X172564354Y-94129853D01*
X172416784Y-94228456D01*
X172252812Y-94296376D01*
X172103512Y-94326073D01*
X172078742Y-94331000D01*
X171901258Y-94331000D01*
X171876488Y-94326073D01*
X171727188Y-94296376D01*
X171563216Y-94228456D01*
X171415646Y-94129853D01*
X171290147Y-94004354D01*
X171191544Y-93856784D01*
X171123624Y-93692812D01*
X171089000Y-93518741D01*
X171089000Y-93341259D01*
X171123624Y-93167188D01*
X171191544Y-93003216D01*
X171290147Y-92855646D01*
X171415646Y-92730147D01*
X171563216Y-92631544D01*
X171727188Y-92563624D01*
X171876488Y-92533927D01*
X171901258Y-92529000D01*
X172078742Y-92529000D01*
X172103512Y-92533927D01*
X172103512Y-92533927D01*
G37*
G36*
X174643512Y-91263927D02*
G01*
X174792812Y-91293624D01*
X174956784Y-91361544D01*
X175104354Y-91460147D01*
X175229853Y-91585646D01*
X175328456Y-91733216D01*
X175396376Y-91897188D01*
X175431000Y-92071259D01*
X175431000Y-92248741D01*
X175396376Y-92422812D01*
X175328456Y-92586784D01*
X175229853Y-92734354D01*
X175104354Y-92859853D01*
X174956784Y-92958456D01*
X174792812Y-93026376D01*
X174643512Y-93056073D01*
X174618742Y-93061000D01*
X174441258Y-93061000D01*
X174416488Y-93056073D01*
X174267188Y-93026376D01*
X174103216Y-92958456D01*
X173955646Y-92859853D01*
X173830147Y-92734354D01*
X173731544Y-92586784D01*
X173663624Y-92422812D01*
X173629000Y-92248741D01*
X173629000Y-92071259D01*
X173663624Y-91897188D01*
X173731544Y-91733216D01*
X173830147Y-91585646D01*
X173955646Y-91460147D01*
X174103216Y-91361544D01*
X174267188Y-91293624D01*
X174416488Y-91263927D01*
X174441258Y-91259000D01*
X174618742Y-91259000D01*
X174643512Y-91263927D01*
X174643512Y-91263927D01*
G37*
G36*
X159403512Y-91263927D02*
G01*
X159552812Y-91293624D01*
X159716784Y-91361544D01*
X159864354Y-91460147D01*
X159989853Y-91585646D01*
X160088456Y-91733216D01*
X160156376Y-91897188D01*
X160191000Y-92071259D01*
X160191000Y-92248741D01*
X160156376Y-92422812D01*
X160088456Y-92586784D01*
X159989853Y-92734354D01*
X159864354Y-92859853D01*
X159716784Y-92958456D01*
X159552812Y-93026376D01*
X159403512Y-93056073D01*
X159378742Y-93061000D01*
X159201258Y-93061000D01*
X159176488Y-93056073D01*
X159027188Y-93026376D01*
X158863216Y-92958456D01*
X158715646Y-92859853D01*
X158590147Y-92734354D01*
X158491544Y-92586784D01*
X158423624Y-92422812D01*
X158389000Y-92248741D01*
X158389000Y-92071259D01*
X158423624Y-91897188D01*
X158491544Y-91733216D01*
X158590147Y-91585646D01*
X158715646Y-91460147D01*
X158863216Y-91361544D01*
X159027188Y-91293624D01*
X159176488Y-91263927D01*
X159201258Y-91259000D01*
X159378742Y-91259000D01*
X159403512Y-91263927D01*
X159403512Y-91263927D01*
G37*
G36*
X159403512Y-88723927D02*
G01*
X159552812Y-88753624D01*
X159716784Y-88821544D01*
X159864354Y-88920147D01*
X159989853Y-89045646D01*
X160088456Y-89193216D01*
X160156376Y-89357188D01*
X160191000Y-89531259D01*
X160191000Y-89708741D01*
X160156376Y-89882812D01*
X160088456Y-90046784D01*
X159989853Y-90194354D01*
X159864354Y-90319853D01*
X159716784Y-90418456D01*
X159552812Y-90486376D01*
X159403512Y-90516073D01*
X159378742Y-90521000D01*
X159201258Y-90521000D01*
X159176488Y-90516073D01*
X159027188Y-90486376D01*
X158863216Y-90418456D01*
X158715646Y-90319853D01*
X158590147Y-90194354D01*
X158491544Y-90046784D01*
X158423624Y-89882812D01*
X158389000Y-89708741D01*
X158389000Y-89531259D01*
X158423624Y-89357188D01*
X158491544Y-89193216D01*
X158590147Y-89045646D01*
X158715646Y-88920147D01*
X158863216Y-88821544D01*
X159027188Y-88753624D01*
X159176488Y-88723927D01*
X159201258Y-88719000D01*
X159378742Y-88719000D01*
X159403512Y-88723927D01*
X159403512Y-88723927D01*
G37*
G36*
X174643512Y-88723927D02*
G01*
X174792812Y-88753624D01*
X174956784Y-88821544D01*
X175104354Y-88920147D01*
X175229853Y-89045646D01*
X175328456Y-89193216D01*
X175396376Y-89357188D01*
X175431000Y-89531259D01*
X175431000Y-89708741D01*
X175396376Y-89882812D01*
X175328456Y-90046784D01*
X175229853Y-90194354D01*
X175104354Y-90319853D01*
X174956784Y-90418456D01*
X174792812Y-90486376D01*
X174643512Y-90516073D01*
X174618742Y-90521000D01*
X174441258Y-90521000D01*
X174416488Y-90516073D01*
X174267188Y-90486376D01*
X174103216Y-90418456D01*
X173955646Y-90319853D01*
X173830147Y-90194354D01*
X173731544Y-90046784D01*
X173663624Y-89882812D01*
X173629000Y-89708741D01*
X173629000Y-89531259D01*
X173663624Y-89357188D01*
X173731544Y-89193216D01*
X173830147Y-89045646D01*
X173955646Y-88920147D01*
X174103216Y-88821544D01*
X174267188Y-88753624D01*
X174416488Y-88723927D01*
X174441258Y-88719000D01*
X174618742Y-88719000D01*
X174643512Y-88723927D01*
X174643512Y-88723927D01*
G37*
G36*
X114883512Y-87578927D02*
G01*
X115032812Y-87608624D01*
X115196784Y-87676544D01*
X115344354Y-87775147D01*
X115469853Y-87900646D01*
X115568456Y-88048216D01*
X115636376Y-88212188D01*
X115671000Y-88386259D01*
X115671000Y-88563741D01*
X115636376Y-88737812D01*
X115568456Y-88901784D01*
X115469853Y-89049354D01*
X115344354Y-89174853D01*
X115196784Y-89273456D01*
X115032812Y-89341376D01*
X114883512Y-89371073D01*
X114858742Y-89376000D01*
X114681258Y-89376000D01*
X114656488Y-89371073D01*
X114507188Y-89341376D01*
X114343216Y-89273456D01*
X114195646Y-89174853D01*
X114070147Y-89049354D01*
X113971544Y-88901784D01*
X113903624Y-88737812D01*
X113869000Y-88563741D01*
X113869000Y-88386259D01*
X113903624Y-88212188D01*
X113971544Y-88048216D01*
X114070147Y-87900646D01*
X114195646Y-87775147D01*
X114343216Y-87676544D01*
X114507188Y-87608624D01*
X114656488Y-87578927D01*
X114681258Y-87574000D01*
X114858742Y-87574000D01*
X114883512Y-87578927D01*
X114883512Y-87578927D01*
G37*
G36*
X112343512Y-87578927D02*
G01*
X112492812Y-87608624D01*
X112656784Y-87676544D01*
X112804354Y-87775147D01*
X112929853Y-87900646D01*
X113028456Y-88048216D01*
X113096376Y-88212188D01*
X113131000Y-88386259D01*
X113131000Y-88563741D01*
X113096376Y-88737812D01*
X113028456Y-88901784D01*
X112929853Y-89049354D01*
X112804354Y-89174853D01*
X112656784Y-89273456D01*
X112492812Y-89341376D01*
X112343512Y-89371073D01*
X112318742Y-89376000D01*
X112141258Y-89376000D01*
X112116488Y-89371073D01*
X111967188Y-89341376D01*
X111803216Y-89273456D01*
X111655646Y-89174853D01*
X111530147Y-89049354D01*
X111431544Y-88901784D01*
X111363624Y-88737812D01*
X111329000Y-88563741D01*
X111329000Y-88386259D01*
X111363624Y-88212188D01*
X111431544Y-88048216D01*
X111530147Y-87900646D01*
X111655646Y-87775147D01*
X111803216Y-87676544D01*
X111967188Y-87608624D01*
X112116488Y-87578927D01*
X112141258Y-87574000D01*
X112318742Y-87574000D01*
X112343512Y-87578927D01*
X112343512Y-87578927D01*
G37*
G36*
X125043512Y-87578927D02*
G01*
X125192812Y-87608624D01*
X125356784Y-87676544D01*
X125504354Y-87775147D01*
X125629853Y-87900646D01*
X125728456Y-88048216D01*
X125796376Y-88212188D01*
X125831000Y-88386259D01*
X125831000Y-88563741D01*
X125796376Y-88737812D01*
X125728456Y-88901784D01*
X125629853Y-89049354D01*
X125504354Y-89174853D01*
X125356784Y-89273456D01*
X125192812Y-89341376D01*
X125043512Y-89371073D01*
X125018742Y-89376000D01*
X124841258Y-89376000D01*
X124816488Y-89371073D01*
X124667188Y-89341376D01*
X124503216Y-89273456D01*
X124355646Y-89174853D01*
X124230147Y-89049354D01*
X124131544Y-88901784D01*
X124063624Y-88737812D01*
X124029000Y-88563741D01*
X124029000Y-88386259D01*
X124063624Y-88212188D01*
X124131544Y-88048216D01*
X124230147Y-87900646D01*
X124355646Y-87775147D01*
X124503216Y-87676544D01*
X124667188Y-87608624D01*
X124816488Y-87578927D01*
X124841258Y-87574000D01*
X125018742Y-87574000D01*
X125043512Y-87578927D01*
X125043512Y-87578927D01*
G37*
G36*
X154043512Y-87578927D02*
G01*
X154192812Y-87608624D01*
X154356784Y-87676544D01*
X154504354Y-87775147D01*
X154629853Y-87900646D01*
X154728456Y-88048216D01*
X154796376Y-88212188D01*
X154831000Y-88386259D01*
X154831000Y-88563741D01*
X154796376Y-88737812D01*
X154728456Y-88901784D01*
X154629853Y-89049354D01*
X154504354Y-89174853D01*
X154356784Y-89273456D01*
X154192812Y-89341376D01*
X154043512Y-89371073D01*
X154018742Y-89376000D01*
X153841258Y-89376000D01*
X153816488Y-89371073D01*
X153667188Y-89341376D01*
X153503216Y-89273456D01*
X153355646Y-89174853D01*
X153230147Y-89049354D01*
X153131544Y-88901784D01*
X153063624Y-88737812D01*
X153029000Y-88563741D01*
X153029000Y-88386259D01*
X153063624Y-88212188D01*
X153131544Y-88048216D01*
X153230147Y-87900646D01*
X153355646Y-87775147D01*
X153503216Y-87676544D01*
X153667188Y-87608624D01*
X153816488Y-87578927D01*
X153841258Y-87574000D01*
X154018742Y-87574000D01*
X154043512Y-87578927D01*
X154043512Y-87578927D01*
G37*
G36*
X203043512Y-87578927D02*
G01*
X203192812Y-87608624D01*
X203356784Y-87676544D01*
X203504354Y-87775147D01*
X203629853Y-87900646D01*
X203728456Y-88048216D01*
X203796376Y-88212188D01*
X203831000Y-88386259D01*
X203831000Y-88563741D01*
X203796376Y-88737812D01*
X203728456Y-88901784D01*
X203629853Y-89049354D01*
X203504354Y-89174853D01*
X203356784Y-89273456D01*
X203192812Y-89341376D01*
X203043512Y-89371073D01*
X203018742Y-89376000D01*
X202841258Y-89376000D01*
X202816488Y-89371073D01*
X202667188Y-89341376D01*
X202503216Y-89273456D01*
X202355646Y-89174853D01*
X202230147Y-89049354D01*
X202131544Y-88901784D01*
X202063624Y-88737812D01*
X202029000Y-88563741D01*
X202029000Y-88386259D01*
X202063624Y-88212188D01*
X202131544Y-88048216D01*
X202230147Y-87900646D01*
X202355646Y-87775147D01*
X202503216Y-87676544D01*
X202667188Y-87608624D01*
X202816488Y-87578927D01*
X202841258Y-87574000D01*
X203018742Y-87574000D01*
X203043512Y-87578927D01*
X203043512Y-87578927D01*
G37*
G36*
X141343512Y-87578927D02*
G01*
X141492812Y-87608624D01*
X141656784Y-87676544D01*
X141804354Y-87775147D01*
X141929853Y-87900646D01*
X142028456Y-88048216D01*
X142096376Y-88212188D01*
X142131000Y-88386259D01*
X142131000Y-88563741D01*
X142096376Y-88737812D01*
X142028456Y-88901784D01*
X141929853Y-89049354D01*
X141804354Y-89174853D01*
X141656784Y-89273456D01*
X141492812Y-89341376D01*
X141343512Y-89371073D01*
X141318742Y-89376000D01*
X141141258Y-89376000D01*
X141116488Y-89371073D01*
X140967188Y-89341376D01*
X140803216Y-89273456D01*
X140655646Y-89174853D01*
X140530147Y-89049354D01*
X140431544Y-88901784D01*
X140363624Y-88737812D01*
X140329000Y-88563741D01*
X140329000Y-88386259D01*
X140363624Y-88212188D01*
X140431544Y-88048216D01*
X140530147Y-87900646D01*
X140655646Y-87775147D01*
X140803216Y-87676544D01*
X140967188Y-87608624D01*
X141116488Y-87578927D01*
X141141258Y-87574000D01*
X141318742Y-87574000D01*
X141343512Y-87578927D01*
X141343512Y-87578927D01*
G37*
G36*
X192883512Y-87578927D02*
G01*
X193032812Y-87608624D01*
X193196784Y-87676544D01*
X193344354Y-87775147D01*
X193469853Y-87900646D01*
X193568456Y-88048216D01*
X193636376Y-88212188D01*
X193671000Y-88386259D01*
X193671000Y-88563741D01*
X193636376Y-88737812D01*
X193568456Y-88901784D01*
X193469853Y-89049354D01*
X193344354Y-89174853D01*
X193196784Y-89273456D01*
X193032812Y-89341376D01*
X192883512Y-89371073D01*
X192858742Y-89376000D01*
X192681258Y-89376000D01*
X192656488Y-89371073D01*
X192507188Y-89341376D01*
X192343216Y-89273456D01*
X192195646Y-89174853D01*
X192070147Y-89049354D01*
X191971544Y-88901784D01*
X191903624Y-88737812D01*
X191869000Y-88563741D01*
X191869000Y-88386259D01*
X191903624Y-88212188D01*
X191971544Y-88048216D01*
X192070147Y-87900646D01*
X192195646Y-87775147D01*
X192343216Y-87676544D01*
X192507188Y-87608624D01*
X192656488Y-87578927D01*
X192681258Y-87574000D01*
X192858742Y-87574000D01*
X192883512Y-87578927D01*
X192883512Y-87578927D01*
G37*
G36*
X143883512Y-87578927D02*
G01*
X144032812Y-87608624D01*
X144196784Y-87676544D01*
X144344354Y-87775147D01*
X144469853Y-87900646D01*
X144568456Y-88048216D01*
X144636376Y-88212188D01*
X144671000Y-88386259D01*
X144671000Y-88563741D01*
X144636376Y-88737812D01*
X144568456Y-88901784D01*
X144469853Y-89049354D01*
X144344354Y-89174853D01*
X144196784Y-89273456D01*
X144032812Y-89341376D01*
X143883512Y-89371073D01*
X143858742Y-89376000D01*
X143681258Y-89376000D01*
X143656488Y-89371073D01*
X143507188Y-89341376D01*
X143343216Y-89273456D01*
X143195646Y-89174853D01*
X143070147Y-89049354D01*
X142971544Y-88901784D01*
X142903624Y-88737812D01*
X142869000Y-88563741D01*
X142869000Y-88386259D01*
X142903624Y-88212188D01*
X142971544Y-88048216D01*
X143070147Y-87900646D01*
X143195646Y-87775147D01*
X143343216Y-87676544D01*
X143507188Y-87608624D01*
X143656488Y-87578927D01*
X143681258Y-87574000D01*
X143858742Y-87574000D01*
X143883512Y-87578927D01*
X143883512Y-87578927D01*
G37*
G36*
X190343512Y-87578927D02*
G01*
X190492812Y-87608624D01*
X190656784Y-87676544D01*
X190804354Y-87775147D01*
X190929853Y-87900646D01*
X191028456Y-88048216D01*
X191096376Y-88212188D01*
X191131000Y-88386259D01*
X191131000Y-88563741D01*
X191096376Y-88737812D01*
X191028456Y-88901784D01*
X190929853Y-89049354D01*
X190804354Y-89174853D01*
X190656784Y-89273456D01*
X190492812Y-89341376D01*
X190343512Y-89371073D01*
X190318742Y-89376000D01*
X190141258Y-89376000D01*
X190116488Y-89371073D01*
X189967188Y-89341376D01*
X189803216Y-89273456D01*
X189655646Y-89174853D01*
X189530147Y-89049354D01*
X189431544Y-88901784D01*
X189363624Y-88737812D01*
X189329000Y-88563741D01*
X189329000Y-88386259D01*
X189363624Y-88212188D01*
X189431544Y-88048216D01*
X189530147Y-87900646D01*
X189655646Y-87775147D01*
X189803216Y-87676544D01*
X189967188Y-87608624D01*
X190116488Y-87578927D01*
X190141258Y-87574000D01*
X190318742Y-87574000D01*
X190343512Y-87578927D01*
X190343512Y-87578927D01*
G37*
G36*
X159403512Y-86183927D02*
G01*
X159552812Y-86213624D01*
X159716784Y-86281544D01*
X159864354Y-86380147D01*
X159989853Y-86505646D01*
X160088456Y-86653216D01*
X160156376Y-86817188D01*
X160191000Y-86991259D01*
X160191000Y-87168741D01*
X160156376Y-87342812D01*
X160088456Y-87506784D01*
X159989853Y-87654354D01*
X159864354Y-87779853D01*
X159716784Y-87878456D01*
X159552812Y-87946376D01*
X159403512Y-87976073D01*
X159378742Y-87981000D01*
X159201258Y-87981000D01*
X159176488Y-87976073D01*
X159027188Y-87946376D01*
X158863216Y-87878456D01*
X158715646Y-87779853D01*
X158590147Y-87654354D01*
X158491544Y-87506784D01*
X158423624Y-87342812D01*
X158389000Y-87168741D01*
X158389000Y-86991259D01*
X158423624Y-86817188D01*
X158491544Y-86653216D01*
X158590147Y-86505646D01*
X158715646Y-86380147D01*
X158863216Y-86281544D01*
X159027188Y-86213624D01*
X159176488Y-86183927D01*
X159201258Y-86179000D01*
X159378742Y-86179000D01*
X159403512Y-86183927D01*
X159403512Y-86183927D01*
G37*
G36*
X174643512Y-86183927D02*
G01*
X174792812Y-86213624D01*
X174956784Y-86281544D01*
X175104354Y-86380147D01*
X175229853Y-86505646D01*
X175328456Y-86653216D01*
X175396376Y-86817188D01*
X175431000Y-86991259D01*
X175431000Y-87168741D01*
X175396376Y-87342812D01*
X175328456Y-87506784D01*
X175229853Y-87654354D01*
X175104354Y-87779853D01*
X174956784Y-87878456D01*
X174792812Y-87946376D01*
X174643512Y-87976073D01*
X174618742Y-87981000D01*
X174441258Y-87981000D01*
X174416488Y-87976073D01*
X174267188Y-87946376D01*
X174103216Y-87878456D01*
X173955646Y-87779853D01*
X173830147Y-87654354D01*
X173731544Y-87506784D01*
X173663624Y-87342812D01*
X173629000Y-87168741D01*
X173629000Y-86991259D01*
X173663624Y-86817188D01*
X173731544Y-86653216D01*
X173830147Y-86505646D01*
X173955646Y-86380147D01*
X174103216Y-86281544D01*
X174267188Y-86213624D01*
X174416488Y-86183927D01*
X174441258Y-86179000D01*
X174618742Y-86179000D01*
X174643512Y-86183927D01*
X174643512Y-86183927D01*
G37*
G36*
X154043512Y-85038927D02*
G01*
X154192812Y-85068624D01*
X154356784Y-85136544D01*
X154504354Y-85235147D01*
X154629853Y-85360646D01*
X154728456Y-85508216D01*
X154796376Y-85672188D01*
X154831000Y-85846259D01*
X154831000Y-86023741D01*
X154796376Y-86197812D01*
X154728456Y-86361784D01*
X154629853Y-86509354D01*
X154504354Y-86634853D01*
X154356784Y-86733456D01*
X154192812Y-86801376D01*
X154043512Y-86831073D01*
X154018742Y-86836000D01*
X153841258Y-86836000D01*
X153816488Y-86831073D01*
X153667188Y-86801376D01*
X153503216Y-86733456D01*
X153355646Y-86634853D01*
X153230147Y-86509354D01*
X153131544Y-86361784D01*
X153063624Y-86197812D01*
X153029000Y-86023741D01*
X153029000Y-85846259D01*
X153063624Y-85672188D01*
X153131544Y-85508216D01*
X153230147Y-85360646D01*
X153355646Y-85235147D01*
X153503216Y-85136544D01*
X153667188Y-85068624D01*
X153816488Y-85038927D01*
X153841258Y-85034000D01*
X154018742Y-85034000D01*
X154043512Y-85038927D01*
X154043512Y-85038927D01*
G37*
G36*
X203043512Y-85038927D02*
G01*
X203192812Y-85068624D01*
X203356784Y-85136544D01*
X203504354Y-85235147D01*
X203629853Y-85360646D01*
X203728456Y-85508216D01*
X203796376Y-85672188D01*
X203831000Y-85846259D01*
X203831000Y-86023741D01*
X203796376Y-86197812D01*
X203728456Y-86361784D01*
X203629853Y-86509354D01*
X203504354Y-86634853D01*
X203356784Y-86733456D01*
X203192812Y-86801376D01*
X203043512Y-86831073D01*
X203018742Y-86836000D01*
X202841258Y-86836000D01*
X202816488Y-86831073D01*
X202667188Y-86801376D01*
X202503216Y-86733456D01*
X202355646Y-86634853D01*
X202230147Y-86509354D01*
X202131544Y-86361784D01*
X202063624Y-86197812D01*
X202029000Y-86023741D01*
X202029000Y-85846259D01*
X202063624Y-85672188D01*
X202131544Y-85508216D01*
X202230147Y-85360646D01*
X202355646Y-85235147D01*
X202503216Y-85136544D01*
X202667188Y-85068624D01*
X202816488Y-85038927D01*
X202841258Y-85034000D01*
X203018742Y-85034000D01*
X203043512Y-85038927D01*
X203043512Y-85038927D01*
G37*
G36*
X125043512Y-85038927D02*
G01*
X125192812Y-85068624D01*
X125356784Y-85136544D01*
X125504354Y-85235147D01*
X125629853Y-85360646D01*
X125728456Y-85508216D01*
X125796376Y-85672188D01*
X125831000Y-85846259D01*
X125831000Y-86023741D01*
X125796376Y-86197812D01*
X125728456Y-86361784D01*
X125629853Y-86509354D01*
X125504354Y-86634853D01*
X125356784Y-86733456D01*
X125192812Y-86801376D01*
X125043512Y-86831073D01*
X125018742Y-86836000D01*
X124841258Y-86836000D01*
X124816488Y-86831073D01*
X124667188Y-86801376D01*
X124503216Y-86733456D01*
X124355646Y-86634853D01*
X124230147Y-86509354D01*
X124131544Y-86361784D01*
X124063624Y-86197812D01*
X124029000Y-86023741D01*
X124029000Y-85846259D01*
X124063624Y-85672188D01*
X124131544Y-85508216D01*
X124230147Y-85360646D01*
X124355646Y-85235147D01*
X124503216Y-85136544D01*
X124667188Y-85068624D01*
X124816488Y-85038927D01*
X124841258Y-85034000D01*
X125018742Y-85034000D01*
X125043512Y-85038927D01*
X125043512Y-85038927D01*
G37*
G36*
X159403512Y-83643927D02*
G01*
X159552812Y-83673624D01*
X159716784Y-83741544D01*
X159864354Y-83840147D01*
X159989853Y-83965646D01*
X160088456Y-84113216D01*
X160156376Y-84277188D01*
X160191000Y-84451259D01*
X160191000Y-84628741D01*
X160156376Y-84802812D01*
X160088456Y-84966784D01*
X159989853Y-85114354D01*
X159864354Y-85239853D01*
X159716784Y-85338456D01*
X159552812Y-85406376D01*
X159403512Y-85436073D01*
X159378742Y-85441000D01*
X159201258Y-85441000D01*
X159176488Y-85436073D01*
X159027188Y-85406376D01*
X158863216Y-85338456D01*
X158715646Y-85239853D01*
X158590147Y-85114354D01*
X158491544Y-84966784D01*
X158423624Y-84802812D01*
X158389000Y-84628741D01*
X158389000Y-84451259D01*
X158423624Y-84277188D01*
X158491544Y-84113216D01*
X158590147Y-83965646D01*
X158715646Y-83840147D01*
X158863216Y-83741544D01*
X159027188Y-83673624D01*
X159176488Y-83643927D01*
X159201258Y-83639000D01*
X159378742Y-83639000D01*
X159403512Y-83643927D01*
X159403512Y-83643927D01*
G37*
G36*
X174643512Y-83643927D02*
G01*
X174792812Y-83673624D01*
X174956784Y-83741544D01*
X175104354Y-83840147D01*
X175229853Y-83965646D01*
X175328456Y-84113216D01*
X175396376Y-84277188D01*
X175431000Y-84451259D01*
X175431000Y-84628741D01*
X175396376Y-84802812D01*
X175328456Y-84966784D01*
X175229853Y-85114354D01*
X175104354Y-85239853D01*
X174956784Y-85338456D01*
X174792812Y-85406376D01*
X174643512Y-85436073D01*
X174618742Y-85441000D01*
X174441258Y-85441000D01*
X174416488Y-85436073D01*
X174267188Y-85406376D01*
X174103216Y-85338456D01*
X173955646Y-85239853D01*
X173830147Y-85114354D01*
X173731544Y-84966784D01*
X173663624Y-84802812D01*
X173629000Y-84628741D01*
X173629000Y-84451259D01*
X173663624Y-84277188D01*
X173731544Y-84113216D01*
X173830147Y-83965646D01*
X173955646Y-83840147D01*
X174103216Y-83741544D01*
X174267188Y-83673624D01*
X174416488Y-83643927D01*
X174441258Y-83639000D01*
X174618742Y-83639000D01*
X174643512Y-83643927D01*
X174643512Y-83643927D01*
G37*
G36*
X159498228Y-78931703D02*
G01*
X159653100Y-78995853D01*
X159792481Y-79088985D01*
X159911015Y-79207519D01*
X160004147Y-79346900D01*
X160068297Y-79501772D01*
X160101000Y-79666184D01*
X160101000Y-79833816D01*
X160068297Y-79998228D01*
X160004147Y-80153100D01*
X159911015Y-80292481D01*
X159792481Y-80411015D01*
X159653100Y-80504147D01*
X159498228Y-80568297D01*
X159333816Y-80601000D01*
X159166184Y-80601000D01*
X159001772Y-80568297D01*
X158846900Y-80504147D01*
X158707519Y-80411015D01*
X158588985Y-80292481D01*
X158495853Y-80153100D01*
X158431703Y-79998228D01*
X158399000Y-79833816D01*
X158399000Y-79666184D01*
X158431703Y-79501772D01*
X158495853Y-79346900D01*
X158588985Y-79207519D01*
X158707519Y-79088985D01*
X158846900Y-78995853D01*
X159001772Y-78931703D01*
X159166184Y-78899000D01*
X159333816Y-78899000D01*
X159498228Y-78931703D01*
X159498228Y-78931703D01*
G37*
G36*
X161998228Y-78931703D02*
G01*
X162153100Y-78995853D01*
X162292481Y-79088985D01*
X162411015Y-79207519D01*
X162504147Y-79346900D01*
X162568297Y-79501772D01*
X162601000Y-79666184D01*
X162601000Y-79833816D01*
X162568297Y-79998228D01*
X162504147Y-80153100D01*
X162411015Y-80292481D01*
X162292481Y-80411015D01*
X162153100Y-80504147D01*
X161998228Y-80568297D01*
X161833816Y-80601000D01*
X161666184Y-80601000D01*
X161501772Y-80568297D01*
X161346900Y-80504147D01*
X161207519Y-80411015D01*
X161088985Y-80292481D01*
X160995853Y-80153100D01*
X160931703Y-79998228D01*
X160899000Y-79833816D01*
X160899000Y-79666184D01*
X160931703Y-79501772D01*
X160995853Y-79346900D01*
X161088985Y-79207519D01*
X161207519Y-79088985D01*
X161346900Y-78995853D01*
X161501772Y-78931703D01*
X161666184Y-78899000D01*
X161833816Y-78899000D01*
X161998228Y-78931703D01*
X161998228Y-78931703D01*
G37*
G36*
X112384239Y-68561467D02*
G01*
X112698282Y-68623934D01*
X113289926Y-68869001D01*
X113822392Y-69224784D01*
X114275216Y-69677608D01*
X114630999Y-70210074D01*
X114876066Y-70801718D01*
X115001000Y-71429804D01*
X115001000Y-72070196D01*
X114876066Y-72698282D01*
X114630999Y-73289926D01*
X114275216Y-73822392D01*
X113822392Y-74275216D01*
X113289926Y-74630999D01*
X112698282Y-74876066D01*
X112384239Y-74938533D01*
X112070197Y-75001000D01*
X111429803Y-75001000D01*
X111115761Y-74938533D01*
X110801718Y-74876066D01*
X110210074Y-74630999D01*
X109677608Y-74275216D01*
X109224784Y-73822392D01*
X108869001Y-73289926D01*
X108623934Y-72698282D01*
X108499000Y-72070196D01*
X108499000Y-71429804D01*
X108623934Y-70801718D01*
X108869001Y-70210074D01*
X109224784Y-69677608D01*
X109677608Y-69224784D01*
X110210074Y-68869001D01*
X110801718Y-68623934D01*
X111115761Y-68561467D01*
X111429803Y-68499000D01*
X112070197Y-68499000D01*
X112384239Y-68561467D01*
X112384239Y-68561467D01*
G37*
G36*
X192384239Y-68561467D02*
G01*
X192698282Y-68623934D01*
X193289926Y-68869001D01*
X193822392Y-69224784D01*
X194275216Y-69677608D01*
X194630999Y-70210074D01*
X194876066Y-70801718D01*
X195001000Y-71429804D01*
X195001000Y-72070196D01*
X194876066Y-72698282D01*
X194630999Y-73289926D01*
X194275216Y-73822392D01*
X193822392Y-74275216D01*
X193289926Y-74630999D01*
X192698282Y-74876066D01*
X192384239Y-74938533D01*
X192070197Y-75001000D01*
X191429803Y-75001000D01*
X191115761Y-74938533D01*
X190801718Y-74876066D01*
X190210074Y-74630999D01*
X189677608Y-74275216D01*
X189224784Y-73822392D01*
X188869001Y-73289926D01*
X188623934Y-72698282D01*
X188499000Y-72070196D01*
X188499000Y-71429804D01*
X188623934Y-70801718D01*
X188869001Y-70210074D01*
X189224784Y-69677608D01*
X189677608Y-69224784D01*
X190210074Y-68869001D01*
X190801718Y-68623934D01*
X191115761Y-68561467D01*
X191429803Y-68499000D01*
X192070197Y-68499000D01*
X192384239Y-68561467D01*
X192384239Y-68561467D01*
G37*
G36*
X151803765Y-72248620D02*
G01*
X151993288Y-72327123D01*
X152163854Y-72441092D01*
X152308908Y-72586146D01*
X152422877Y-72756712D01*
X152501380Y-72946235D01*
X152541400Y-73147431D01*
X152541400Y-73352569D01*
X152501380Y-73553765D01*
X152422877Y-73743288D01*
X152308908Y-73913854D01*
X152163854Y-74058908D01*
X151993288Y-74172877D01*
X151993287Y-74172878D01*
X151993286Y-74172878D01*
X151803765Y-74251380D01*
X151602570Y-74291400D01*
X151397430Y-74291400D01*
X151196235Y-74251380D01*
X151006714Y-74172878D01*
X151006713Y-74172878D01*
X151006712Y-74172877D01*
X150836146Y-74058908D01*
X150691092Y-73913854D01*
X150577123Y-73743288D01*
X150498620Y-73553765D01*
X150458600Y-73352569D01*
X150458600Y-73147431D01*
X150498620Y-72946235D01*
X150577123Y-72756712D01*
X150691092Y-72586146D01*
X150836146Y-72441092D01*
X151006712Y-72327123D01*
X151196235Y-72248620D01*
X151397430Y-72208600D01*
X151602570Y-72208600D01*
X151803765Y-72248620D01*
X151803765Y-72248620D01*
G37*
G36*
X154343765Y-72248620D02*
G01*
X154533288Y-72327123D01*
X154703854Y-72441092D01*
X154848908Y-72586146D01*
X154962877Y-72756712D01*
X155041380Y-72946235D01*
X155081400Y-73147431D01*
X155081400Y-73352569D01*
X155041380Y-73553765D01*
X154962877Y-73743288D01*
X154848908Y-73913854D01*
X154703854Y-74058908D01*
X154533288Y-74172877D01*
X154533287Y-74172878D01*
X154533286Y-74172878D01*
X154343765Y-74251380D01*
X154142570Y-74291400D01*
X153937430Y-74291400D01*
X153736235Y-74251380D01*
X153546714Y-74172878D01*
X153546713Y-74172878D01*
X153546712Y-74172877D01*
X153376146Y-74058908D01*
X153231092Y-73913854D01*
X153117123Y-73743288D01*
X153038620Y-73553765D01*
X152998600Y-73352569D01*
X152998600Y-73147431D01*
X153038620Y-72946235D01*
X153117123Y-72756712D01*
X153231092Y-72586146D01*
X153376146Y-72441092D01*
X153546712Y-72327123D01*
X153736235Y-72248620D01*
X153937430Y-72208600D01*
X154142570Y-72208600D01*
X154343765Y-72248620D01*
X154343765Y-72248620D01*
G37*
M02*
